<?xml version="1.0" encoding="UTF-8"?> <svg xmlns="http://www.w3.org/2000/svg" width="452.341" height="429.14" viewBox="0 0 452.341 429.14"><defs><style>.a{fill:#f5f5f5;}.b{fill:#ebebeb;}.c{fill:#e0e0e0;}.d{fill:#fafafa;}.e{fill:#fff;}.f{fill:#263238;}.g{fill:#3083c5;}.h{fill:#455a64;}.i{fill:#ffbe9d;}.j{fill:#eb996e;}.k{opacity:0.3;}.l{opacity:0.6;}</style></defs><g transform="translate(-24.42 -39.9)"><rect class="a" width="105.97" height="335.84" transform="translate(80.81 128.74)"></rect><rect class="b" width="52.98" height="334.92" transform="translate(133.79 128.74)"></rect><rect class="a" width="37.42" height="32.97" transform="translate(92.91 95.77)"></rect><rect class="b" width="8.92" height="32.97" transform="translate(121.41 95.77)"></rect><path class="c" d="M71.98,128.74v-1.92h117.9v1.92"></path><rect class="d" width="8.97" height="18.91" transform="translate(101.73 143.12)"></rect><path class="c" d="M133.79,169.46c0,.2-11.86.36-26.49.36s-26.49-.16-26.49-.36,11.86-.36,26.49-.36S133.79,169.26,133.79,169.46Z"></path><rect class="c" width="8.97" height="18.91" transform="translate(155.17 143.12)"></rect><path class="c" d="M187.24,169.46c0,.2-11.86.36-26.49.36s-26.49-.16-26.49-.36,11.85-.36,26.49-.36S187.24,169.26,187.24,169.46Z"></path><rect class="c" width="8.97" height="18.91" transform="translate(155.17 180.67)"></rect><path class="c" d="M187.24,207c0,.2-11.86.36-26.49.36s-26.49-.16-26.49-.36,11.85-.36,26.49-.36S187.24,206.81,187.24,207Z"></path><rect class="c" width="8.97" height="18.91" transform="translate(155.17 219.36)"></rect><path class="c" d="M187.24,245.7c0,.19-11.86.36-26.49.36s-26.49-.17-26.49-.36,11.85-.37,26.49-.37S187.24,245.5,187.24,245.7Z"></path><rect class="c" width="8.97" height="18.91" transform="translate(155.17 258.04)"></rect><path class="c" d="M187.24,284.38c0,.2-11.86.36-26.49.36s-26.49-.16-26.49-.36,11.85-.36,26.49-.36S187.24,284.18,187.24,284.38Z"></path><rect class="c" width="8.97" height="18.91" transform="translate(155.17 295.62)"></rect><path class="c" d="M187.24,322c0,.2-11.86.36-26.49.36s-26.49-.16-26.49-.36,11.85-.36,26.49-.36S187.24,321.76,187.24,322Z"></path><rect class="c" width="8.97" height="18.91" transform="translate(155.17 333.35)"></rect><rect class="c" width="8.97" height="18.91" transform="translate(155.17 371.57)"></rect><path class="c" d="M187.24,359.69c0,.2-11.86.36-26.49.36s-26.49-.16-26.49-.36,11.85-.36,26.49-.36S187.24,359.49,187.24,359.69Z"></path><rect class="d" width="8.97" height="18.91" transform="translate(101.73 181.25)"></rect><path class="c" d="M133.79,207.58c0,.2-11.86.37-26.49.37s-26.49-.17-26.49-.37,11.86-.36,26.49-.36S133.79,207.38,133.79,207.58Z"></path><rect class="d" width="8.97" height="18.91" transform="translate(101.73 219.37)"></rect><path class="c" d="M133.79,245.71c0,.2-11.86.36-26.49.36s-26.49-.16-26.49-.36,11.86-.36,26.49-.36S133.79,245.51,133.79,245.71Z"></path><rect class="d" width="8.97" height="18.91" transform="translate(101.73 257.5)"></rect><path class="c" d="M133.79,283.83c0,.2-11.86.36-26.49.36s-26.49-.16-26.49-.36,11.86-.36,26.49-.36S133.79,283.63,133.79,283.83Z"></path><rect class="d" width="8.97" height="18.91" transform="translate(101.73 295.62)"></rect><path class="c" d="M133.79,322c0,.2-11.86.36-26.49.36s-26.49-.16-26.49-.36,11.86-.36,26.49-.36S133.79,321.76,133.79,322Z"></path><rect class="d" width="8.97" height="18.91" transform="translate(101.73 333.74)"></rect><path class="c" d="M133.79,360.08c0,.2-11.86.36-26.49.36s-26.49-.16-26.49-.36,11.86-.36,26.49-.36S133.79,359.88,133.79,360.08Z"></path><rect class="d" width="8.97" height="18.91" transform="translate(101.73 371.87)"></rect><path class="b" d="M157.62,463.75H35.16L34.62,270.2H157.09Z"></path><rect class="c" width="61.23" height="193.55" transform="translate(95.86 270.2)"></rect><rect class="b" width="43.25" height="38.1" transform="translate(48.61 232.1)"></rect><rect class="c" width="10.31" height="38.1" transform="translate(81.55 232.1)"></rect><rect class="c" width="136.25" height="2.22" transform="translate(24.42 267.98)"></rect><rect class="e" width="10.37" height="21.86" transform="translate(58.8 286.82)"></rect><path class="c" d="M95.86,317.26c0,.23-13.71.42-30.62.42s-30.62-.19-30.62-.42,13.71-.42,30.62-.42S95.86,317,95.86,317.26Z"></path><rect class="a" width="10.37" height="21.86" transform="translate(120.56 286.82)"></rect><path class="b" d="M157.62,317.26c0,.23-13.71.42-30.61.42s-30.62-.19-30.62-.42,13.71-.42,30.62-.42S157.62,317,157.62,317.26Z"></path><rect class="a" width="10.37" height="21.86" transform="translate(120.56 330.22)"></rect><path class="b" d="M157.62,360.65c0,.24-13.71.42-30.61.42s-30.62-.18-30.62-.42,13.71-.41,30.62-.41S157.62,360.42,157.62,360.65Z"></path><rect class="a" width="10.37" height="21.86" transform="translate(120.56 374.92)"></rect><path class="b" d="M157.62,405.36c0,.23-13.71.42-30.61.42s-30.62-.19-30.62-.42,13.71-.42,30.62-.42S157.62,405.13,157.62,405.36Z"></path><rect class="a" width="10.37" height="21.86" transform="translate(120.56 419.63)"></rect><path class="b" d="M157.62,450.07c0,.23-13.71.41-30.61.41s-30.62-.18-30.62-.41,13.71-.42,30.62-.42S157.62,449.84,157.62,450.07Z"></path><rect class="e" width="10.37" height="21.86" transform="translate(58.8 330.88)"></rect><path class="c" d="M95.86,361.32c0,.23-13.71.41-30.62.41s-30.62-.18-30.62-.41,13.71-.42,30.62-.42S95.86,361.09,95.86,361.32Z"></path><rect class="e" width="10.37" height="21.86" transform="translate(58.8 374.94)"></rect><path class="c" d="M95.86,405.38c0,.23-13.71.41-30.62.41s-30.62-.18-30.62-.41S48.33,405,65.24,405,95.86,405.15,95.86,405.38Z"></path><rect class="e" width="10.37" height="21.86" transform="translate(58.8 419)"></rect><path class="c" d="M95.86,449.43c0,.24-13.71.42-30.62.42s-30.62-.18-30.62-.42S48.33,449,65.24,449,95.86,449.2,95.86,449.43Z"></path><rect class="b" width="121.5" height="160.25" transform="translate(270.3 303.66)"></rect><rect class="c" width="56.97" height="160.25" transform="translate(334.82 303.66)"></rect><rect class="a" width="10.92" height="26.54" transform="translate(295.77 325.35)"></rect><rect class="a" width="10.92" height="26.54" transform="translate(295.77 429.23)"></rect><path class="a" d="M334.82,362.31c0,.3-14.44.54-32.26.54s-32.26-.24-32.26-.54,14.44-.54,32.26-.54S334.82,362,334.82,362.31Z"></path><rect class="a" width="10.92" height="26.54" transform="translate(295.77 377.69)"></rect><path class="a" d="M334.82,414.64c0,.3-14.44.54-32.26.54s-32.26-.24-32.26-.54,14.44-.54,32.26-.54S334.82,414.35,334.82,414.64Z"></path><rect class="a" width="10.92" height="26.54" transform="translate(346.92 325.35)"></rect><rect class="a" width="10.92" height="26.54" transform="translate(370.62 325.35)"></rect><rect class="a" width="10.92" height="26.54" transform="translate(346.92 375.72)"></rect><rect class="a" width="10.92" height="26.54" transform="translate(370.62 375.72)"></rect><rect class="a" width="10.92" height="26.54" transform="translate(346.92 426.08)"></rect><rect class="a" width="10.92" height="26.54" transform="translate(370.62 426.08)"></rect><rect class="c" width="139.76" height="5.78" transform="translate(261.16 298.08)"></rect><path class="b" d="M392.64,304.4c0,.3-27.16.54-60.65.54s-60.65-.24-60.65-.54,27.15-.54,60.65-.54S392.64,304.1,392.64,304.4Z"></path><path class="b" d="M390.74,70.51c.59-4.28-5.45-7.8-10-8.16-2.16-.18-4.41.15-6.46-.56-4.44-1.55-6.21-7.29-10.54-9.11-3.24-1.37-7-.15-10.11,1.43s-6.24,3.57-9.75,3.79c-3.05.2-6.37-.93-9,.56-2,1.11-3,3.4-4.86,4.75s-4.14,1.6-6.36,1.73-4.53.14-6.56,1.07-3.7,3.07-3.28,5.26Z"></path><path class="a" d="M476.7,120.08c.89-6.43-8.19-11.72-15-12.27-3.25-.27-6.63.23-9.71-.84-6.67-2.33-9.34-11-15.85-13.7-4.87-2-10.48-.22-15.2,2.15s-9.38,5.37-14.65,5.7c-4.59.3-9.57-1.4-13.59.84-3,1.67-4.55,5.11-7.31,7.15s-6.22,2.41-9.56,2.59-6.81.22-9.86,1.61-5.56,4.62-4.93,7.91Z"></path><path class="a" d="M96.08,58.83c.45-3.27-4.16-5.95-7.63-6.23-1.65-.14-3.37.12-4.93-.43-3.39-1.18-4.75-5.57-8.06-7-2.48-1.05-5.32-.12-7.72,1.09S63,49,60.28,49.2c-2.33.15-4.86-.72-6.9.42-1.52.85-2.32,2.6-3.72,3.64a8.935,8.935,0,0,1-4.86,1.32,13.824,13.824,0,0,0-5,.81c-1.55.71-2.83,2.35-2.51,4Z"></path><path class="f" d="M470.18,464.48c0,.15-97.24.26-217.17.26s-217.19-.11-217.19-.26,97.22-.26,217.19-.26S470.18,464.34,470.18,464.48Z"></path><path class="f" d="M302.48,464.48l-144.27-.08A31.43,31.43,0,0,1,126.8,433l.07-361.68A31.42,31.42,0,0,1,158.29,39.9h.03l144.27.08A31.421,31.421,0,0,1,334,71.37l-.07,361.69a31.42,31.42,0,0,1-31.42,31.42Z"></path><path class="e" d="M303.63,52.69h-28a6.94,6.94,0,0,0-6.79,7.087V64.86a6.94,6.94,0,0,1-6.787,7.09H207.52a7,7,0,0,1-6.79-7.1V59.73a7,7,0,0,0-6.79-7.1H159.65a22,22,0,0,0-22,22h0l-.07,353a22,22,0,0,0,22,22l144,.08a22,22,0,0,0,22-22l.07-353a22,22,0,0,0-21.98-22.02Z"></path><path class="f" d="M303.63,52.69h.76a14.475,14.475,0,0,1,2.23.17,20.625,20.625,0,0,1,8.25,2.85,21.239,21.239,0,0,1,5,4.07,22.13,22.13,0,0,1,4.19,6.57,22.785,22.785,0,0,1,1.65,8.94V85.66c0,29.33,0,71.76.07,124.18s0,114.86,0,184.18v33a23.5,23.5,0,0,1-.84,6.71,22.241,22.241,0,0,1-2.81,6.2,23.652,23.652,0,0,1-4.59,5.09A22.2,22.2,0,0,1,304.9,450c-4.61.13-9.19,0-13.83.06H161.23a23.21,23.21,0,0,1-14.34-4A22.469,22.469,0,0,1,138.17,434a24.075,24.075,0,0,1-.92-7.44V223.34c0-34.67,0-67.6.05-98.43V75c0-.89.08-1.78.13-2.67a12.824,12.824,0,0,1,.45-2.62,22.333,22.333,0,0,1,22.57-17.33h32.94a7,7,0,0,1,4.33,1.21,7.3,7.3,0,0,1,2.7,3.53,11.777,11.777,0,0,1,.44,4.35v2.14a16.179,16.179,0,0,0,.07,2.1,7,7,0,0,0,1.64,3.69A6.47,6.47,0,0,0,206,71.53a7.238,7.238,0,0,0,2,.2h10l29,.05h15.8a6.387,6.387,0,0,0,2.69-1,7,7,0,0,0,3.09-4.43,12.63,12.63,0,0,0,.17-2.67v-2.6a14.608,14.608,0,0,1,.12-2.56,7.374,7.374,0,0,1,.83-2.36,6.92,6.92,0,0,1,3.51-3.11,10.851,10.851,0,0,1,4.37-.46h0a10.677,10.677,0,0,0-4.29.47,6.694,6.694,0,0,0-3.4,3,7.254,7.254,0,0,0-.8,2.29,15.067,15.067,0,0,0-.11,2.53v2.64a11.976,11.976,0,0,1-.17,2.72,7.23,7.23,0,0,1-3.18,4.6,6.9,6.9,0,0,1-2.8,1c-1,.09-2,0-3,0H208a7.669,7.669,0,0,1-2.07-.2,6.882,6.882,0,0,1-3.56-2.2,7.365,7.365,0,0,1-1.74-3.88,17.343,17.343,0,0,1-.07-2.15V61.52a11.389,11.389,0,0,0-.43-4.21A6.94,6.94,0,0,0,197.59,54a6.649,6.649,0,0,0-4.11-1.13H160.54A21.859,21.859,0,0,0,143,60.64a22.108,22.108,0,0,0-4.53,9.13c-.22.84-.28,1.71-.43,2.57a16.315,16.315,0,0,0-.12,2.62V426.52a23.439,23.439,0,0,0,.9,7.27,21.828,21.828,0,0,0,8.48,11.71,22.552,22.552,0,0,0,14,3.85H291.11c4.62,0,9.25.07,13.8-.06a21.652,21.652,0,0,0,12.37-4.8,23.062,23.062,0,0,0,4.46-4.95,21.534,21.534,0,0,0,2.74-6,23,23,0,0,0,.83-6.55V394c0-69.32.07-131.75.1-184.18s.1-94.85.13-124.18V75.27a22.62,22.62,0,0,0-1.6-8.87,22.2,22.2,0,0,0-17.31-13.54,18.55,18.55,0,0,0-2.22-.2Z"></path><path class="f" d="M307.89,88.34c0,.1-3.64.2-8.13.24s-8.12,0-8.12-.11,3.63-.2,8.12-.23S307.89,88.25,307.89,88.34Z"></path><path class="f" d="M307.92,92.5c0,.09-3.63.2-8.12.24s-8.13,0-8.13-.11,3.64-.2,8.13-.24S307.92,92.4,307.92,92.5Z"></path><path class="f" d="M308,96.66c0,.09-3.64.2-8.13.23s-8.12,0-8.12-.1,3.63-.2,8.12-.24S308,96.56,308,96.66Z"></path><path class="f" d="M160.09,101.4h1.28l3.46-.08-.09.09V97.45a1.34,1.34,0,0,1,1.17-1.07h1.66a1.349,1.349,0,0,1,1.13,1.34v3.67l-.16-.16h4.38l-.17.17V94.55a1.418,1.418,0,0,0-.61-1l-1.91-1.89-1.85-1.82-.9-.88a2.008,2.008,0,0,0-.9-.68,1.167,1.167,0,0,0-1,.19c-.27.23-.55.55-.82.81l-1.57,1.58c-1,1-2,2-2.76,2.85a3,3,0,0,0-.22,1.63v6.19a3.223,3.223,0,0,1,0-.52c0-.43,0-.94-.05-1.57s0-1.55,0-2.5V94.5a1.758,1.758,0,0,1,.25-.91c.81-1,1.77-1.87,2.77-2.93l1.56-1.6c.28-.27.51-.55.84-.83a1.47,1.47,0,0,1,1.27-.25,2.279,2.279,0,0,1,1.05.75l.9.88,1.85,1.81,1.92,1.89a3.672,3.672,0,0,1,.49.53,1.426,1.426,0,0,1,.23.73v7.02h-4.7V97.76a1.07,1.07,0,0,0-.89-1.06h-1.59a1.05,1.05,0,0,0-.94.85v4.01h-4.54A1.46,1.46,0,0,1,160.09,101.4Z"></path><path class="f" d="M222.7,111.64c0,1.16-.92,1.83-2.68,1.83h-3.47v-6.7h3.27c1.68,0,2.54.7,2.54,1.74a1.61,1.61,0,0,1-.89,1.48A1.65,1.65,0,0,1,222.7,111.64Zm-4.61-3.7v1.58h1.54c.76,0,1.17-.27,1.17-.8s-.41-.78-1.17-.78Zm3,3.54c0-.56-.43-.83-1.24-.83h-1.81v1.66h1.81c.86,0,1.29-.25,1.29-.83Z"></path><path class="f" d="M223.39,110.9a2.84,2.84,0,1,1,3.024,2.644c-.061,0-.123.006-.184.006a2.66,2.66,0,0,1-2.834-2.474C223.392,111.017,223.39,110.959,223.39,110.9Zm4.15,0a1.306,1.306,0,1,0,.005.115C227.545,110.976,227.543,110.938,227.54,110.9Z"></path><path class="f" d="M229.67,110.9a2.84,2.84,0,1,1,3.024,2.644c-.065,0-.129.006-.194.006a2.651,2.651,0,0,1-2.824-2.464Q229.67,110.993,229.67,110.9Zm4.15,0a1.306,1.306,0,1,0,0,.125c0-.042,0-.084,0-.125Z"></path><path class="f" d="M238.54,111.45l-.72.71v1.31h-1.49v-7.11h1.49v4l2.19-2.07h1.78l-2.15,2.18,2.34,3h-1.81Z"></path><path class="f" d="M242.43,106.77a.86.86,0,0,1,.877-.843l.053,0a.839.839,0,0,1,.925.745c0,.021,0,.043,0,.065a.93.93,0,1,1-1.86,0Zm.18,1.55h1.5v5.15h-1.5Z"></path><path class="f" d="M250.77,110.52v3h-1.5V110.8c0-.83-.38-1.21-1-1.21a1.24,1.24,0,0,0-1.27,1.34v2.54h-1.5v-5.15h1.43v.6a2.241,2.241,0,0,1,1.7-.68,2,2,0,0,1,2.154,1.833A2.025,2.025,0,0,1,250.77,110.52Z"></path><path class="f" d="M257.5,108.32v4.29c0,1.92-1,2.8-2.9,2.8a4.27,4.27,0,0,1-2.53-.71l.6-1.07a3.117,3.117,0,0,0,1.82.58c1,0,1.51-.48,1.51-1.41v-.22a2.12,2.12,0,0,1-1.63.64,2.5,2.5,0,0,1,0-5h0a2.07,2.07,0,0,1,1.71.74v-.66Zm-1.5,2.41A1.36,1.36,0,1,0,254.553,112c.032,0,.065,0,.1,0A1.25,1.25,0,0,0,256,110.854,1.026,1.026,0,0,0,256,110.73Z"></path><rect class="g" width="61.88" height="55.83" rx="2.55" transform="translate(156.31 199.55)"></rect><path class="f" d="M236.49,204.86v5.51h-1.28v-2.26h-2.5v2.26h-1.27v-5.51h1.27V207h2.5v-2.17Z"></path><path class="f" d="M237.4,208.25a2.33,2.33,0,1,1,2.475,2.175c-.048,0-.1,0-.145,0A2.18,2.18,0,0,1,237.4,208.4C237.4,208.354,237.4,208.3,237.4,208.25Zm3.4,0a1.08,1.08,0,1,0-1.07,1.17,1.061,1.061,0,0,0,1.076-1.044q0-.063-.006-.126Z"></path><path class="f" d="M245.6,210.16a1.679,1.679,0,0,1-1,.27,1.39,1.39,0,0,1-1.573-1.178,1.35,1.35,0,0,1-.007-.342v-1.74h-.66v-.94H243v-1h1.23v1h1.05v.94h-1.05v1.73a.49.49,0,0,0,.414.556.469.469,0,0,0,.106,0,.848.848,0,0,0,.5-.16Z"></path><path class="f" d="M250.29,208.6h-3.21a1.14,1.14,0,0,0,1.21.85,1.492,1.492,0,0,0,1.07-.41l.65.71a2.48,2.48,0,0,1-4.17-1.5,2.16,2.16,0,0,1,2.138-2.182c.04,0,.081,0,.122,0a2.1,2.1,0,0,1,2.21,1.984c0,.072,0,.144,0,.216C250.31,208.36,250.29,208.49,250.29,208.6Zm-3.23-.72h2.09a1.06,1.06,0,0,0-2.09,0Z"></path><path class="f" d="M251.13,204.53h1.23v5.84h-1.23Z"></path><path class="g" d="M258.67,205.83l.46.92,1.01.15-.73.72.17,1.01-.91-.48-.91.48.18-1.01-.74-.72,1.02-.15Z"></path><path class="g" d="M262.63,205.83l.45.92,1.02.15-.73.72.17,1.01-.91-.48-.91.48.18-1.01-.74-.72,1.02-.15Z"></path><path class="g" d="M266.59,205.83l.46.92,1.01.15-.73.72.17,1.01-.91-.48-.91.48.18-1.01-.74-.72,1.02-.15Z"></path><path class="g" d="M270.55,205.83l.46.92,1.01.15-.73.72.17,1.01-.91-.48-.91.48.18-1.01-.74-.72,1.02-.15Z"></path><path class="g" d="M274.51,205.83l.46.92,1.01.15-.73.72.17,1.01-.91-.48-.91.48.18-1.01-.74-.72,1.02-.15Z"></path><path class="c" d="M275.28,215.89c0,.15-9.59.26-21.42.26s-21.42-.11-21.42-.26,9.59-.26,21.42-.26S275.28,215.75,275.28,215.89Z"></path><path class="f" d="M309,223.16c0,.14-17.35.26-38.73.26s-38.74-.12-38.74-.26,17.34-.26,38.74-.26S309,223,309,223.16Z"></path><path class="f" d="M270.35,230.6c0,.14-8.52.26-19,.26s-19-.12-19-.26,8.51-.26,19-.26S270.35,230.45,270.35,230.6Z"></path><rect class="g" width="45.2" height="14.38" rx="6.01" transform="translate(230.83 238.55)"></rect><path class="e" d="M249.86,246.35c0,.69-.53,1.09-1.56,1.09h-1.94v-4.07h1.83c.93,0,1.46.4,1.46,1.06a1.041,1.041,0,0,0,.21,1.92Zm-2.92-2.5v1.3h1.2c.59,0,.93-.22.93-.65s-.34-.65-.93-.65Zm2.33,2.45c0-.47-.34-.68-1-.68h-1.34V247h1.34C248.93,247,249.27,246.77,249.27,246.3Z"></path><path class="e" d="M250.39,245.9a1.61,1.61,0,1,1,1.64,1.58H252a1.53,1.53,0,0,1-1.609-1.447C250.389,245.989,250.388,245.944,250.39,245.9Zm2.64,0a1.035,1.035,0,1,0-1.035,1.035A1.035,1.035,0,0,0,253.03,245.9Z"></path><path class="e" d="M254.09,245.9a1.6,1.6,0,1,1,1.62,1.58h-.02a1.53,1.53,0,0,1-1.6-1.457C254.089,245.982,254.089,245.941,254.09,245.9Zm2.63,0a1.035,1.035,0,1,0-1.035,1.035A1.035,1.035,0,0,0,256.72,245.9Z"></path><path class="e" d="M259.26,246l-.64.59v.84h-.56v-4.31h.56v2.77l1.68-1.54h.7l-1.29,1.28,1.42,1.8h-.69Z"></path><path class="e" d="M195.19,245.44a5.513,5.513,0,0,1,0-.63v-1.76c0-1.57,0-3.79-.06-6.58,0-5.64-.07-13.57-.12-22.9l.24.23H173.76c-.06,0,.49-.49.26-.26h0V245.4l-.21-.21,15.6.11h5.49a2.005,2.005,0,0,1,.41,0,2.287,2.287,0,0,1-.37,0h-5.4l-15.73.11h-.2V213.56h0c-.23.23.32-.32.27-.26h21.73v.24c-.05,9.39-.09,17.38-.12,23.06,0,2.76-.05,5-.07,6.52v1.72A3.887,3.887,0,0,1,195.19,245.44Z"></path><path class="e" d="M191,209.33a28.621,28.621,0,0,1,.24,4.24v.23h-3.08l-.26-.27h0v-4.45h.21a15.526,15.526,0,0,1,2.84.21,21.254,21.254,0,0,1-2.84.21l.21-.21v4.26h0c.23.24-.32-.31-.26-.25h2.84l-.24.24A35.94,35.94,0,0,1,191,209.33Z"></path><path class="e" d="M203.22,245.61a2.714,2.714,0,0,1-.51,0H195v-.15c-.06-7.17-.1-18.78-.1-31.87v-.26h8.55v.26c0,9.14-.08,17.17-.11,23,0,2.81-.06,5.08-.08,6.7v1.78a4.289,4.289,0,0,1,0,.6,6.058,6.058,0,0,1,0-.66v-1.84c0-1.63,0-3.92-.07-6.76,0-5.75-.07-13.71-.12-22.78l.26.25h-8l.26-.26c0,13.09,0,24.7-.11,31.87l-.15-.16,5.87.21,1.59.07C202.933,245.6,203.077,245.6,203.22,245.61Z"></path><rect class="e" width="3.33" height="3.33" transform="translate(177.12 217.56)"></rect><rect class="e" width="3.33" height="3.33" transform="translate(182.78 217.56)"></rect><rect class="e" width="3.33" height="3.33" transform="translate(188.43 217.56)"></rect><rect class="e" width="3.33" height="3.33" transform="translate(177.12 223.29)"></rect><rect class="e" width="3.33" height="3.33" transform="translate(182.78 223.29)"></rect><rect class="e" width="3.33" height="3.33" transform="translate(188.43 223.29)"></rect><rect class="e" width="3.33" height="3.33" transform="translate(177.12 229.02)"></rect><rect class="e" width="3.33" height="3.33" transform="translate(182.78 229.02)"></rect><rect class="e" width="3.33" height="3.33" transform="translate(188.43 229.02)"></rect><rect class="e" width="3.33" height="3.33" transform="translate(177.12 234.75)"></rect><rect class="e" width="3.33" height="3.33" transform="translate(182.78 234.75)"></rect><rect class="e" width="3.33" height="3.33" transform="translate(188.43 234.75)"></rect><rect class="e" width="3.33" height="3.33" transform="translate(197.26 217.56)"></rect><rect class="e" width="3.33" height="3.33" transform="translate(197.26 223.29)"></rect><rect class="e" width="3.33" height="3.33" transform="translate(197.26 229.02)"></rect><rect class="e" width="3.33" height="3.33" transform="translate(197.26 234.75)"></rect><rect class="e" width="3.26" height="5.16" transform="translate(183.16 240.28)"></rect><path class="e" d="M210.35,245.44c0,.14-10.34.26-23.1.26s-23.09-.12-23.09-.26,10.34-.26,23.09-.26S210.35,245.3,210.35,245.44Z"></path><path class="g" d="M312.85,263.12a6.133,6.133,0,0,0,1.22-.18,5,5,0,0,0,2.88-2,4.85,4.85,0,0,0,.84-2.47V247.19c0-12.13,0-29.67-.09-51.34a6.445,6.445,0,0,0-.18-2,4.934,4.934,0,0,0-.91-1.76,4.812,4.812,0,0,0-3.51-1.76H152.05a4.781,4.781,0,0,0-4.49,3.17,8,8,0,0,0-.28,3v61.96a4.81,4.81,0,0,0,3,4.07,5,5,0,0,0,1.28.31h15l76.14.06,51.3.1,14,.05h0l-14,.05-51.34.08-76.14.05H151.5a5.781,5.781,0,0,1-1.42-.34,5.29,5.29,0,0,1-3.3-4.49V194.85a4.989,4.989,0,0,1,.31-1.58,5.3,5.3,0,0,1,5-3.52H313.16a5.229,5.229,0,0,1,3.78,1.91,5.146,5.146,0,0,1,1,1.9,7,7,0,0,1,.19,2.07c0,21.67-.06,39.21-.08,51.34v11.29a5,5,0,0,1-3.84,4.54,3.887,3.887,0,0,1-.91.13Z"></path><rect class="g" width="61.88" height="55.83" rx="2.55" transform="translate(154.48 282.09)"></rect><path class="f" d="M234.66,287.4v5.51h-1.28v-2.26h-2.5v2.26H229.6V287.4h1.28v2.17h2.5V287.4Z"></path><path class="f" d="M235.56,290.79a2.33,2.33,0,1,1,2.475,2.175c-.048,0-.1.005-.145.005a2.18,2.18,0,0,1-2.325-2.025C235.562,290.894,235.56,290.842,235.56,290.79Zm3.41,0a.915.915,0,1,0,.034.146,1.013,1.013,0,0,0,0-.146Z"></path><path class="f" d="M243.77,292.7a1.718,1.718,0,0,1-1,.27,1.4,1.4,0,0,1-1.59-1.52v-1.74h-.65v-.94h.65v-1h1.23v1h1.06v.94h-1.06v1.73a.5.5,0,0,0,.53.56.877.877,0,0,0,.5-.16Z"></path><path class="f" d="M248.45,291.14h-3.2a1.12,1.12,0,0,0,1.21.85,1.453,1.453,0,0,0,1.06-.41l.66.71a2.23,2.23,0,0,1-1.75.68A2.2,2.2,0,0,1,244.021,291c-.007-.07-.011-.14-.011-.211a2.16,2.16,0,0,1,2.138-2.182c.04,0,.081,0,.122,0a2.09,2.09,0,0,1,2.2,1.974,2.131,2.131,0,0,1,0,.226C248.47,290.9,248.46,291,248.45,291.14Zm-3.22-.72h2.09a1.06,1.06,0,0,0-2.09,0Z"></path><path class="f" d="M249.29,287.07h1.23v5.84h-1.23Z"></path><path class="g" d="M256.84,288.37l.45.92,1.02.15-.74.72.18,1.01-.91-.48-.91.48.17-1.01-.73-.72,1.01-.15Z"></path><path class="g" d="M260.8,288.37l.45.92,1.02.15-.74.72.18,1.01-.91-.48-.91.48.17-1.01-.73-.72,1.01-.15Z"></path><path class="g" d="M264.76,288.37l.45.92,1.02.15-.74.72.18,1.01-.91-.48-.91.48.17-1.01-.73-.72,1.01-.15Z"></path><path class="c" d="M268.72,288.37l.45.92,1.02.15-.74.72.18,1.01-.91-.48-.91.48.17-1.01-.73-.72,1.01-.15Z"></path><path class="c" d="M272.68,288.37l.45.92,1.02.15-.74.72.18,1.01-.91-.48-.91.48.17-1.01-.73-.72,1.01-.15Z"></path><path class="c" d="M273.44,298.43c0,.15-9.59.26-21.41.26s-21.42-.11-21.42-.26,9.59-.26,21.42-.26S273.44,298.29,273.44,298.43Z"></path><path class="f" d="M307.18,305.7c0,.14-17.34.26-38.73.26s-38.73-.12-38.73-.26,17.34-.26,38.73-.26S307.18,305.55,307.18,305.7Z"></path><path class="f" d="M268.51,313.14c0,.14-8.51.26-19,.26s-19-.12-19-.26,8.51-.26,19-.26S268.51,313,268.51,313.14Z"></path><path class="g" d="M268.18,335.46a5.808,5.808,0,0,0,1.09-.15,6.054,6.054,0,0,0,2.77-1.38,5.881,5.881,0,0,0,2-4.33v-3.11a6,6,0,0,0-1.32-3.1,5.879,5.879,0,0,0-3.12-1.93,7.3,7.3,0,0,0-2-.16H235.05a5.78,5.78,0,0,0-5.65,4.65,16.045,16.045,0,0,0-.11,2.62,7.767,7.767,0,0,0,.26,2.53,5.781,5.781,0,0,0,5.45,4.07l17.29.06,11.66.08,3.17.05h1.1a1.01,1.01,0,0,1-.28,0h-3.99l-11.66.09-17.3.05a6.27,6.27,0,0,1-5.92-4.4,8.138,8.138,0,0,1-.29-2.68,15.654,15.654,0,0,1,.12-2.72,6.217,6.217,0,0,1,1.15-2.57,6.281,6.281,0,0,1,5-2.5H267.6a8.157,8.157,0,0,1,2.09.19,6.243,6.243,0,0,1,3.32,2.09,6.326,6.326,0,0,1,1.36,3.29c.06,1.15,0,2.16,0,3.15a6.113,6.113,0,0,1-2.17,4.48,5.894,5.894,0,0,1-2.88,1.33,5.008,5.008,0,0,1-.82.07A.938.938,0,0,1,268.18,335.46Z"></path><path class="g" d="M248,328.88c0,.7-.53,1.1-1.56,1.1H244.5v-4.07h1.82c.94,0,1.46.4,1.46,1a1.082,1.082,0,0,0,.22,1.97Zm-2.92-2.5v1.31h1.19c.59,0,.93-.23.93-.66s-.34-.65-.93-.65Zm2.33,2.46c0-.47-.35-.68-1-.68h-1.34v1.35h1.34c.68,0,1.03-.2,1.03-.67Z"></path><path class="g" d="M248.56,328.44a1.6,1.6,0,1,1,1.62,1.58h-.01a1.53,1.53,0,0,1-1.609-1.447C248.559,328.529,248.558,328.484,248.56,328.44Zm2.64,0a1.04,1.04,0,1,0-1.04,1.04A1.04,1.04,0,0,0,251.2,328.44Z"></path><path class="g" d="M252.25,328.44a1.6,1.6,0,1,1,1.62,1.58h-.01a1.53,1.53,0,0,1-1.609-1.447C252.249,328.529,252.248,328.484,252.25,328.44Zm2.64,0a1.035,1.035,0,1,0-1.035,1.035A1.035,1.035,0,0,0,254.89,328.44Z"></path><path class="g" d="M257.42,328.55l-.64.59V330h-.55v-4.31h.55v2.76l1.68-1.53h.68l-1.3,1.27,1.43,1.81h-.69Z"></path><path class="e" d="M193.35,328v-2.39c0-1.57,0-3.79-.07-6.58,0-5.64-.07-13.57-.11-22.91l.23.24H171.91l.26-.25h0v31.86l-.21-.21,15.59.11,4.35.05h1.15a1.782,1.782,0,0,1,.4,0,2.168,2.168,0,0,1-.36,0h-1.11l-4.3.06-15.72.11h-.21V296.14h0c-.23.23.32-.32.26-.27h21.73v.23c-.05,9.4-.09,17.39-.12,23.06,0,2.77,0,5-.06,6.53v1.72A3.871,3.871,0,0,1,193.35,328Z"></path><path class="e" d="M189.14,291.87a30.211,30.211,0,0,1,.24,4.23v.24h-3.09l-.26-.26h0V291.6h.2a15.821,15.821,0,0,1,2.85.21,21.56,21.56,0,0,1-2.85.21l.21-.21v4.26h0l-.26-.26h2.85l-.24.23A35.712,35.712,0,0,1,189.14,291.87Z"></path><path class="e" d="M201.38,328.15a4.335,4.335,0,0,1-.51,0h-7.7V328c-.06-7.17-.11-18.79-.11-31.88v-.26h8.55v.25c0,9.15-.09,17.17-.12,23,0,2.81-.05,5.08-.07,6.7v1.78a2.409,2.409,0,0,1,0,.6,6.058,6.058,0,0,1,0-.66v-1.84c0-1.64,0-3.92-.07-6.76,0-5.75-.07-13.71-.12-22.79l.25.26h-8l.26-.26c0,13.09,0,24.71-.1,31.88l-.15-.16,5.87.21,1.59.07A3.86,3.86,0,0,1,201.38,328.15Z"></path><rect class="e" width="3.33" height="3.33" transform="translate(175.29 300.1)"></rect><rect class="e" width="3.33" height="3.33" transform="translate(180.94 300.1)"></rect><rect class="e" width="3.33" height="3.33" transform="translate(186.6 300.1)"></rect><rect class="e" width="3.33" height="3.33" transform="translate(175.29 305.83)"></rect><rect class="e" width="3.33" height="3.33" transform="translate(180.94 305.83)"></rect><rect class="e" width="3.33" height="3.33" transform="translate(186.6 305.83)"></rect><rect class="e" width="3.33" height="3.33" transform="translate(175.29 311.56)"></rect><rect class="e" width="3.33" height="3.33" transform="translate(180.94 311.56)"></rect><rect class="e" width="3.33" height="3.33" transform="translate(186.6 311.56)"></rect><rect class="e" width="3.33" height="3.33" transform="translate(175.29 317.29)"></rect><rect class="e" width="3.33" height="3.33" transform="translate(180.94 317.29)"></rect><rect class="e" width="3.33" height="3.33" transform="translate(186.6 317.29)"></rect><rect class="e" width="3.33" height="3.33" transform="translate(195.42 300.1)"></rect><rect class="e" width="3.33" height="3.33" transform="translate(195.42 305.83)"></rect><rect class="e" width="3.33" height="3.33" transform="translate(195.42 311.56)"></rect><rect class="e" width="3.33" height="3.33" transform="translate(195.42 317.29)"></rect><rect class="e" width="3.26" height="5.16" transform="translate(181.33 322.82)"></rect><path class="e" d="M208.52,328c0,.14-10.35.26-23.1.26s-23.1-.12-23.1-.26,10.34-.26,23.1-.26S208.52,327.83,208.52,328Z"></path><rect class="g" width="61.88" height="55.83" rx="2.55" transform="translate(155.24 364.08)"></rect><path class="f" d="M235.42,369.39v5.51h-1.28v-2.26h-2.5v2.26h-1.28v-5.51h1.28v2.17h2.5v-2.17Z"></path><path class="f" d="M236.32,372.78a2.33,2.33,0,1,1,2.466,2.186c-.045,0-.091,0-.136,0a2.191,2.191,0,0,1-2.326-2.046C236.321,372.876,236.32,372.828,236.32,372.78Zm3.41,0a1.067,1.067,0,1,0,.006.126q0-.063-.006-.126Z"></path><path class="f" d="M244.53,374.7a1.765,1.765,0,0,1-1,.27,1.4,1.4,0,0,1-1.575-1.2,1.457,1.457,0,0,1-.005-.33v-1.73h-.66v-.95H242v-1h1.22v1h1.06v.95h-1.06v1.72a.5.5,0,0,0,.53.56.877.877,0,0,0,.5-.16Z"></path><path class="f" d="M249.21,373.13H246a1.129,1.129,0,0,0,1.21.85,1.412,1.412,0,0,0,1.06-.41l.66.71a2.239,2.239,0,0,1-1.75.69,2.21,2.21,0,0,1-2.41-1.99c-.006-.066-.01-.133-.01-.2A2.16,2.16,0,0,1,246.9,370.6c.034,0,.068,0,.1,0a2.1,2.1,0,0,1,2.21,1.984c0,.072,0,.144,0,.216A.908.908,0,0,1,249.21,373.13Zm-3.22-.72h2.09a1.06,1.06,0,0,0-2.09,0Z"></path><path class="f" d="M250.06,369.06h1.22v5.84h-1.22Z"></path><path class="g" d="M257.6,370.37l.45.92,1.02.14-.74.72.18,1.01-.91-.48-.91.48.18-1.01-.74-.72,1.01-.14Z"></path><path class="g" d="M261.56,370.37l.45.92,1.02.14-.74.72.18,1.01-.91-.48-.91.48.17-1.01-.73-.72,1.02-.14Z"></path><path class="c" d="M265.52,370.37l.45.92,1.02.14-.74.72.18,1.01-.91-.48-.91.48.18-1.01-.74-.72,1.02-.14Z"></path><path class="c" d="M269.48,370.37l.45.92,1.02.14-.74.72.18,1.01-.91-.48-.91.48.18-1.01-.74-.72,1.02-.14Z"></path><path class="c" d="M273.44,370.37l.45.92,1.02.14-.73.72.17,1.01-.91-.48-.91.48.18-1.01-.74-.72,1.02-.14Z"></path><path class="c" d="M274.21,380.43c0,.14-9.59.26-21.42.26s-21.42-.12-21.42-.26,9.59-.27,21.42-.27S274.21,380.28,274.21,380.43Z"></path><path class="f" d="M308,387.69c0,.14-17.35.26-38.74.26s-38.73-.12-38.73-.26,17.34-.26,38.73-.26S308,387.55,308,387.69Z"></path><path class="f" d="M269.27,395.13c0,.14-8.51.26-19,.26s-19-.12-19-.26,8.51-.26,19-.26S269.27,395,269.27,395.13Z"></path><path class="g" d="M269,417.46a5.558,5.558,0,0,0,1.09-.16,6,6,0,0,0,2.76-1.38,5.9,5.9,0,0,0,2-4.33c0-1,0-2-.05-3.11a5.809,5.809,0,0,0-4.44-5,8.085,8.085,0,0,0-2-.16H235.81a5.781,5.781,0,0,0-4.6,2.3,5.551,5.551,0,0,0-1.05,2.35,14.274,14.274,0,0,0-.11,2.63,7.577,7.577,0,0,0,.25,2.53,5.941,5.941,0,0,0,1.21,2.13,5.729,5.729,0,0,0,4.24,1.93l17.29.06,11.66.09h4.28a1.637,1.637,0,0,1-.28,0h-.83l-3.17.05-11.66.08-17.3.05a6.24,6.24,0,0,1-4.6-2.08,6.32,6.32,0,0,1-1.32-2.31,7.924,7.924,0,0,1-.28-2.68,14.923,14.923,0,0,1,.11-2.73,6.289,6.289,0,0,1,6.16-5.07h32.55a8.158,8.158,0,0,1,2.09.19,6.169,6.169,0,0,1,4.67,5.39c.06,1.14,0,2.16,0,3.15a6.09,6.09,0,0,1-2.17,4.47,5.894,5.894,0,0,1-2.88,1.33,4.026,4.026,0,0,1-.82.07A1.172,1.172,0,0,1,269,417.46Z"></path><path class="g" d="M248.79,410.88c0,.69-.53,1.09-1.56,1.09h-1.94V407.9h1.83c.93,0,1.45.4,1.45,1.06a.94.94,0,0,1-.54.9A1,1,0,0,1,248.79,410.88Zm-2.92-2.5v1.3h1.19c.6,0,.93-.22.93-.65s-.33-.65-.93-.65Zm2.33,2.45c0-.47-.35-.68-1-.68h-1.34v1.35h1.34c.65,0,1-.2,1-.67Z"></path><path class="g" d="M249.32,410.43a1.61,1.61,0,1,1,1.64,1.58h-.03a1.53,1.53,0,0,1-1.609-1.447C249.319,410.519,249.318,410.474,249.32,410.43Zm2.64,0a.815.815,0,1,0,.043.135,1.015,1.015,0,0,0,0-.135Z"></path><path class="g" d="M253,410.43a1.61,1.61,0,1,1,1.64,1.58h-.03A1.53,1.53,0,0,1,253,410.563C253,410.519,253,410.474,253,410.43Zm2.64,0a1.035,1.035,0,1,0-1.035,1.035A1.035,1.035,0,0,0,255.64,410.43Z"></path><path class="g" d="M258.19,410.54l-.64.59V412H257v-4.31h.56v2.77l1.68-1.54h.67l-1.3,1.28L260,412h-.69Z"></path><path class="e" d="M194.12,410a5.52,5.52,0,0,1,0-.63v-1.76c0-1.57,0-3.79-.06-6.58,0-5.64-.07-13.57-.12-22.9l.24.24H172.69c-.07.05.49-.49.25-.26h0v31.86l-.21-.21,15.6.11,4.34.05h1.56a1.433,1.433,0,0,1-.37,0h-1.11l-4.29.05-15.73.11h-.2V378.14h0c-.23.23.32-.32.27-.26h21.73v.24c0,9.4-.08,17.38-.11,23.06,0,2.76-.05,5-.07,6.52v1.72A3.45,3.45,0,0,1,194.12,410Z"></path><path class="e" d="M189.9,373.86a28.62,28.62,0,0,1,.24,4.24v.23h-3.08l-.26-.26h0V373.6h.21a15.8,15.8,0,0,1,2.84.21,21.768,21.768,0,0,1-2.84.21l.2-.21v4.26h0l-.26-.26h2.84l-.24.24A36.071,36.071,0,0,1,189.9,373.86Z"></path><path class="e" d="M202.15,410.14a2.717,2.717,0,0,1-.51,0H194V410c-.06-7.17-.1-18.78-.1-31.87v-.26h8.54v.26c0,9.14-.08,17.17-.11,23,0,2.82-.06,5.08-.08,6.7v1.79a4.147,4.147,0,0,1,0,.59v-2.5c0-1.63,0-3.92-.07-6.76,0-5.75-.07-13.71-.12-22.78l.26.25h-8l.26-.26c0,13.09,0,24.7-.11,31.87l-.15-.15L200,410l1.59.07Z"></path><rect class="e" width="3.33" height="3.33" transform="translate(176.05 382.09)"></rect><rect class="e" width="3.33" height="3.33" transform="translate(181.7 382.09)"></rect><rect class="e" width="3.33" height="3.33" transform="translate(187.36 382.09)"></rect><rect class="e" width="3.33" height="3.33" transform="translate(176.05 387.82)"></rect><rect class="e" width="3.33" height="3.33" transform="translate(181.7 387.82)"></rect><rect class="e" width="3.33" height="3.33" transform="translate(187.36 387.82)"></rect><rect class="e" width="3.33" height="3.33" transform="translate(176.05 393.55)"></rect><rect class="e" width="3.33" height="3.33" transform="translate(181.7 393.55)"></rect><rect class="e" width="3.33" height="3.33" transform="translate(187.36 393.55)"></rect><rect class="e" width="3.33" height="3.33" transform="translate(176.05 399.28)"></rect><rect class="e" width="3.33" height="3.33" transform="translate(181.7 399.28)"></rect><rect class="e" width="3.33" height="3.33" transform="translate(187.36 399.28)"></rect><rect class="e" width="3.33" height="3.33" transform="translate(196.19 382.09)"></rect><rect class="e" width="3.33" height="3.33" transform="translate(196.19 387.82)"></rect><rect class="e" width="3.33" height="3.33" transform="translate(196.19 393.55)"></rect><rect class="e" width="3.33" height="3.33" transform="translate(196.19 399.28)"></rect><rect class="e" width="3.26" height="5.16" transform="translate(182.09 404.81)"></rect><path class="e" d="M209.28,410c0,.14-10.34.26-23.1.26s-23.1-.12-23.1-.26,10.34-.26,23.1-.26S209.28,409.83,209.28,410Z"></path><path class="b" d="M167.68,125.58H294.87a7.09,7.09,0,0,1,7.09,7.09v7.12a7.1,7.1,0,0,1-7.1,7.1H167.68a7.09,7.09,0,0,1-7.09-7.09v-7.12a7.09,7.09,0,0,1,7.08-7.1Z"></path><path class="f" d="M291,134.84a2.285,2.285,0,0,0-.16-.7,2.879,2.879,0,0,0-3.554-1.989c-.063.017-.125.037-.186.059a2.81,2.81,0,1,0,2.66,4.88,2.859,2.859,0,0,0,1.08-1.55c.13-.44.13-.7.16-.7s0,.06,0,.19a1.926,1.926,0,0,1-.05.54,2.918,2.918,0,0,1-1.06,1.71,3.08,3.08,0,1,1,0-4.88,2.933,2.933,0,0,1,1.06,1.7,1.994,1.994,0,0,1,.05.55C291.06,134.77,291.05,134.84,291,134.84Z"></path><path class="f" d="M292.66,139.92a5.69,5.69,0,0,1-1.44-1.31,5.621,5.621,0,0,1-1.2-1.55,5.862,5.862,0,0,1,1.45,1.32A5.923,5.923,0,0,1,292.66,139.92Z"></path><path class="f" d="M174.1,135.16h-1.3v-.47h3.14v.47h-1.3v3.33h-.54Z"></path><path class="f" d="M175.89,137.05a1.5,1.5,0,1,1,1.52,1.48h-.02a1.43,1.43,0,0,1-1.5-1.357C175.889,137.132,175.889,137.091,175.89,137.05Zm2.47,0a1,1,0,1,0-1,1,.95.95,0,0,0,1-.9A.885.885,0,0,0,178.36,137.05Z"></path><path class="f" d="M179.36,136a.36.36,0,0,1,.35-.37h.02a.349.349,0,0,1,.36.339.159.159,0,0,1,0,.031.36.36,0,0,1-.35.37h-.01A.37.37,0,0,1,179.36,136Zm0,2.19a.36.36,0,0,1,.35-.37h.02a.349.349,0,0,1,.36.339.159.159,0,0,1,0,.031.359.359,0,0,1-.339.379h-.021a.369.369,0,0,1-.373-.367.321.321,0,0,1,0-.053Z"></path><path class="f" d="M263.25,137.17c0,.14-16.21.26-36.2.26s-36.2-.12-36.2-.26,16.21-.26,36.2-.26S263.25,137,263.25,137.17Z"></path><rect class="b" width="141.38" height="21.31" rx="7.09" transform="translate(160.58 154.22)"></rect><path class="f" d="M291,164.47a2.285,2.285,0,0,0-.16-.7,2.929,2.929,0,0,0-1.08-1.55,2.81,2.81,0,1,0,0,4.5,2.878,2.878,0,0,0,1.08-1.54c.13-.44.13-.71.16-.71s0,.07,0,.19a1.994,1.994,0,0,1-.05.55,2.933,2.933,0,0,1-1.06,1.7,3.048,3.048,0,0,1-2.91.48,3.09,3.09,0,0,1,0-5.83A3.049,3.049,0,0,1,290,162a2.9,2.9,0,0,1,1.06,1.7,1.926,1.926,0,0,1,.05.54C291.06,164.41,291.05,164.47,291,164.47Z"></path><path class="f" d="M292.66,169.56a6.131,6.131,0,0,1-1.44-1.32,5.831,5.831,0,0,1-1.2-1.54,5.862,5.862,0,0,1,1.45,1.32A5.923,5.923,0,0,1,292.66,169.56Z"></path><path class="f" d="M173.34,162.26H175a1.91,1.91,0,1,1,.39,3.8,1.955,1.955,0,0,1-.39,0h-1.61Zm1.57,3.33a1.43,1.43,0,0,0,0-2.86h-1v2.86Z"></path><path class="f" d="M180,164.32v1.74h-.5v-.38a1.061,1.061,0,0,1-.94.41c-.65,0-1.07-.35-1.07-.85s.3-.84,1.16-.84h.83v-.1c0-.44-.26-.7-.78-.7a1.449,1.449,0,0,0-.91.31l-.22-.39a1.922,1.922,0,0,1,1.19-.37C179.59,163.15,180,163.53,180,164.32Zm-.52.86v-.4h-.81c-.51,0-.66.2-.66.44s.24.47.64.47a.84.84,0,0,0,.87-.51Z"></path><path class="f" d="M182.62,165.89a.926.926,0,0,1-.63.2.82.82,0,0,1-.909-.72.834.834,0,0,1,0-.18v-1.58h-.49v-.43h.49v-.63h.52v.63h.83v.43h-.83v1.56a.421.421,0,0,0,.354.477.386.386,0,0,0,.1,0,.692.692,0,0,0,.41-.13Z"></path><path class="f" d="M185.75,164.79h-2.34a1,1,0,0,0,1,.85,1.123,1.123,0,0,0,.84-.35l.28.33a1.412,1.412,0,0,1-1.13.47,1.439,1.439,0,0,1-1.546-1.325,1.508,1.508,0,0,1,1.344-1.614c.034,0,.068,0,.1,0a1.39,1.39,0,0,1,1.423,1.356c0,.045,0,.089,0,.134A.752.752,0,0,1,185.75,164.79Zm-2.34-.37h1.85a.9.9,0,0,0-.92-.83A.91.91,0,0,0,183.41,164.42Z"></path><path class="f" d="M186.24,163.52a.37.37,0,0,1,.37-.37.38.38,0,0,1,0,.75.37.37,0,0,1-.37-.37Zm0,2.2a.36.36,0,0,1,.35-.37h.02a.351.351,0,0,1,.351.349c0,.007,0,.014,0,.021a.36.36,0,0,1-.35.37h0A.37.37,0,0,1,186.24,165.72Z"></path><path class="f" d="M204.75,164.8a21.706,21.706,0,0,1-4.77.26,21.675,21.675,0,0,1-4.78-.26,22.433,22.433,0,0,1,4.78-.26A22.468,22.468,0,0,1,204.75,164.8Z"></path><path class="f" d="M241.24,164.87c0,.15-6.87.26-15.35.26s-15.34-.11-15.34-.26,6.87-.26,15.34-.26S241.24,164.73,241.24,164.87Z"></path><path class="h" d="M447.39,203.76H436.7l-16.24,46.61,24.78,36.7c7.68,1.61,16.65,2.91,22.52-2.29,4.83-4.28,5.66-11.43,5.91-17.89a257,257,0,0,0-.67-31.15c-.64-7.78-1.74-15.81-5.89-22.43S455,201.9,447.39,203.76"></path><path class="f" d="M457.68,287.77a8.646,8.646,0,0,0,.89-.18,5,5,0,0,0,2.17-1.33,7.326,7.326,0,0,0,1.87-3.56,34.516,34.516,0,0,0,.63-5.41,307.746,307.746,0,0,0,.64-31.68,159.136,159.136,0,0,0-1.31-17.38,53.868,53.868,0,0,0-3.73-13.67,37.41,37.41,0,0,0-4.83-8.24c-.71-.89-1.29-1.55-1.69-2l-.45-.51a1.174,1.174,0,0,1-.15-.18s.07,0,.19.15l.49.47c.43.42,1,1.06,1.76,1.93a35.939,35.939,0,0,1,5,8.22A53.383,53.383,0,0,1,463,228.16a150.841,150.841,0,0,1,1.36,17.43,275.161,275.161,0,0,1-.8,31.73,32.17,32.17,0,0,1-.71,5.46,7.49,7.49,0,0,1-2,3.63,5,5,0,0,1-2.28,1.28A2.807,2.807,0,0,1,457.68,287.77Z"></path><path class="f" d="M474,258.71a8.244,8.244,0,0,1-4.65,1.67,8.33,8.33,0,0,1-4.89-.77,25.606,25.606,0,0,0,4.84.25A27.32,27.32,0,0,0,474,258.71Z"></path><path class="f" d="M473.35,235.64a10.383,10.383,0,0,1-4.71,1.84,10.168,10.168,0,0,1-5.06-.12c0-.16,2.27.1,5-.39S473.28,235.49,473.35,235.64Z"></path><path class="f" d="M448.38,203.56s-1.33-5.24,1.13-5.55,9.59,2.83,8.5,5.63a22.26,22.26,0,0,1-2.44,4.62l-1-1.36s1.7-2.1,1.5-3.54-4.93-3.91-5.65-2.47a6.809,6.809,0,0,0-.72,2.75Z"></path><path class="i" d="M360.11,210.16l-42.73.83-6.91-.6s-15.63-.44-17.13-.67c-1.73-.27-2.28.5-2.33,1.14-.09,1,1,1.9,2.5,2.18.51.09,8.63,1.28,8.63,1.28a19.911,19.911,0,0,0-2.43,1.23c-1.7,1-3,3.65-3.36,6.55s-.2,3.75.92,3.94a1.459,1.459,0,0,0,1.18-.4,4.082,4.082,0,0,0,1.1-2.14c.95-5.53,3.15-5.17,3.15-5.17h1s-2.5,2.6-2,5a2.594,2.594,0,0,0,.42,1,3.66,3.66,0,0,0,4.91,4c.58-.22,1.16-.7,1.13-1.32a1.8,1.8,0,0,0-.37-.89,4.02,4.02,0,0,1-.24-.46l2.56-.14s5.74-.61,8.27-.59l40.15,1.33c5.71.6,11.9-.61,12.4-6.33h0C371.43,213.61,366.36,209.82,360.11,210.16Z"></path><path class="i" d="M316.62,212.24a2.13,2.13,0,0,1-1.48,2c-.82.35-1.74.4-2.58.68-2.53.84-4.1,3.59-6.67,4.31-.35.1-.83.11-1-.22s.06-.66.27-.93l5.41-7"></path><path class="j" d="M310.57,211.1a3.505,3.505,0,0,0-.67.69c-.4.47-1,1.16-1.65,2l-2.41,3-.69.88a1.7,1.7,0,0,0-.55,1.2.74.74,0,0,0,.57.61,1.607,1.607,0,0,0,.73,0,6.326,6.326,0,0,0,1.2-.49,32.571,32.571,0,0,0,3.77-2.91,6.539,6.539,0,0,1,1.74-1c.58-.21,1.18-.3,1.72-.45a3.143,3.143,0,0,0,2.18-1.47,1.16,1.16,0,0,0,.11-1,2.6,2.6,0,0,1-.29.87,3,3,0,0,1-2.09,1.23,17.854,17.854,0,0,0-1.77.39,6.757,6.757,0,0,0-1.87,1,41.611,41.611,0,0,1-3.73,2.84,5.947,5.947,0,0,1-1.09.44c-.36.09-.69,0-.69-.17a2.054,2.054,0,0,1,.44-.84l.68-.88,2.32-3.09c.65-.88,1.18-1.6,1.53-2.11A4.177,4.177,0,0,0,310.57,211.1Z"></path><path class="j" d="M303.66,218.31a3.437,3.437,0,0,0-1.64.29,2.823,2.823,0,0,0-1.24,1.25,7.263,7.263,0,0,0-.65,2.14,11.726,11.726,0,0,1-.56,2.26,3.621,3.621,0,0,1-1.11,1.57,1.47,1.47,0,0,1-1.27.27c-.3-.09-.43-.21-.42-.22a1.178,1.178,0,0,1,.45.1,1.4,1.4,0,0,0,1.1-.33,3.65,3.65,0,0,0,1-1.5,12.7,12.7,0,0,0,.52-2.21,7.123,7.123,0,0,1,.71-2.23,2.942,2.942,0,0,1,1.41-1.31,2.588,2.588,0,0,1,1.28-.2C303.51,218.22,303.67,218.29,303.66,218.31Z"></path><path class="j" d="M293,212.92a8.825,8.825,0,0,1,1.61.23l3.87.64,3.88.58a11.11,11.11,0,0,1,1.61.28,6.4,6.4,0,0,1-1.63-.05c-1-.09-2.39-.25-3.91-.49s-2.88-.51-3.86-.74A7.575,7.575,0,0,1,293,212.92Z"></path><path class="j" d="M305.21,220.42a2.169,2.169,0,0,1-.26.44,1.517,1.517,0,0,0-.25,1.24.819.819,0,0,0,.61.52,4.286,4.286,0,0,0,1.06.09,1.833,1.833,0,0,1,1.24.39,1.579,1.579,0,0,1,.45,1.33,1.785,1.785,0,0,1-.75,1.18,2.154,2.154,0,0,1-1.22.43,7.042,7.042,0,0,1-2.07-.36,4.174,4.174,0,0,1-1.27-.61,1.159,1.159,0,0,1-.34-.39s.14.11.41.28a5,5,0,0,0,1.27.5,7.681,7.681,0,0,0,2,.28,1.74,1.74,0,0,0,1.65-1.35,1.24,1.24,0,0,0-.34-1.06,1.549,1.549,0,0,0-1-.32,4.723,4.723,0,0,1-1.13-.13,1.06,1.06,0,0,1-.75-.71,1.579,1.579,0,0,1,.37-1.38C305.06,220.53,305.19,220.41,305.21,220.42Z"></path><path class="j" d="M307.09,225.44a.68.68,0,0,1,.45.12,1.4,1.4,0,0,1,.68,1.07,1.889,1.889,0,0,1-.82,1.69,3.147,3.147,0,0,1-2.26.46,3.747,3.747,0,0,1-2.05-1,3.6,3.6,0,0,1-.94-1.62,3.476,3.476,0,0,1-.1-1.26c0-.29.1-.45.12-.44a5.537,5.537,0,0,0,.2,1.63,3.547,3.547,0,0,0,.93,1.48,3.59,3.59,0,0,0,1.89.92,2.888,2.888,0,0,0,2-.39,1.678,1.678,0,0,0,.76-1.42,1.37,1.37,0,0,0-.52-1C307.24,225.5,307.08,225.47,307.09,225.44Z"></path><path class="j" d="M313.37,220.7a1.618,1.618,0,0,1,.13-.77,3,3,0,0,1,1.28-1.53v.28a8.022,8.022,0,0,1-1.06-.34,7,7,0,0,1-3.12-2.2,17.014,17.014,0,0,0,3.24,1.89,10.119,10.119,0,0,0,1,.35l.35.11-.32.18a3.206,3.206,0,0,0-1.26,1.34A4.2,4.2,0,0,1,313.37,220.7Z"></path><path class="j" d="M299.55,218.72c.05-.07.58.33.78,1.09s-.07,1.37-.15,1.33,0-.59-.17-1.25S299.48,218.78,299.55,218.72Z"></path><path class="g" d="M392.36,183.17c-.66.93-29.86,24.05-33.48,25s-37,1.46-37,1.46-2.61,20.53-1.75,21.93c3.17,5.12,41.3,18.67,59.49.32l12.73-46.54"></path><path class="f" d="M355.71,220.73a5.137,5.137,0,0,1-.36-1.8,16.419,16.419,0,0,1,1.66-8.64,5.189,5.189,0,0,1,1-1.54,37.323,37.323,0,0,0-1.91,5.84A37.876,37.876,0,0,0,355.71,220.73Z"></path><path class="f" d="M358.88,221.53a6.773,6.773,0,0,1-.41-2,42.9,42.9,0,0,1-.2-9.61,6.515,6.515,0,0,1,.34-2c.15,0-.07,3,0,6.77S359,221.51,358.88,221.53Z"></path><g class="k"><path d="M357.85,208.79a16.37,16.37,0,0,0-4.76,17.44c.32.94.87,2,1.84,2.15a2.16,2.16,0,0,0,2.17-1.25,6.317,6.317,0,0,0,.5-2.62l.75-16"></path></g><path class="f" d="M392.58,186.86l.77-4.92-6.21,5.47-3.09,10.72Z"></path><path class="g" d="M399.28,176.86l-4.36,2.45-14,23.55.06,12.33s-3.3,8.63-3.5,15.55,0,32.26,0,32.26L359.71,380.48l15.15,4.89,30-136.79V175Z"></path><g class="k"><path d="M374.86,385.37l-12-3.87L380,254.06s-2.87-18.68,0-26.86,7.28-20.2,7.28-20.2l-5,22.82c.63,17.09-.42,37.49-2.25,59.47h4.58Z"></path></g><path class="f" d="M389.06,189.14a3.454,3.454,0,0,1-.36.62c-.23.41-.63,1-1.08,1.75a53.773,53.773,0,0,0-3.36,6.75,70.829,70.829,0,0,0-3.39,10.66,115.273,115.273,0,0,0-2.25,13.53c-.55,4.85-.88,9.48-1,13.7s-.13,8-.1,11.22,0,5.73,0,7.58v2.06a4.949,4.949,0,0,1,0,.71,3.137,3.137,0,0,1-.06-.71c0-.52,0-1.21-.07-2.06-.05-1.85-.12-4.42-.2-7.57s-.13-7,0-11.25.45-8.88,1-13.73a111.987,111.987,0,0,1,2.3-13.59,67.315,67.315,0,0,1,3.52-10.69,47.21,47.21,0,0,1,3.53-6.72c.47-.75.9-1.31,1.17-1.7A3.524,3.524,0,0,1,389.06,189.14Z"></path><g class="k"><path d="M370.55,238a71.836,71.836,0,0,1,7.61-20,104.577,104.577,0,0,1-.83,13.47,5.176,5.176,0,0,1-.88,2.71,5.357,5.357,0,0,1-1.62,1.2l-4.59,2.55"></path></g><path class="f" d="M433.73,142.26a12.838,12.838,0,0,1,5.59-6.2,8.811,8.811,0,0,1,8.17-.09,6.739,6.739,0,0,1,3.38,7.16,9.242,9.242,0,1,1-8.21,16.56c2.33,3.08.34,8.11-3.31,9.35s-7.9-.91-9.72-4.31-1.49-7.65.12-11.16"></path><path class="g" d="M432.09,144.22a4.12,4.12,0,0,1,3.17-2.49,3.31,3.31,0,0,1,3.4,2,2.789,2.789,0,0,1-1.47,3.5,3.87,3.87,0,0,1-1.51,7.4,3.58,3.58,0,0,1-5.31,4.6,4.812,4.812,0,0,1-1.65-3.28,14.416,14.416,0,0,1,.24-3.76c.29-1.88.57-3.77.86-5.65a6.084,6.084,0,0,1,.71-2.39,2.1,2.1,0,0,1,2.1-1.07"></path><path class="f" d="M386.39,128.76c-1.35-2.42-.51-5.67,1.5-7.59a10.689,10.689,0,0,1,7.69-2.56,31.224,31.224,0,0,1,8.13,1.69,8.86,8.86,0,0,1,15.54,3,5.62,5.62,0,0,1,7.55,6.48l-11.75,5.91L404.64,161A10.85,10.85,0,0,1,387,148.75a9.061,9.061,0,0,1-2.19-2.09,9.478,9.478,0,0,1-5.1-5.27,10,10,0,0,1,6.482-12.569Z"></path><path class="i" d="M400.88,177c.27-3.95.46-6.66.46-6.63s-7.62-1.89-8.43-12.1c-.4-5.08.51-13.27,1.46-20,.86-6,5.45-13.12,11.43-12l18.44,6.24c1.81.34,2.33,1.94,2.15,3.77l.08.88L423.31,166l-1.25,12.85a10.64,10.64,0,0,1-10.74,9.52h0a10.65,10.65,0,0,1-10.463-10.834C400.86,177.357,400.868,177.178,400.88,177Z"></path><path class="f" d="M396.29,146.29a1.32,1.32,0,0,0,1.15,1.41,1.239,1.239,0,0,0,1.416-1.034l0-.026a1.3,1.3,0,0,0-1.14-1.41,1.25,1.25,0,0,0-1.427,1.043Z"></path><path class="f" d="M396.06,143.79c.14.18,1.18-.47,2.57-.35s2.36.89,2.52.73-.06-.39-.48-.75a3.548,3.548,0,0,0-2-.79,3.449,3.449,0,0,0-2.06.49C396.15,143.41,396,143.71,396.06,143.79Z"></path><path class="f" d="M408.92,147.31a1.3,1.3,0,0,0,1.15,1.4,1.239,1.239,0,0,0,1.416-1.034l0-.026a1.29,1.29,0,0,0-1.14-1.4,1.239,1.239,0,0,0-1.424,1.023Z"></path><path class="f" d="M409.36,144.58c.15.18,1.19-.47,2.58-.36s2.35.89,2.52.73-.06-.38-.48-.74a3.592,3.592,0,0,0-2-.8,3.409,3.409,0,0,0-2.07.5C409.46,144.2,409.29,144.49,409.36,144.58Z"></path><path class="f" d="M403.6,154a8.89,8.89,0,0,0-2.22-.59c-.36-.07-.69-.16-.73-.41a1.888,1.888,0,0,1,.32-1l1.27-2.63c1.76-3.73,3.07-6.81,2.92-6.88s-1.71,2.9-3.47,6.63l-1.22,2.64a2.061,2.061,0,0,0-.3,1.38.889.889,0,0,0,.55.57,2.127,2.127,0,0,0,.59.13A9.662,9.662,0,0,0,403.6,154Z"></path><path class="j" d="M401.34,170.41a25.761,25.761,0,0,0,13.78-2.53s-4,6.84-14,5.1Z"></path><path class="f" d="M409.65,140.8c.14.38,1.53.19,3.17.38s3,.62,3.18.28c.1-.16-.14-.52-.67-.88a5.187,5.187,0,0,0-2.36-.81,5.409,5.409,0,0,0-2.48.3C409.89,140.32,409.59,140.62,409.65,140.8Z"></path><path class="f" d="M396.32,141.06c.26.34,1.42.1,2.79.2s2.5.41,2.79.1c.13-.15,0-.48-.51-.82a4.341,4.341,0,0,0-2.22-.7,4.244,4.244,0,0,0-2.27.46C396.39,140.59,396.2,140.9,396.32,141.06Z"></path><path class="f" d="M419.13,126.61a6.919,6.919,0,0,1-8.66,6.19c-1.52-.4-3.15-1.31-4.54-.59s-1.69,2.86-3,3.85c-1.9,1.4-4.61-.26-6.92.23-1.78.39-3,2-4.26,3.28s-3.1,2.51-4.81,1.86a21.209,21.209,0,0,1,1.05-4.6,6.906,6.906,0,0,1,2.93-3.58c.76-.42,1.62-.64,2.33-1.13,1.54-1.05,2-3.06,3-4.62a7.591,7.591,0,0,1,6.05-3.38c2-.05,4,.7,6,.37,1.45-.25,2.77-1.09,4.24-1.25,2.86-.32,5.33,1.91,7.22,4.08"></path><path class="f" d="M409.8,129.93c1.29-.26,3.94-.88,4.7-1.93a7.769,7.769,0,0,1,7-3.34,6.4,6.4,0,0,1,5.35,5.48,9.2,9.2,0,0,1,7.49,5.68,10.658,10.658,0,0,1-1,9.86A18.7,18.7,0,0,0,432.1,148a15.634,15.634,0,0,1,1.94,2.25c2.67,4.34-2.75,6.83-2.75,6.83.38,3.1-2.48,3.45-4.31,3.68s-2.22,5.24-3.67,5.23l-.49-15.27a1.99,1.99,0,0,1-.66.21c-3.44.5-3.38-6.15-2.48-8a19.632,19.632,0,0,1-3.12-3.84,14.184,14.184,0,0,1-1-7C414.3,132.16,409.23,130.05,409.8,129.93Z"></path><path class="i" d="M422.4,151.63a3,3,0,0,1,4.5-2.18c1,.67,1.66,1.92,1.4,4.19-.72,6.05-6.65,4.08-6.64,3.91S422.09,154.13,422.4,151.63Z"></path><path class="j" d="M423.78,155.48a3.016,3.016,0,0,0,.26.18,1.083,1.083,0,0,0,.79.11,2.609,2.609,0,0,0,1.49-2.19,3.613,3.613,0,0,0-.12-1.55,1.208,1.208,0,0,0-.7-.9.529.529,0,0,0-.65.21c-.11.16-.08.29-.11.29s-.12-.11,0-.36a.628.628,0,0,1,.28-.35.81.81,0,0,1,.6-.08,1.49,1.49,0,0,1,1,1.07,3.632,3.632,0,0,1,.17,1.73,2.78,2.78,0,0,1-1.85,2.43,1.141,1.141,0,0,1-.95-.28C423.77,155.62,423.76,155.48,423.78,155.48Z"></path><path class="h" d="M389.89,147.48a8.879,8.879,0,0,1-1.44-1.16A8.767,8.767,0,0,1,386,142a8.458,8.458,0,0,1-.11-3.42,7.358,7.358,0,0,1,1.67-3.51,8.6,8.6,0,0,1,8.16-2.7,7.232,7.232,0,0,1,.83.23c.27.09.52.21.77.31l.39.16-.05-.4a3,3,0,0,1,.49-2,4.7,4.7,0,0,1,1.53-1.42,6.229,6.229,0,0,1,3.88-.79c2.58.25,4.86,1.12,6.91,1.09a6.437,6.437,0,0,0,4.42-1.49,3.612,3.612,0,0,0,.78-1,1.967,1.967,0,0,0,.15-.42,5.109,5.109,0,0,1-1,1.31,6.443,6.443,0,0,1-4.31,1.31,16.186,16.186,0,0,1-3.17-.49,26.86,26.86,0,0,0-3.71-.71,8.139,8.139,0,0,0-2.08.06,6.35,6.35,0,0,0-2.06.76,5.13,5.13,0,0,0-1.69,1.56,3.429,3.429,0,0,0-.57,2.33l.34-.25-.82-.34a8.943,8.943,0,0,0-.88-.24,9.051,9.051,0,0,0-8.61,2.88,7.738,7.738,0,0,0-1.72,3.73,8.772,8.772,0,0,0,.17,3.57,8.583,8.583,0,0,0,2.62,4.37,6.174,6.174,0,0,0,1.14.82A2.775,2.775,0,0,0,389.89,147.48Z"></path><path class="h" d="M388.44,126.73a6.42,6.42,0,0,1,1.8-.89,5.1,5.1,0,0,1,2.27-.09,4.442,4.442,0,0,1,2.53,1.39l.26.29.09-.38a6.909,6.909,0,0,1,5-4.84,9,9,0,0,1,5.54.85,23.493,23.493,0,0,0,4.51,1.65,6.686,6.686,0,0,0,3.26,0,4.053,4.053,0,0,0,.82-.34c.17-.1.26-.16.25-.18a9.59,9.59,0,0,1-1.12.34,6.926,6.926,0,0,1-3.13-.11,26.1,26.1,0,0,1-4.42-1.72,14.377,14.377,0,0,0-2.71-.92,7.006,7.006,0,0,0-3.11,0A7.23,7.23,0,0,0,395,127l.35-.09a4.71,4.71,0,0,0-2.77-1.44,5,5,0,0,0-2.4.19,4.1,4.1,0,0,0-1.35.73A1.646,1.646,0,0,0,388.44,126.73Z"></path><path class="g" d="M404.47,157a2,2,0,0,1,1.55-.68,2.368,2.368,0,0,1,1.67.93h0l.06.07h0a1.164,1.164,0,0,1,.26.66,1.668,1.668,0,0,1-.8,1.36,2.121,2.121,0,0,1-2.43,0A1.731,1.731,0,0,1,404.47,157Z"></path><path class="f" d="M408.07,155.83c-.08,0-.2.3-.5.72a3.27,3.27,0,0,1-3.47,1.34c-.5-.11-.81-.26-.85-.19s.2.33.74.56a3.081,3.081,0,0,0,3.91-1.52C408.15,156.21,408.14,155.84,408.07,155.83Z"></path><path class="f" d="M431.42,139.14a1.68,1.68,0,0,0,.26-.2,6.826,6.826,0,0,0,.68-.67,7,7,0,0,0,1.64-3.11,5.521,5.521,0,0,0,0-2.46,5.092,5.092,0,0,0-1.35-2.47,4,4,0,0,0-2.88-1.17,3.759,3.759,0,0,0-3,1.42l.28.15v-.07a8.344,8.344,0,0,0-.17-6.34,5.5,5.5,0,0,0-4.08-3.13,4.541,4.541,0,0,0-3.37,1,3.776,3.776,0,0,0-.65.71,1.009,1.009,0,0,0-.16.3,5.287,5.287,0,0,1,.89-.91,4.419,4.419,0,0,1,3.26-.82,5.26,5.26,0,0,1,3.85,3,8.131,8.131,0,0,1,.12,6.11v.07l-.31.93.59-.79a3.431,3.431,0,0,1,2.75-1.29,3.738,3.738,0,0,1,2.67,1.06,4.733,4.733,0,0,1,1.3,2.33,5.165,5.165,0,0,1,0,2.34,7.162,7.162,0,0,1-1.51,3.07C431.75,138.82,431.39,139.12,431.42,139.14Z"></path><path class="f" d="M441.46,159l.17.07.49.18c.43.15,1.07.37,1.91.63a27.3,27.3,0,0,0,3.1.78,14.43,14.43,0,0,0,4.23.19,9.761,9.761,0,0,0,4.78-1.81A7.549,7.549,0,0,0,459,154a11.676,11.676,0,0,0-1-6.41,8,8,0,0,0-2-2.8,5.1,5.1,0,0,0-3.34-1.26,4,4,0,0,0-2.45.79l.22.24a7.083,7.083,0,0,0,1.6-3,8.078,8.078,0,0,0,.13-3.24,7.25,7.25,0,0,0-3.26-5,8.48,8.48,0,0,0-5.3-1.32,8.174,8.174,0,0,0-4.41,1.69,9.509,9.509,0,0,0-2.5,3,10.085,10.085,0,0,0-1,2.77,8.74,8.74,0,0,0-.16,1.84v.64a11.81,11.81,0,0,1,.23-2.46,9.974,9.974,0,0,1,1-2.71,9.144,9.144,0,0,1,2.47-2.9,8.092,8.092,0,0,1,4.3-1.62,8.358,8.358,0,0,1,5.11,1.27,7,7,0,0,1,3.11,4.83,7.849,7.849,0,0,1-.14,3.12,6.658,6.658,0,0,1-1.52,2.81l.21.23a3.63,3.63,0,0,1,2.25-.72,4.8,4.8,0,0,1,3.13,1.18,7.656,7.656,0,0,1,2,2.69,11.541,11.541,0,0,1,1,6.24,7.29,7.29,0,0,1-2.76,4.88,9.707,9.707,0,0,1-4.65,1.8,14.5,14.5,0,0,1-4.17-.15,28.962,28.962,0,0,1-3.09-.72l-1.93-.57-.5-.15A.833.833,0,0,1,441.46,159Z"></path><path class="f" d="M432.23,168.66a5.523,5.523,0,0,0,.72.45,14.327,14.327,0,0,0,2.11,1,8.925,8.925,0,0,0,3.39.6,6.2,6.2,0,0,0,3.92-1.53,4.769,4.769,0,0,0,1.23-1.85,6.368,6.368,0,0,0,.35-2,8.857,8.857,0,0,0-.71-3.37,16.909,16.909,0,0,0-1-2.08,3.859,3.859,0,0,0-.45-.72,5.175,5.175,0,0,0,.34.77c.23.5.58,1.2.92,2.11a8.886,8.886,0,0,1,.62,3.29,5,5,0,0,1-1.49,3.65,6,6,0,0,1-3.72,1.46,9.18,9.18,0,0,1-3.31-.51C433.3,169.23,432.26,168.59,432.23,168.66Z"></path><path class="f" d="M429,172.58a1.991,1.991,0,0,1-.77-.31,2.18,2.18,0,0,1-.84-2,1.81,1.81,0,0,1,.7-1.29,1.261,1.261,0,0,1,1.55,0,1.142,1.142,0,0,1,.36.78.86.86,0,0,1-.43.74,1.442,1.442,0,0,1-.95.14,2.45,2.45,0,0,1-1-.37,4.41,4.41,0,0,1-1.87-3.5,8.228,8.228,0,0,1,.64-3.35,7,7,0,0,1,1-2.06.943.943,0,0,1,.73-.33.432.432,0,0,0-.22,0,1,1,0,0,0-.6.28,2.7,2.7,0,0,0-.59.84c-.18.35-.38.76-.57,1.22a8.321,8.321,0,0,0-.73,3.45,5.242,5.242,0,0,0,.51,2,4.111,4.111,0,0,0,1.49,1.72,2.251,2.251,0,0,0,2.26.23,1.138,1.138,0,0,0,.57-1,1.431,1.431,0,0,0-.46-1,1.377,1.377,0,0,0-1-.33,1.837,1.837,0,0,0-.92.33,2,2,0,0,0-.76,1.49,2.308,2.308,0,0,0,1,2.12,1.549,1.549,0,0,0,.62.22C428.92,172.61,429,172.59,429,172.58Z"></path><path class="h" d="M449.91,159.44a.823.823,0,0,0,.28,0,2.239,2.239,0,0,0,.78-.1,3.2,3.2,0,0,0,2-2,4.169,4.169,0,0,0-1.12-4.05,6.152,6.152,0,0,0-4.83-1.9,6.75,6.75,0,0,0-1.24.2l.19.21a4.89,4.89,0,0,0-.92-4.65,4.4,4.4,0,0,0-1.71-1.24,4.754,4.754,0,0,0-1.8-.32,4.572,4.572,0,0,0-2.49.73,3.157,3.157,0,0,0-.56.43c-.11.12-.17.18-.16.19a9.075,9.075,0,0,1,.78-.52,4.728,4.728,0,0,1,4.13-.27,4,4,0,0,1,1.59,1.19,4.61,4.61,0,0,1,.84,4.35l-.1.29.29-.08a6.366,6.366,0,0,1,1.18-.19,5.941,5.941,0,0,1,4.6,1.78,4,4,0,0,1,1.12,3.78,3.14,3.14,0,0,1-1.83,2A3.608,3.608,0,0,1,449.91,159.44Z"></path><path class="h" d="M450.64,140.76a1.218,1.218,0,0,0-.41-.16,3.385,3.385,0,0,0-1.22-.07,4,4,0,0,0-1.76.62,3.826,3.826,0,0,0-1.52,1.81l.26-.05a3.172,3.172,0,0,0-1.92-1,4.512,4.512,0,0,0-3,.7,6.84,6.84,0,0,0-1.81,1.78,11.268,11.268,0,0,0-.89,1.44,1.925,1.925,0,0,0-.26.57c.05,0,.47-.76,1.33-1.88a7.438,7.438,0,0,1,1.79-1.66,4.236,4.236,0,0,1,2.82-.63,2.9,2.9,0,0,1,1.73.87l.17.19.09-.23a3.641,3.641,0,0,1,1.38-1.7,4.116,4.116,0,0,1,1.64-.65A5.848,5.848,0,0,1,450.64,140.76Z"></path><path class="f" d="M423.16,171.2l-22.63,3.21-1,7.15S388.28,201.23,387.28,207s-6,20-5,30.78S380,289.27,380,289.27h5.75L408.05,235Z"></path><path class="g" d="M438.78,433.1l5.68,20.55s-19.31,11.16-18.63,15.06l40.57-8.07-7.54-32.38Z"></path><g class="l"><path class="e" d="M456.49,448.94a1.7,1.7,0,0,1,1.58,1.61,1.62,1.62,0,0,1-1.58,1.58,1.78,1.78,0,0,1-1.66-1.71,1.68,1.68,0,0,1,1.82-1.46"></path></g><g class="l"><path class="e" d="M466.4,460.64l-.76-3.26-38.9,9.15a2.839,2.839,0,0,0-1.05,2.51Z"></path></g><path class="f" d="M443.76,453.6c.06.19,1.06,0,2.18.45s1.83,1.11,2,1-.4-1.18-1.76-1.64S443.68,453.43,443.76,453.6Z"></path><path class="f" d="M440,456.35c0,.2.93.33,1.79,1s1.27,1.51,1.47,1.45,0-1.19-1-2S439.92,456.16,440,456.35Z"></path><path class="f" d="M438.77,462c.18,0,.22-1.05-.54-2s-1.78-1.17-1.82-1,.66.62,1.27,1.41S438.57,462,438.77,462Z"></path><path class="f" d="M443,448.77c.12.16,1-.32,2.09-.51s2.08-.05,2.14-.24-.94-.7-2.27-.45S442.85,448.64,443,448.77Z"></path><g class="k"><path d="M439.91,437.17l1.01,3.66,19.73-4.89-.77-3.33Z"></path></g><path class="f" d="M441.92,444.61a3.871,3.871,0,0,0,2-.49,9.584,9.584,0,0,0,1.95-1.15,9.281,9.281,0,0,0,1-.89,2.993,2.993,0,0,0,.49-.62.88.88,0,0,0-.16-1.07,1.108,1.108,0,0,0-1-.24,3.1,3.1,0,0,0-.73.28,8.72,8.72,0,0,0-1.15.73,7.214,7.214,0,0,0-1.56,1.66c-.73,1.09-.88,1.9-.8,1.92s.41-.68,1.19-1.62a8.169,8.169,0,0,1,1.56-1.44,7.272,7.272,0,0,1,1.07-.63c.4-.21.76-.3.92-.14s.07.09,0,.24a2.192,2.192,0,0,1-.37.45,10.391,10.391,0,0,1-.92.86,11.233,11.233,0,0,1-1.77,1.21A14.113,14.113,0,0,0,441.92,444.61Z"></path><path class="f" d="M442.24,444.83a3.281,3.281,0,0,0,.07-2.07,7.064,7.064,0,0,0-.8-2.15,7.268,7.268,0,0,0-.81-1.1,1.711,1.711,0,0,0-1.52-.71,1,1,0,0,0-.71.76,2.682,2.682,0,0,0,0,.79,4.824,4.824,0,0,0,.32,1.36,4.7,4.7,0,0,0,1.36,1.88,2.639,2.639,0,0,0,1.91.82,8.452,8.452,0,0,1-1.58-1.19,4.717,4.717,0,0,1-1.08-1.74,4.07,4.07,0,0,1-.24-1.17c0-.45,0-.83.21-.82a1.426,1.426,0,0,1,.86.49,7.524,7.524,0,0,1,.76,1,7.732,7.732,0,0,1,.87,1.92C442.16,444,442.13,444.82,442.24,444.83Z"></path><path class="g" d="M379.51,431.86,377,453s-22.1,3-22.94,6.88l40.6,7.89L399.93,435Z"></path><g class="l"><path class="e" d="M389.9,453.22a1.69,1.69,0,0,1,.86,2.09,1.619,1.619,0,0,1-2.06.86,1.77,1.77,0,0,1-.89-2.21,1.68,1.68,0,0,1,2.24-.66"></path></g><g class="l"><path class="e" d="M394.65,467.8l.53-3.31-39.47-6.25a2.87,2.87,0,0,0-1.93,1.93Z"></path></g><path class="f" d="M376.36,452.72c0,.2,1,.44,1.84,1.24s1.28,1.71,1.47,1.66.08-1.25-1-2.19S376.35,452.53,376.36,452.72Z"></path><path class="f" d="M371.8,453.82c-.08.19.74.66,1.28,1.61s.61,1.87.81,1.9.5-1.09-.2-2.26S371.83,453.63,371.8,453.82Z"></path><path class="f" d="M368.57,458.57c.17.07.61-.88.26-2.05s-1.21-1.76-1.32-1.6.38.82.65,1.79S368.37,458.52,368.57,458.57Z"></path><path class="f" d="M377.47,448c.06.19,1,.06,2.13.31s1.94.74,2.07.59-.6-1-1.92-1.28S377.4,447.78,377.47,448Z"></path><g class="k"><path d="M379.02,436.05l-.46,3.77,20.12,2.95.55-3.38Z"></path></g><path class="f" d="M378.06,443.69a3.753,3.753,0,0,0,2.05.31,9.417,9.417,0,0,0,2.24-.32,9.975,9.975,0,0,0,1.27-.44,2.506,2.506,0,0,0,.7-.39.881.881,0,0,0,.25-1.05,1.119,1.119,0,0,0-.8-.59,2.985,2.985,0,0,0-.79,0,7.092,7.092,0,0,0-1.34.24,7.31,7.31,0,0,0-2.08.94c-1.08.73-1.52,1.43-1.46,1.48s.64-.48,1.72-1.05a8.114,8.114,0,0,1,2-.74,7.011,7.011,0,0,1,1.24-.18c.45-.05.82,0,.9.21s0,.11-.08.23a2.9,2.9,0,0,1-.51.28c-.4.18-.8.32-1.18.45a12.446,12.446,0,0,1-2.1.45A15.849,15.849,0,0,0,378.06,443.69Z"></path><path class="f" d="M378.27,444a3.42,3.42,0,0,0,.85-1.89,6.575,6.575,0,0,0,.07-2.29,6.747,6.747,0,0,0-.33-1.32,1.7,1.7,0,0,0-1.14-1.24,1,1,0,0,0-1,.44,3.014,3.014,0,0,0-.32.72,4.491,4.491,0,0,0-.22,1.38,4.815,4.815,0,0,0,.55,2.25c.63,1.18,1.43,1.55,1.45,1.48a8.38,8.38,0,0,1-1-1.69,4.677,4.677,0,0,1-.35-2,4.482,4.482,0,0,1,.22-1.17c.13-.43.35-.75.51-.68a1.515,1.515,0,0,1,.61.78,6.818,6.818,0,0,1,.33,1.19,7.659,7.659,0,0,1,.08,2.1C378.5,443.26,378.17,444,378.27,444Z"></path><path class="f" d="M410.17,369.19c0,.75-9.29,73.35-9.29,73.35l-27-5.12,10.85-74.93Z"></path><path class="f" d="M443.05,361.43c.25.71,19,74,19,74l-25.66,5.91-22-78.85Z"></path><path class="g" d="M418.87,173.52l5.28-1.8,9.22,12.6,2.48,40.48-6.37,20.85s18,39.68,18.25,49.53,8.36,101.55,8.36,101.55L373,403.5l15.35-150s2-36.78,4.35-42.28S418.87,173.52,418.87,173.52Z"></path><path class="f" d="M426,303.89a1.012,1.012,0,0,1-.32.16,5.147,5.147,0,0,1-1,.27,7.081,7.081,0,0,1-3.8-.55,10.143,10.143,0,0,1-4.29-3.73,27.424,27.424,0,0,1-2.94-6.31,40.379,40.379,0,0,1-2.14-12.39,36.17,36.17,0,0,1,.17-3.81,6.084,6.084,0,0,1,.22-1.38,8.713,8.713,0,0,1,0,1.39c0,.9-.06,2.2,0,3.79a43.663,43.663,0,0,0,2.26,12.24,28.371,28.371,0,0,0,2.85,6.2,10,10,0,0,0,4,3.66,7.37,7.37,0,0,0,3.62.69C425.52,304,426,303.84,426,303.89Z"></path><path class="f" d="M456.09,396.73h-.41l-1.22.12-4.69.43-17.45,1.5L373,403.75h-.3v-.31c.66-6.52,1.35-13.27,2.06-20.19,2.94-28.47,5.61-54.24,7.54-72.91,1-9.31,1.78-16.86,2.34-22.09.29-2.59.51-4.61.66-6,.08-.67.14-1.19.19-1.56a4.978,4.978,0,0,1,.08-.53v.53c0,.35-.07.9-.13,1.57-.13,1.39-.32,3.42-.57,6-.51,5.24-1.26,12.79-2.18,22.11-1.89,18.68-4.5,44.45-7.38,72.92-.71,6.92-1.4,13.67-2.07,20.19l-.28-.28,59.32-4.74,17.46-1.35,4.7-.34,1.21-.07A3.239,3.239,0,0,1,456.09,396.73Z"></path><path class="f" d="M428.88,178.18a2.528,2.528,0,0,1-.22.16l-.66.41-2.56,1.56c-1.11.67-2.47,1.5-4,2.5-.78.51-1.61,1.05-2.42,1.68a2.476,2.476,0,0,0-.49.48,6.316,6.316,0,0,1-.1.79c-.06.55-.13,1.12-.22,1.69a68.281,68.281,0,0,1-1.53,7.48,36.765,36.765,0,0,1-3.11,8.21c-1.51,2.8-4.21,4.81-6.7,7a16.992,16.992,0,0,0-3.36,3.72,7.3,7.3,0,0,0-1.1,4.86,26.844,26.844,0,0,0,1.45,5,17.811,17.811,0,0,1,1,5.06,24.1,24.1,0,0,1-1.7,9.54,45.255,45.255,0,0,1-3.92,7.85c-1.43,2.34-2.84,4.47-4.12,6.41-2.57,3.88-4.62,7-5.95,9.28-.66,1.12-1.16,2-1.49,2.59l-.38.68a1.3,1.3,0,0,1-.15.23.54.54,0,0,1,.1-.25l.33-.71c.31-.61.78-1.51,1.42-2.64,1.27-2.28,3.28-5.47,5.81-9.38,1.26-2,2.66-4.09,4.06-6.43a45.188,45.188,0,0,0,3.84-7.79,23.889,23.889,0,0,0,1.64-9.35,17.352,17.352,0,0,0-1-4.93,26.509,26.509,0,0,1-1.47-5.09,7.713,7.713,0,0,1,1.17-5.19,17.207,17.207,0,0,1,3.47-3.83c2.52-2.2,5.15-4.16,6.61-6.85a37.027,37.027,0,0,0,3.11-8.08,68.293,68.293,0,0,0,1.59-7.42q.14-.851.24-1.68a4.118,4.118,0,0,1,.11-.83,2.007,2.007,0,0,1,.61-.66c.85-.64,1.69-1.17,2.47-1.66,1.57-1,2.95-1.79,4.08-2.44l2.61-1.47.69-.37A1.684,1.684,0,0,1,428.88,178.18Z"></path><path class="f" d="M427.65,244.64a8.276,8.276,0,0,1-2.54-.28,19.174,19.174,0,0,1-5.74-2.32,19.468,19.468,0,0,1-4.69-4,7.71,7.71,0,0,1-1.41-2.14,28.1,28.1,0,0,0,6.37,5.73A28.726,28.726,0,0,0,427.65,244.64Z"></path><path class="f" d="M429.28,246.39a6.8,6.8,0,0,1-1.95.49,28.332,28.332,0,0,1-9.66-.07,6.319,6.319,0,0,1-1.94-.53c0-.15,3,.44,6.77.46S429.25,246.23,429.28,246.39Z"></path><path class="f" d="M430.3,181.21s-6.87.1-9.25,4.16-7.16,33.52,7.15,59c.66,1.17,1.28,1.24,1.28,1.24l2.1-6.88s-3.89-28.42-4.47-31.55-1.52-21.5,1.22-21.85a18.244,18.244,0,0,1,2.05-.13,14.059,14.059,0,0,1,9.06,3.21l2,1.59A15.46,15.46,0,0,0,430.3,181.21Z"></path><g class="k"><path d="M425.61,193.86c-7.41,13.69-8,30.17-5.33,45.51a11.064,11.064,0,0,0,1.87,5.22c1.16,1.46,3.33,2.3,5,1.37,1.25-.7,2.29-.38,2.76-1.73,1.51-4.25,2.82-9.74,4.33-14C431.42,218,428.38,206.12,425.61,193.86Z"></path></g><g class="k"><path d="M411.87,280.18a49.173,49.173,0,0,0,3.74,29.69,17.541,17.541,0,0,0,3.8,5.67,7.853,7.853,0,0,0,6.26,2.24c2.85-.4,5.08-2.84,6.06-5.55.7-2,.78-4.37-.64-5.9-1.72-1.86-4.67-1.55-7.17-2-4.57-.84-8.14-4.68-9.93-9s-2.12-9-2.42-13.67"></path></g><path class="g" d="M460.41,235.08c-.24-6.2-12.06-30.71-12.06-30.71s-5.47-12.18-6.76-14.64c-2.81-5.35-10.65-5.92-13.48-4.29l2.19,30.24,6.49,22-12.64,23.85,15.74,15.5C460.88,274.44,460.64,241.28,460.41,235.08Z"></path><path class="f" d="M455.27,238.44a7.688,7.688,0,0,1-2.87-.41c-1.75-.44-4-1.46-6.63-2.07a11.015,11.015,0,0,0-3.72-.28,7.457,7.457,0,0,0-2.87.93,7.891,7.891,0,0,0-2.07,1.9,1.849,1.849,0,0,1,.33-.71,5.23,5.23,0,0,1,1.54-1.5,7.464,7.464,0,0,1,3-1.1,10.843,10.843,0,0,1,3.89.25c2.7.64,4.93,1.71,6.62,2.22S455.28,238.36,455.27,238.44Z"></path><path class="f" d="M447.91,229.06a11.913,11.913,0,0,1-2.31.41,15.248,15.248,0,0,0-5.28,1.63,7.088,7.088,0,0,0-3.32,4.17,8.076,8.076,0,0,0-.13,2.28,2.144,2.144,0,0,1-.23-.61,4.443,4.443,0,0,1,0-1.75,7,7,0,0,1,3.41-4.55,13.489,13.489,0,0,1,5.49-1.53A8.671,8.671,0,0,1,447.91,229.06Z"></path><path class="f" d="M441.87,277.32a5.853,5.853,0,0,1-1.15-.45,28.641,28.641,0,0,1-3-1.55,36.045,36.045,0,0,1-4.12-2.82,41.4,41.4,0,0,1-4.49-4.15,42.687,42.687,0,0,1-3.77-4.81,38.229,38.229,0,0,1-2.47-4.34,28.917,28.917,0,0,1-1.3-3.1,5.717,5.717,0,0,1-.35-1.18c.09,0,.68,1.61,2,4.11a41.681,41.681,0,0,0,2.54,4.24,47.838,47.838,0,0,0,3.75,4.73,44.953,44.953,0,0,0,4.41,4.13,41.163,41.163,0,0,0,4,2.87C440.31,276.5,441.91,277.23,441.87,277.32Z"></path><path class="f" d="M436.79,237.71a21.571,21.571,0,0,1-1.24-3.21c-.7-2-1.61-4.79-2.51-7.9s-1.63-5.95-2.1-8a20.881,20.881,0,0,1-.64-3.38,23.759,23.759,0,0,1,1,3.29c.56,2,1.35,4.86,2.25,8s1.71,5.76,2.36,7.93A24.016,24.016,0,0,1,436.79,237.71Z"></path><path class="f" d="M424.15,261.56c-.13-.07,2.6-5.46,6.09-12.05s6.42-11.87,6.55-11.81-2.6,5.47-6.09,12.05S424.28,261.63,424.15,261.56Z"></path><path class="f" d="M415.74,385c-.14,0,.62-9.65,1.71-21.52S419.53,342,419.67,342s-.62,9.65-1.7,21.52S415.89,385,415.74,385Z"></path><path class="f" d="M425.07,388.88a87.59,87.59,0,0,1-2.16-9.31,87.714,87.714,0,0,1-1.66-9.41,88.132,88.132,0,0,1,2.17,9.31A88.739,88.739,0,0,1,425.07,388.88Z"></path><path class="d" d="M417.21,364c0,.15-8.78-.08-19.6-.5s-19.59-.87-19.58-1,8.78.08,19.6.49S417.21,363.81,417.21,364Z"></path><path class="d" d="M453.49,368.16c0,.15-8.08.06-18-.19s-18-.57-18-.72,8.08-.05,18.05.2S453.5,368,453.49,368.16Z"></path><path class="d" d="M418,353.45c0,.14-8.83-.15-19.7-.65s-19.69-1-19.68-1.18,8.82.15,19.7.66S418.05,353.31,418,353.45Z"></path><path class="d" d="M452.66,358.08c0,.15-7.76,0-17.31-.29s-17.31-.67-17.3-.81,7.75,0,17.31.29S452.67,357.94,452.66,358.08Z"></path><path class="g" d="M76.26,445c.73-2.85-1.13-5.7-3.22-7.76s-4.58-3.91-5.67-6.63c-1.76-4.42.61-10.13-2.4-13.82-1.76-2.16-4.93-2.89-6.5-5.2a11.892,11.892,0,0,1-1.41-4.14,42.069,42.069,0,0,0-10.45-19.56,36.4,36.4,0,0,0,4.1,18.85c1.21,2.32,2.71,4.57,3.11,7.16.66,4.2-1.69,8.52-.66,12.64,1.18,4.71,6.48,7.87,6.73,12.72.21,4.1-3.36,7.7-3.1,11.8a11.19,11.19,0,0,0,1.83,4.87c3.17,5.27,7.83,8.9,14.89,8.78l8.65.31Z"></path><g class="k"><path d="M76.26,445c.73-2.85-1.13-5.7-3.22-7.76s-4.58-3.91-5.67-6.63c-1.76-4.42.61-10.13-2.4-13.82-1.76-2.16-4.93-2.89-6.5-5.2a11.892,11.892,0,0,1-1.41-4.14,42.069,42.069,0,0,0-10.45-19.56,36.4,36.4,0,0,0,4.1,18.85c1.21,2.32,2.71,4.57,3.11,7.16.66,4.2-1.69,8.52-.66,12.64,1.18,4.71,6.48,7.87,6.73,12.72.21,4.1-3.36,7.7-3.1,11.8a11.19,11.19,0,0,0,1.83,4.87c3.17,5.27,7.83,8.9,14.89,8.78l8.65.31Z"></path></g><path class="f" d="M83.91,465.21a6.992,6.992,0,0,0,2.38,0,14.029,14.029,0,0,0,2.81-.71,11.673,11.673,0,0,0,3.47-1.9A4.755,4.755,0,0,0,94,460.7a9.031,9.031,0,0,0,.41-2.59,27.113,27.113,0,0,1,.2-2.79,7.646,7.646,0,0,1,1.06-2.78c1-1.8,2.71-3.49,3.26-5.92a20.311,20.311,0,0,0-.24-7.59c-.41-2.59-.79-5.42.21-8.12s2.82-5.15,3.77-8.2.5-6.39.7-9.66a12.764,12.764,0,0,1,1.13-4.8c.7-1.53,1.67-3,2.43-4.59,1.53-3.26,1.8-6.95,2.22-10.57.21-1.82.42-3.67.62-5.53a27.261,27.261,0,0,1,1-5.53,48.716,48.716,0,0,1,2.06-5.35,17.81,17.81,0,0,0,1-2.8,27.669,27.669,0,0,0,.28-3,36.341,36.341,0,0,0-.23-6c-.24-2-.6-4-.81-6v-.34l-.05-.4-.35.18a13.438,13.438,0,0,0-4.66,3.93,21.047,21.047,0,0,0-2.86,5.27,62.074,62.074,0,0,0-2.69,11.33,30.907,30.907,0,0,1-3.55,10.46c-.95,1.54-2.1,2.94-3.1,4.45a12.32,12.32,0,0,0-2.15,4.93c-.51,3.66,1.5,6.87,1.08,10.11a11.168,11.168,0,0,1-1.57,4.49c-.79,1.38-1.71,2.66-2.59,3.95a25.832,25.832,0,0,0-2.32,4,12.6,12.6,0,0,0-1.06,4.34c-.21,2.91.2,5.68,0,8.29A19.153,19.153,0,0,1,85,441c-1,2.13-2.21,4.06-3.18,5.92a29.871,29.871,0,0,0-1.31,2.76,13,13,0,0,0-.76,2.73,17.181,17.181,0,0,0-.07,4.94,12.438,12.438,0,0,0,2.48,6.3,5.844,5.844,0,0,0,.7.75,3.331,3.331,0,0,0,.57.49l.49.34a10.813,10.813,0,0,1-1.67-1.65,12.5,12.5,0,0,1-2.35-6.26,16.738,16.738,0,0,1,.11-4.86,13.538,13.538,0,0,1,.76-2.67c.37-.9.83-1.8,1.32-2.72,1-1.85,2.16-3.77,3.23-5.91a19.344,19.344,0,0,0,2.21-7.23c.23-2.67-.18-5.45,0-8.3a12.251,12.251,0,0,1,1-4.19,25.5,25.5,0,0,1,2.29-3.91c.88-1.28,1.81-2.57,2.62-4a11.554,11.554,0,0,0,1.65-4.67c.42-3.45-1.58-6.69-1.06-10.09a11.661,11.661,0,0,1,2.07-4.71c1-1.48,2.14-2.88,3.12-4.46a31.429,31.429,0,0,0,3.71-10.6c.74-3.74,1.26-7.59,2.68-11.23a20.785,20.785,0,0,1,2.78-5.14,12.863,12.863,0,0,1,4.46-3.76l-.39-.22V359c.21,2,.57,4,.81,6a35.356,35.356,0,0,1,.23,5.9,28.129,28.129,0,0,1-.27,2.89,17.418,17.418,0,0,1-1,2.69,50.014,50.014,0,0,0-2.09,5.42,27.419,27.419,0,0,0-1,5.62q-.311,2.79-.61,5.53c-.42,3.63-.69,7.27-2.17,10.41-.73,1.57-1.7,3-2.42,4.6a13.448,13.448,0,0,0-1.16,5c-.18,3.34.25,6.6-.65,9.56s-2.79,5.4-3.74,8.19-.6,5.74-.18,8.32.83,5.14.28,7.44-2.15,4-3.19,5.85a7.929,7.929,0,0,0-1.07,2.89,25.994,25.994,0,0,0-.19,2.83,8.774,8.774,0,0,1-.36,2.52,4.856,4.856,0,0,1-1.35,1.82,12.181,12.181,0,0,1-3.38,1.91,14.927,14.927,0,0,1-2.78.75,10.82,10.82,0,0,1-1.75.17Z"></path><path class="f" d="M111.24,363.31a.881.881,0,0,0-.08.26,4.8,4.8,0,0,1-.19.78c-.17.68-.38,1.71-.7,3s-1.13,2.73-1.8,4.51q-1.152,3.018-2,6.14c-.66,2.31-1.25,4.87-1.86,7.61a32.017,32.017,0,0,1-2.77,8.45c-.71,1.41-1.51,2.83-2.14,4.38a20.729,20.729,0,0,0-1.25,5,99.393,99.393,0,0,1-1.86,10.46c-1.73,7.09-3.39,13.84-4.89,20l-4.1,16.3c-1.14,4.61-2.06,8.36-2.72,11-.3,1.27-.54,2.27-.71,3-.07.32-.12.57-.17.78a.816.816,0,0,0,0,.27,1.045,1.045,0,0,0,0-.25l.22-.76.81-3c.7-2.63,1.68-6.36,2.89-10.95S90.56,440.1,92.15,434s3.18-12.9,4.93-20a97.7,97.7,0,0,0,1.86-10.51,20.145,20.145,0,0,1,1.2-4.84c.61-1.51,1.4-2.93,2.11-4.35a32.419,32.419,0,0,0,2.76-8.58c.59-2.75,1.15-5.3,1.78-7.6a59.867,59.867,0,0,1,2-6.13,39.444,39.444,0,0,0,1.72-4.58c.32-1.33.46-2.33.6-3a4.468,4.468,0,0,1,.13-.79A1.007,1.007,0,0,0,111.24,363.31Z"></path><path class="g" d="M85.44,465.24c5.65-3.36,7.27-13.55,4.91-19.69s-6.48-11.74-7.12-18.28c-.49-5,1.16-10.19,0-15.11-1.58-6.63-8.06-11.77-8-18.58,0-3.83,2.22-7.43,2-11.25-.21-4.69-3.81-8.41-6-12.54-3.41-6.32-3.63-13.79-4.8-20.88s-3.86-14.68-10.15-18.16c-.92,6-2.51,10.14-2,18.29.18,2.93,3.58,8.53,4,14.95.28,3.83.47,7.67.7,11.51s.47,7.54,1.81,11c1,2.68,2.68,5.11,3.44,7.87,1.43,5.2-.45,10.84.71,16.11,1,4.46,4.07,8.3,4.7,12.83.88,6.36-3.23,13-1.13,19,1,3,3.53,5.43,4.23,8.54.54,2.41,0,5,.44,7.38.8,3.91,8.24,6.94,12.22,6.7"></path><path class="f" d="M57.85,336.72a1.487,1.487,0,0,0,0,.34l.12,1c.13.87.28,2.15.57,3.8s1.17,3.52,1.86,5.78,1.43,4.83,2.07,7.73,1.18,6.11,1.75,9.56a39.924,39.924,0,0,0,2.89,10.81c.8,1.81,1.69,3.62,2.35,5.54a24.393,24.393,0,0,1,1.19,6.11,124.943,124.943,0,0,0,1.66,13.16l4.88,25.13c1.58,7.7,3,14.64,4.21,20.48s2.19,10.5,2.88,13.79c.34,1.6.62,2.85.81,3.75.09.4.17.72.22,1a1.9,1.9,0,0,0,.1.33,1.931,1.931,0,0,0,0-.34,8.323,8.323,0,0,0-.17-1c-.17-.9-.41-2.16-.71-3.77-.65-3.3-1.57-8-2.71-13.83s-2.55-12.79-4.09-20.5-3.12-16.21-4.83-25.13a123.49,123.49,0,0,1-1.66-13.11A25.2,25.2,0,0,0,70,381.1c-.68-2-1.58-3.78-2.38-5.57a40.2,40.2,0,0,1-2.91-10.68c-.58-3.45-1.15-6.67-1.82-9.57s-1.41-5.51-2.16-7.75-1.6-4.11-1.94-5.73-.5-2.91-.67-3.77c-.07-.4-.13-.73-.18-1A1.282,1.282,0,0,0,57.85,336.72Z"></path></g></svg> 