<?xml version="1.0" encoding="UTF-8"?> <svg xmlns="http://www.w3.org/2000/svg" xmlns:xlink="http://www.w3.org/1999/xlink" width="895.761" height="1000.121" viewBox="0 0 895.761 1000.121"><defs><style>.a,.aa,.ab,.ac,.ad,.ae,.af,.ag,.ah,.ai,.aj,.ak,.al,.am,.an,.ao,.ap,.aq,.ar,.as,.at,.au,.av,.aw,.ax,.ay,.az,.b,.ba,.bb,.bc,.bd,.be,.bf,.bg,.bh,.bi,.bj,.bk,.bl,.bm,.bn,.bo,.bp,.bq,.br,.c,.d,.e,.f,.g,.h,.i,.j,.k,.l,.m,.n,.o,.p,.q,.r,.s,.t,.u,.v,.w,.x,.y,.z{fill-rule:evenodd;}.a{fill:url(#a);}.b{fill:#22043d;}.c{fill:url(#b);}.d{fill:#ffa698;}.e{fill:url(#c);}.f{fill:#7e41df;}.aa,.ac,.ae,.ag,.ai,.aj,.al,.am,.bp,.bq,.br,.f,.g,.t,.x{opacity:0.5;}.g{fill:#7f4398;}.h{fill:#161f69;}.i{fill:url(#d);}.j{fill:#1e2353;}.au,.j{opacity:0.3;}.aa,.ac,.ae,.ag,.aj,.an,.au,.j,.t,.x{mix-blend-mode:multiply;isolation:isolate;}.k{fill:url(#e);}.l{fill:url(#f);}.m{fill:url(#g);}.n{fill:url(#h);}.o{fill:url(#i);}.p{fill:url(#j);}.q{fill:#ff8f7f;}.r{fill:#273087;}.s{fill:url(#k);}.t{fill:url(#l);}.u{fill:#d0e7ff;}.v{fill:url(#m);}.w{fill:url(#n);}.x{fill:url(#o);}.y{fill:#fff;}.z{fill:url(#p);}.aa{fill:url(#q);}.ab{fill:url(#r);}.ac{fill:url(#s);}.ad{fill:url(#t);}.ae{fill:url(#u);}.af{fill:url(#v);}.ag{fill:url(#w);}.ah{fill:url(#x);}.ai{fill:#f2f4ff;}.aj{fill:url(#y);}.ak{fill:url(#z);}.al,.bm{fill:#6d6afd;}.am{fill:#44a7f7;}.an{fill:#0960ac;opacity:0.35;}.ao{fill:#ff9483;}.ap{fill:url(#aa);}.aq{fill:url(#ab);}.ar{fill:#ffa495;}.as{fill:url(#ac);}.at{fill:#4c57b7;}.au{fill:#060921;}.av{fill:url(#ad);}.aw{fill:url(#ae);}.ax{fill:#e7a376;}.ay{fill:url(#af);}.az{fill:url(#ag);}.ba{fill:#ffb49c;}.bb{fill:#562e65;}.bc{fill:url(#ah);}.bd{fill:#0ab7e4;}.be{fill:url(#ai);}.bf{fill:url(#aj);}.bg{fill:#e23b93;}.bh{fill:#c5dbf1;}.bi{fill:#dce8f8;}.bj{fill:#eebcf0;}.bk{fill:url(#ak);}.bl{fill:#fb84b6;}.bn{fill:url(#al);}.bo{fill:url(#am);}.bp{fill:url(#an);}.bq{fill:url(#ao);}.br{fill:url(#ap);}</style><linearGradient id="a" x1="0.376" y1="0.283" x2="0.555" y2="0.616" gradientUnits="objectBoundingBox"><stop offset="0" stop-color="#5a2d68"></stop><stop offset="1" stop-color="#22043d"></stop></linearGradient><linearGradient id="b" x1="0.534" y1="0.886" x2="0.488" y2="0.32" gradientUnits="objectBoundingBox"><stop offset="0" stop-color="#ff8a78"></stop><stop offset="1" stop-color="#ffa799"></stop></linearGradient><linearGradient id="c" x1="0.722" y1="0.874" x2="0.256" y2="0.155" gradientUnits="objectBoundingBox"><stop offset="0" stop-color="#965cf2"></stop><stop offset="1" stop-color="#ff8adc"></stop></linearGradient><linearGradient id="d" x1="0.787" y1="0.187" x2="-0.068" y2="0.765" gradientUnits="objectBoundingBox"><stop offset="0" stop-color="#3e4795"></stop><stop offset="1" stop-color="#273088"></stop></linearGradient><linearGradient id="e" x1="1.078" y1="0.231" x2="-0.225" y2="0.707" xlink:href="#d"></linearGradient><linearGradient id="f" x1="0.615" y1="0.834" x2="0.446" y2="0.199" xlink:href="#c"></linearGradient><linearGradient id="g" x1="0.444" y1="0.647" x2="0.526" y2="0.474" xlink:href="#b"></linearGradient><linearGradient id="h" x1="0.372" y1="0.744" x2="0.641" y2="0.067" xlink:href="#c"></linearGradient><linearGradient id="i" x1="0.478" y1="0.533" x2="0.406" y2="0.852" xlink:href="#b"></linearGradient><linearGradient id="j" x1="0.912" y1="0.373" x2="0.409" y2="0.782" gradientUnits="objectBoundingBox"><stop offset="0" stop-color="#ffb89e"></stop><stop offset="1" stop-color="#ffa799"></stop></linearGradient><linearGradient id="k" x1="0.374" y1="0.743" x2="0.738" y2="0.042" xlink:href="#c"></linearGradient><linearGradient id="l" x1="0.394" y1="0.069" x2="0.563" y2="0.755" gradientUnits="objectBoundingBox"><stop offset="0" stop-color="#d870ac"></stop><stop offset="1" stop-color="#58469c"></stop></linearGradient><linearGradient id="m" x1="0.457" y1="0.646" x2="0.53" y2="0.399" gradientUnits="objectBoundingBox"><stop offset="0" stop-color="#1c8ef4"></stop><stop offset="1" stop-color="#00cfdd"></stop></linearGradient><linearGradient id="n" x1="0.489" y1="0.538" x2="0.51" y2="0.467" xlink:href="#m"></linearGradient><linearGradient id="o" x1="0.401" y1="0.086" x2="0.569" y2="0.763" xlink:href="#l"></linearGradient><linearGradient id="p" x1="0.396" y1="0.733" x2="0.593" y2="0.292" gradientUnits="objectBoundingBox"><stop offset="0" stop-color="#6d6afe"></stop><stop offset="1" stop-color="#3fb0f7"></stop></linearGradient><linearGradient id="q" x1="0.232" y1="-0.119" x2="0.537" y2="0.687" xlink:href="#l"></linearGradient><linearGradient id="r" x1="0.441" y1="0.675" x2="0.588" y2="0.242" xlink:href="#p"></linearGradient><linearGradient id="s" x1="0.351" y1="0.655" x2="0.813" y2="0.174" xlink:href="#c"></linearGradient><linearGradient id="t" x1="0.345" y1="0.734" x2="0.592" y2="0.362" xlink:href="#m"></linearGradient><linearGradient id="u" x1="0.404" y1="0.686" x2="0.697" y2="0.121" xlink:href="#c"></linearGradient><linearGradient id="v" x1="0.416" y1="0.783" x2="0.548" y2="0.339" xlink:href="#m"></linearGradient><linearGradient id="w" x1="0.247" y1="-0.198" x2="0.549" y2="0.6" xlink:href="#l"></linearGradient><linearGradient id="x" x1="0.557" y1="0.342" x2="0.441" y2="0.663" gradientUnits="objectBoundingBox"><stop offset="0" stop-color="#a77ef7"></stop><stop offset="1" stop-color="#5e65d6"></stop></linearGradient><linearGradient id="y" x1="0.222" y1="-0.186" x2="0.526" y2="0.619" xlink:href="#l"></linearGradient><linearGradient id="z" x1="0.397" y1="0.579" x2="0.751" y2="0.309" xlink:href="#p"></linearGradient><linearGradient id="aa" x1="0.43" y1="0.634" x2="0.582" y2="0.397" xlink:href="#m"></linearGradient><linearGradient id="ab" x1="0.577" y1="0.805" x2="0.427" y2="0.151" xlink:href="#m"></linearGradient><linearGradient id="ac" x1="0.296" y1="0.221" x2="0.747" y2="0.779" xlink:href="#d"></linearGradient><linearGradient id="ad" x1="0.149" y1="0.22" x2="1.056" y2="0.742" xlink:href="#d"></linearGradient><linearGradient id="ae" x1="0.553" y1="0.939" x2="0.511" y2="0.402" xlink:href="#m"></linearGradient><linearGradient id="af" x1="0.32" y1="0.284" x2="0.633" y2="0.643" xlink:href="#b"></linearGradient><linearGradient id="ag" x1="0.389" y1="0.315" x2="0.563" y2="0.79" xlink:href="#j"></linearGradient><linearGradient id="ah" x1="0.012" y1="0.187" x2="0.669" y2="0.82" gradientUnits="objectBoundingBox"><stop offset="0" stop-color="#8a4791"></stop><stop offset="1" stop-color="#562e65"></stop></linearGradient><linearGradient id="ai" x1="0.423" y1="0.707" x2="0.665" y2="0.11" xlink:href="#m"></linearGradient><linearGradient id="aj" x1="0.624" y1="0.61" x2="0.174" y2="0.213" gradientUnits="objectBoundingBox"><stop offset="0" stop-color="#ff5db1"></stop><stop offset="1" stop-color="#febfbf"></stop></linearGradient><linearGradient id="ak" x1="0.911" y1="0.787" x2="0.041" y2="0.266" xlink:href="#aj"></linearGradient><linearGradient id="al" x1="0.493" y1="0.559" x2="0.654" y2="0.222" xlink:href="#p"></linearGradient><linearGradient id="am" x1="0.624" y1="0.27" x2="0.309" y2="0.854" xlink:href="#c"></linearGradient><linearGradient id="an" x1="0.501" y1="0.117" x2="0.499" y2="0.79" xlink:href="#p"></linearGradient><linearGradient id="ao" x1="0.714" y1="0.667" x2="0.149" y2="0.226" xlink:href="#c"></linearGradient><linearGradient id="ap" x1="0.44" y1="0.199" x2="0.716" y2="0.924" xlink:href="#p"></linearGradient></defs><g transform="translate(-777.172 -229.575)"><g transform="translate(853.407 289.972)"><g transform="translate(0 324.199)"><g transform="translate(8.315)"><path class="a" d="M1364,851.7c7.052-1.091,12.628,3.759,15.452,10.24,3.3,7.578,3.141,17.386,1.727,22.536-4.6,16.733,3.5,24.022,6.48,31.817a34,34,0,0,1,1.719,12.9c-.2,5.992-3.654,9.078-6.547,14.443a47.342,47.342,0,0,1-4.218,14.834c-7.936,15.872-34.631,23.536-60.256,22.364-20.506-.938-40.328-8.2-49.3-16.536-9.849-9.154-11.121-32.391,5.421-34.758,3.853-.552,8.34-1.39,11.631-5.376,2.262-2.742.076-9.967-.468-19.589-.526-9.318,1.6-19.12,15.143-22.388,5.188-1.253,10.244-1.769,14.573-4.611,9.458-6.209,6-17.74,16.256-24.528,6.194-4.1,16.162-4.99,27.049-1.968C1360.42,851.279,1362.2,851.5,1364,851.7Z" transform="translate(-1261.81 -849.283)"></path><path class="b" d="M1390.791,867.31c.587,4.549-1.079,8.509-3.781,12.322-6.3,8.9-9.617,8.2-13.066,19.534-5.672-3.785-9.566-4.363-11.2-.644-2.63,5.978-.971,9.512-1.584,15.7-1,10.053-13.01-3.725-22.432,3.978-9.262,7.573-2.908,12.889-6.484,23.61-1.338,4.012-2.378,9.289-6.125,11.064-11.65,5.516-16.112,19.4,4.63,26.295,12.847,4.27,31.505,3.2,47.095-2.113,20.583-7.016,33.278-37.38,28.025-51.8-2.174-5.969-8.044-10.429-8.074-15.092C1397.691,894.132,1400.785,883.855,1390.791,867.31Z" transform="translate(-1282.478 -856.122)"></path></g><g transform="translate(111.279 59.335)"><g transform="translate(30.63 29.518)"><path class="c" d="M1580.789,993.471c1.877,2.715-1.656,4.6-3.24,4.684-2.531.329-6.14-.961-7.036.73-1.005,1.9-12.85-2.015-12.724-2.133,4.864-3.5,9.347-4.347,10.118-4.3C1575.49,992.955,1573.279,994.66,1580.789,993.471Z" transform="translate(-1507.696 -992.454)"></path><path class="d" d="M1528.854,1009.318c-10.869,3.072-25.719,13.688-36.06,16.023-3.265.738-8.368,2.169-10.937-.607-13.3-14.37,5.19-9.645,6.748-15.076,9.461-7.038,24.268-3.716,36.384-10.239a22.719,22.719,0,0,1,2.363-1.391c4.751-2.369,7.407-2.172,15.657,1.972,2.406,1.208,3.639,1.051,5.738.99l8.3-1.066c2.545-.094,4.165.513,4.56,1.346.441.928-.469,6.171-1.955,8.235l-.007.009c-.317.966-2.2,1.7-5.155,1.741l-12.128,3.716-.567-.322C1534.567,1010.549,1531.485,1009.189,1528.854,1009.318Z" transform="translate(-1477.074 -993.99)"></path></g><path class="e" d="M1458.473,1006.425c-9.8-9.139-23.7-22.42-28.669-32.913-3.232-6.823-3.834-25.974,6.589-28.393,3.489-2.2,8.79,12.063,12.364,17.822,6.454,10.4,11.237,16.622,18.817,26.229,8.051-5.224,19.156-5.739,29.613-8.332A10.326,10.326,0,0,1,1502,980.7a16.254,16.254,0,0,0,3.638-1.269c1.185.323,5.108,7.1,4.436,11.1-.833.235-2.677.8-3.547,1.109-1.238.437-1.933,1.62-3.157,2.28-4.161,2.242-22.854,11.535-32.163,13.638-3.544.8-9.248,2.645-12.037-.369C1458.926,1006.929,1458.694,1006.675,1458.473,1006.425Z" transform="translate(-1427.719 -944.89)"></path><path class="f" d="M1458.473,1007.556c-9.8-9.139-23.7-22.419-28.669-32.913-2.792-5.894-3.62-20.986,2.926-26.547,3.411-.355,5.373-.442,7,.92,2.037,1.7,2.855,5.926,5.809,12.174,4.47,9.451,11.257,14.962,11.8,26.081.4,8.206,4.146,17.884,10.255,22.257-3.076.631-6.473.911-8.433-1.206C1458.926,1008.06,1458.695,1007.806,1458.473,1007.556Z" transform="translate(-1427.72 -946.021)"></path></g><path class="g" d="M1406.887,1477.457l-84.025-47.856c-9.16-4.185-22.271-7.517-31.6-2.66-8.5,4.426-22.512,13.483-28.7,17.015-4.7,2.683-21.037,12.468-10.864,18,29.922,16.271,59.535,34.571,89.919,51.1,5.747,3.126,14.153,4.256,22.978,3.522a60.817,60.817,0,0,0,24.887-7.411q7.575-4.4,14.9-8.672c6.591-3.837,10.086-8.375,10.432-12.572C1415.144,1483.822,1412.51,1480.024,1406.887,1477.457Z" transform="translate(-1248.412 -1067.53)"></path><g transform="translate(60.401 155.364)"><g transform="translate(2.302)"><g transform="translate(0 186.131)"><path class="d" d="M1356.985,1399.543c.449,1.989-.819,4.874-1.039,5.2-4.872,7.075.932,6.479.676,16.575-.024.928,4.1,16.877,4.1,16.877s9.717,2.353,10.441,2.225,6.627-2.408,6.627-2.408c-.5-.862-1.159-2.969-1.565-3.761-2.8-5.452-4.278-12.063-5.358-18.7-.714-4.386-2.053-11.207-1.149-15.816Z" transform="translate(-1351.171 -1399.543)"></path><path class="h" d="M1376.376,1440.7a43.329,43.329,0,0,1,2.731,6.431,3.039,3.039,0,0,1-.132,2.608c-2.221,3.2-14.06-2.1-18.081-5.416-2.6-2.142-2.734-4.775-3.435-7.972-1.053-4.8-1.223-5.337-2.547-10.26l-.857,13.514-1.087.709a150.053,150.053,0,0,0-2.253-17.376c-.4-1.858-1.049-3.969-1.166-5-.686-6.083,2.23-9.186,4.946-11-.894,3.742,2.423,9.685,3.9,17.239C1360.185,1433.322,1368.264,1440.754,1376.376,1440.7Z" transform="translate(-1349.447 -1402.349)"></path></g><path class="i" d="M1422.54,1099.625c-.92,4.149,3.32,18.477,2.236,23.987-1.033,18.142-4.219,33.491-16.443,69.77-.007.412-11.167,22.6-11.914,24.919-7.611,23.666-17.1,49.361-25.162,73.272-2.988,2.311-12.029,1.593-13.188-4.033,2.49-23.884-.227-47.434,3.869-63.776,3.122-12.453,7.213-18.13,13.9-27.359,2.057-23.476,3.539-70.562,8.881-88.613Z" transform="translate(-1352.718 -1099.625)"></path><path class="j" d="M1422.54,1099.625c-.92,4.149-3.655,11.833-4.74,17.344-3.408,8.35-10.589,19.781-15.437,29.384-1.451,11.643-1.044,27.116-8.314,48.69l-6.582,49.879c-5.413,15.62-11.1,31.493-16.21,46.652-2.988,2.311-12.029,1.593-13.188-4.033,2.49-23.884-.227-47.434,3.869-63.776,3.122-12.453,7.213-18.13,13.9-27.359,2.057-23.476,3.539-70.562,8.881-88.613Z" transform="translate(-1352.718 -1099.625)"></path></g><g transform="translate(0 10.613)"><g transform="translate(14.499 198.574)"><path class="d" d="M1373.145,1437.841c.23,2.206-.788,4.437-1.045,6.636a76.963,76.963,0,0,0-.723,11.742,104.532,104.532,0,0,0,2.615,21.108c.673,2.936,1.982,4.2,2.863,8.218l17.314,2.827c-1.7-6.552-4.05-19.819-5.819-30.921l-3.308-20.758Z" transform="translate(-1369.955 -1436.693)"></path><path class="h" d="M1371.4,1447.369c-1,3.475-2.147,5.328-2.3,10.071s2.039,12.152,1.856,18.021l-.291,9.318c-.169,5.426,1.21,9.192,7.374,13.678,5.588,4.066,11.031,5.731,13.992,4.288,2.18-1.064,3.921-4.905.58-15.038-2.783-8.442-3.5-16.691-5.136-25.849.575,9,.791,12.009,2.963,20.824.607,2.464.966,6.588-1.959,7-12.1,1.729-12.706-1.523-13.7-5.257C1372.115,1474.46,1370.166,1456.72,1371.4,1447.369Z" transform="translate(-1369.099 -1440.744)"></path></g><path class="k" d="M1358.082,1120.442c-13.44,16.827-13.78,26.157-10.866,46.377,1.949,13.522,5.917,29.926,6.906,53.686-1.164,12.257-3.359,25.981-1.687,45.021,1.23,14.009,5.167,38.043,8.137,55.032,2.793,5.25,16,2.965,18.157.26-.622-24.348-.24-41.043.924-60.707,1.132-19.128,3.413-36.87,4.846-55.737,1.186-15.611,5.924-36.841,6.551-53.7,2.516-7.949,26.32-34.279,21.361-33.94Z" transform="translate(-1345.737 -1116.726)"></path></g></g><g transform="translate(63.6 58.717)"><path class="l" d="M1361.673,1017.009c6.037,13.967-4.226,21.7-.531,31.319l-1.141,6.515c11.016,7.91,50.416,8.5,60.293-7.181l.205-7.821c1.7-3.744.582-13.208.083-15.7-1.586-7.939-.845-12.152-1.713-21.334-.219-2.322-.653-3.782-.868-6.135,8.772-6.556,8.221-19.24,3.021-26.835a66.851,66.851,0,0,1-6.823-12.048,54.581,54.581,0,0,0-1.519-6.9,11.423,11.423,0,0,0-1.838-3.77c-2.5-3.576-6.552-4-14.823-2.106-16.387,3.76-33.263,12.269-40.795,20.291-5.479,5.835-5.262,12.309-2.119,26.3A149.912,149.912,0,0,0,1361.673,1017.009Z" transform="translate(-1350.892 -943.896)"></path><path class="f" d="M1363,1035.371c6.036,13.968-3.977,21.948-.282,31.569l-1.141,6.432c11.016,8.574,50.416,8.167,60.293-7.514l-.209-6.824c-.005-.272-19.344,17.157-41.363,7.466-4.783-2.105-9.114-12.57-2.922-32.558.589-1.9,7.607-2.033,17.547-9.353-7.337,3.11-21.173,7.374-21.855-11.3-.305-8.348-1.533-14.622-5.807-20.424-2.071-2.813-14.217,11.946-12.367,19.022A177.144,177.144,0,0,0,1363,1035.371Z" transform="translate(-1352.339 -962.342)"></path></g><g transform="translate(28.842 78.117)"><path class="m" d="M1354.493,1111.442c2.005,1.213,5.656,2.394,7.122,3.271.759.454,6.208,3.844,9.271,5.9,3.277,2.2,4.2,5.378,6.157,8.908a22.159,22.159,0,0,1,2.2,6.4c.209,1.488-3.571,4.35-5.179,3.994-3.649-.807-7.374-5.288-8.337-5.787-8.175-4.239-12.088-4.658-15.044-8.031-1.262-1.44-2.033-5.652-4.636-9.438l5.011-4.537Z" transform="translate(-1314.298 -1026.861)"></path><path class="n" d="M1334.087,976.125c-12.142,7.649-25.56,28.746-37.583,47.522a8.735,8.735,0,0,0-.508,9.326,23.012,23.012,0,0,0,2.364,4.251,116.643,116.643,0,0,0,23.505,26.271,9.151,9.151,0,0,0,3.557,1.475c.767.634,1.84,1.778,2.658,2.441-1.015-1.306,5.061-7.853,7.817-7.416-.708-.878-1.429-1.828-2.165-2.836a8.292,8.292,0,0,0-.489-3.1c-3.978-9.044-9.037-18.138-15.347-25.051,10.952-11.847,17.226-14.717,27.43-27.145C1357.72,986.763,1342.137,971.054,1334.087,976.125Z" transform="translate(-1294.886 -975.154)"></path></g><g transform="translate(90.655 17.657)"><path class="d" d="M1397.836,926.934a42.992,42.992,0,0,1-1.637,21.053c5.908,5.469,16.413,3.145,18.855-1.812-.517-3.206-1.117-6.151-1.464-9.441Z" transform="translate(-1395.136 -896.401)"></path><path class="o" d="M1398.837,926.934a41.2,41.2,0,0,1,.527,10.187c1.734,7,14.838,11.733,16.2,6.164-.372-2.152-.735-4.268-.975-6.55Z" transform="translate(-1396.137 -896.401)"></path><path class="d" d="M1421.591,877.735a23.406,23.406,0,0,1,3.834,16.029,6.888,6.888,0,0,0,.55,3.83c2.755,6.218,2.508,8.146,1.143,13.127-1.327,4.844-1.238,7.377-2.89,9.041-1.7,1.708-4.234,2.1-6.387,2.237-4.409.279-11.98-2.631-16.38-5.037-3.262-1.784-3.136-3-4.514-6.1-4.6-4-1.622-6.928-.08-7.228,4.425-.86,5.141,4.238,7.763,5.366C1404.2,900.046,1421.264,884.926,1421.591,877.735Z" transform="translate(-1394.486 -877.735)"></path><path class="p" d="M1432.885,883.515a23.015,23.015,0,0,1,1.876,12.441,6.886,6.886,0,0,0,.55,3.83c2.755,6.217,2.508,8.146,1.143,13.127-.6,2.173-.9,3.88-1.216,5.253a4.132,4.132,0,0,1-5.147,1.488c-1.841-.817-3.65-3-4.106-6.625-.324-2.578-5.605-4.277-6.7-6.9-.9-2.172,1.535-4.6,3.012-5.849C1427.476,895.9,1430.7,889.957,1432.885,883.515Z" transform="translate(-1403.822 -879.928)"></path><path class="q" d="M1427.792,877.735c-2.476,11-16.84,19.323-16.96,31.268C1414.76,896.589,1428.694,888.092,1427.792,877.735Z" transform="translate(-1400.688 -877.735)"></path></g></g><g transform="translate(162.747 0)"><path class="g" d="M1891.626,1537.683l-260.2-144.951c-8.168-3.732-20.172-7.252-28.181-2.372l-20.5,12.488c-4.122,2.512-17.682,10.85-8.613,15.781,26.682,14.507,237.291,133.374,264.385,148.113,5.124,2.786,12.621,3.794,20.49,3.141,7.834-.65,15.969-2.771,22.192-6.609l8.188-5.049c5.787-3.57,8.992-7.469,9.3-11.21C1898.989,1543.361,1896.64,1539.972,1891.626,1537.683Z" transform="translate(-1533.572 -729.458)"></path><g transform="translate(43.561 12.959)"><path class="r" d="M1775,350.565c-4.8-2.724-10.423-3.737-15.688-1.753l-16.29,6.366c2.723-1.062,289.151,167.663,286.993,182.37L1929.73,1160.238l16.288-6.359c6.9-2.717,10.521-9.9,11.533-16.885L2046.3,531.187a.417.417,0,0,0,.01-.068c1.445-10.188-1.617-20.793-7.22-29.306a34.107,34.107,0,0,0-11.855-11.432Z" transform="translate(-1642.371 -347.775)"></path><path class="s" d="M1949.419,500.63,1697.184,360.813c-12.79-7.089-24.968-.285-27.227,15.144l-88.752,605.807c-2.259,15.428,6.244,33.7,19.032,40.785l252.239,139.818c12.789,7.087,25,.3,27.255-15.125l88.75-605.812C1970.746,526.006,1962.208,507.718,1949.419,500.63Z" transform="translate(-1580.842 -351.656)"></path></g><g transform="translate(29.645 493.068)"><path class="t" d="M1852.691,1284.326,1617.9,1154.179c-5.219-2.891-10.328-3.3-14.6-1.637-5.473,2.131-9.567,7.667-10.748,15.734l-15.581,109.771c-2.1,14.361,5.813,31.366,17.714,37.964l234.794,130.148c11.907,6.6,23.268.279,25.373-14.078l15.579-109.775C1872.542,1307.947,1864.595,1290.925,1852.691,1284.326Z" transform="translate(-1565.331 -1132.836)"></path><path class="r" d="M1857.645,1298.034l-19.159,121.58,2.147.261,5.859-2.275c6.423-2.53,9.793-9.219,10.735-15.719l15.581-109.768a.372.372,0,0,0,.009-.064c1.345-9.483-1.5-19.355-6.72-27.279a31.745,31.745,0,0,0-11.035-10.641l-234.8-130.146c-4.467-2.536-9.7-3.48-14.6-1.631l-5.166,2.017c-2.6.977-3.4,1.758-3.386,1.92C1599.55,1149.011,1861.065,1274.729,1857.645,1298.034Z" transform="translate(-1573.099 -1121.385)"></path><path class="u" d="M1834.473,1257.867l-234.79-130.148c-5.218-2.893-10.327-3.3-14.6-1.636-5.473,2.13-9.566,7.666-10.748,15.732l-15.581,109.772c-2.1,14.361,5.811,31.367,17.714,37.964L1811.266,1419.7c11.907,6.6,23.269.279,25.372-14.079l15.58-109.776C1854.324,1281.488,1846.377,1264.464,1834.473,1257.867Z" transform="translate(-1558.419 -1122.797)"></path><path class="v" d="M1586.584,1232.1c-.5,3.431,1.39,7.5,4.234,9.076l241,133.688c2.847,1.578,5.563.067,6.066-3.365,3.916-23.714,6.808-47.933,10.182-71.77.5-3.431-1.4-7.5-4.242-9.078l-241-133.69a4.067,4.067,0,0,0-3.49-.39,4.472,4.472,0,0,0-2.569,3.762Z" transform="translate(-1569.074 -1134.646)"></path><path class="w" d="M1831.062,1458.953l-241-133.69a4.068,4.068,0,0,0-3.49-.389,4.469,4.469,0,0,0-2.569,3.761l-.895,5.411c-.5,3.431,1.39,7.5,4.235,9.074l241,133.688c2.848,1.577,5.563.067,6.065-3.365l.894-5.412C1835.808,1464.6,1833.908,1460.53,1831.062,1458.953Z" transform="translate(-1567.757 -1198.499)"></path></g><g transform="translate(298.582 145.351)"><path class="x" d="M2118.327,612.27l-87.389-48.288c-5.755-3.189-11.391-3.637-16.1-1.8-6.037,2.351-10.553,8.458-11.855,17.355L1992.137,657c-2.321,15.842,6.411,34.6,19.54,41.879l87.393,48.286a23.567,23.567,0,0,0,6.073,2.387l16.025-4.661,15.7-106.67C2134.037,627.3,2127.173,617.174,2118.327,612.27Z" transform="translate(-1991.763 -561.101)"></path><g transform="translate(6.404 0.566)"><path class="r" d="M2147.8,657.9l-13.776,84.969,2.147.261,5.859-2.275c6.423-2.53,9.793-9.218,10.735-15.718l10.2-73.157a.418.418,0,0,0,.008-.063c1.346-9.484-1.5-19.356-6.72-27.279A31.738,31.738,0,0,0,2145.222,614l-89.966-49.387c-4.467-2.536-9.7-3.479-14.6-1.632L2035.488,565c-2.6.976-3.4,1.758-3.385,1.918C2034.539,589.638,2151.224,634.6,2147.8,657.9Z" transform="translate(-2013.472 -562.013)"></path><path class="y" d="M2127.924,617.734l-89.962-49.388c-5.217-2.892-10.327-3.3-14.6-1.637-5.472,2.132-9.566,7.667-10.748,15.734l-10.2,73.16c-2.1,14.36,5.812,31.366,17.715,37.964l89.965,49.389c11.908,6.6,23.269.278,25.372-14.079l10.2-73.164C2147.774,641.356,2139.826,624.332,2127.924,617.734Z" transform="translate(-2002.083 -563.424)"></path><path class="z" d="M2096.02,651.451a7.188,7.188,0,0,1,.742,4.186,27.437,27.437,0,0,1-1.634,5.356l-19.169,53.241c-.62,1.778-1.187,3.132-1.6,4.105a3.259,3.259,0,0,1-1.734,1.859c-.664.295-1.581.093-2.767-.641-2.875-1.777-4.146-4.293-3.784-7.342a37.766,37.766,0,0,1,1.584-5.55l19.118-53.27a19.261,19.261,0,0,1,2.572-5.5c.7-.865,1.9-.755,3.518.244a8.042,8.042,0,0,1,3.15,3.315Zm5.117,13.83-1.756,14.806,28.323,32.851-31.747-4.02-1.763,14.87,45.684,3.572,1.5-12.6-40.236-49.475Zm-79.848-11.3,40.248,49.528,1.764-14.87-28.187-33.061,31.6,4.294,1.781-15-45.693-3.647Z" transform="translate(-2009.369 -592.068)"></path></g></g><g transform="translate(10.686 216.142)"><path class="aa" d="M1708.813,754.877l-46.155-25.339-19.986,136.424,46.681,25.627c13,7.2,25.4.3,27.7-15.371l11.132-79.877C1730.484,780.666,1721.808,762.081,1708.813,754.877Z" transform="translate(-1571.424 -695.796)"></path><path class="r" d="M1673.591,771.057l-13.776,84.969,2.147.261,5.859-2.275c6.423-2.529,9.794-9.218,10.735-15.718l10.2-73.157a.4.4,0,0,0,.009-.063c1.345-9.484-1.5-19.356-6.721-27.279a31.726,31.726,0,0,0-11.034-10.641l-89.966-49.387c-4.468-2.536-9.7-3.48-14.6-1.63l-5.165,2.017c-2.6.977-3.4,1.758-3.387,1.919C1560.325,702.793,1677.011,747.751,1673.591,771.057Z" transform="translate(-1539.258 -675.168)"></path><path class="ab" d="M1653.71,730.889,1563.75,681.5c-5.219-2.892-10.328-3.3-14.6-1.637-5.472,2.131-9.565,7.666-10.747,15.733l-10.2,73.16c-2.1,14.36,5.813,31.366,17.715,37.964l89.965,49.388c11.908,6.6,23.268.279,25.371-14.078l10.2-73.164C1673.56,754.511,1665.613,737.487,1653.71,730.889Z" transform="translate(-1527.869 -676.58)"></path><path class="y" d="M1625.952,789.77l-2.105,14.14,6.37,3.538a64.811,64.811,0,0,0,7.153,3.66,4.4,4.4,0,0,0,4.209.047c1.145-.688,1.864-2.029,2.15-3.956a10.409,10.409,0,0,0-.519-5.336,8.686,8.686,0,0,0-3.325-4.144c-.949-.63-3.716-2.271-8.343-4.845l-5.59-3.1Zm-50.026,1.218,13.227,7.35-3.4-26.422-9.824,19.071Zm6.861-36.306,10.367,5.76,10.215,72.1-10.5-5.829-2.142-16.327-19.375-10.769-6.052,11.775-10.371-5.766,27.856-50.943Zm56.813,83.76a6.808,6.808,0,0,0,2.121-4.521,11.364,11.364,0,0,0-.34-5.236,11.75,11.75,0,0,0-2.588-4.5c-1.277-1.371-4.087-3.281-8.564-5.767l-7.892-4.385-2.461,16.519,9.08,5.044c3.518,1.952,5.759,3.1,6.768,3.3a3.936,3.936,0,0,0,3.875-.457Zm11.146-8.836a22.786,22.786,0,0,1,.928,10.506,17.082,17.082,0,0,1-2.74,7.349,9.147,9.147,0,0,1-5.081,3.961,10.078,10.078,0,0,1-7.04-.711c-1.625-.693-5.548-2.664-11.767-6.124l-16.492-9.163,9.134-61.346,19.352,10.753a66.351,66.351,0,0,1,8.432,5.345,20.25,20.25,0,0,1,4.731,5.376,26.735,26.735,0,0,1,2.9,7.214,19.038,19.038,0,0,1,.466,7.912,12.646,12.646,0,0,1-3.024,6.881,7.308,7.308,0,0,1-5.733,2.625A23.913,23.913,0,0,1,1650.745,829.607Z" transform="translate(-1538.136 -705.335)"></path></g><g transform="translate(293.707 297.935)"><path class="ac" d="M2012.356,885.719c-15.955-12.721-25.493-39.142-21.311-59.035s20.5-25.7,36.452-12.982,25.491,39.155,21.31,59.036S2028.3,898.432,2012.356,885.719Z" transform="translate(-1986.242 -806.963)"></path><g transform="translate(0 0.48)"><path class="r" d="M1995.8,812.734c2.9-3.024,10.181-4.756,14.262-4.976,4.759-.256,10.071,1.677,15.336,6.017,13.822,11.391,22.1,35.083,18.473,52.9-1.076,5.292-3.014,9.524-5.726,12.433-2.531,2.714-10.671,6.139-14.431,6.441C2001.182,888.682,1987.272,821.626,1995.8,812.734Z" transform="translate(-1987.457 -807.736)"></path><g transform="translate(0 1.389)"><path class="ad" d="M2003.234,880.542c-13.831-11.4-22.1-35.072-18.474-52.9s17.768-23.031,31.6-11.633,22.1,35.084,18.474,52.9S2017.056,891.933,2003.234,880.542Z" transform="translate(-1983.907 -809.974)"></path><path class="y" d="M2027.23,853.6l3.759,2.692-27.2,26.1-10.223-26.878,5.016,2.877,6.693,9.514Z" transform="translate(-1987.57 -826.524)"></path></g></g></g><g transform="translate(75.695 411.682)"><path class="ae" d="M1702.022,1012.477l-30.726-17.3c-5.886-3.262-11.651-3.722-16.466-1.846-6.174,2.4-10.792,8.649-12.124,17.749l-4.066,28.627c-2.373,16.2,6.556,35.384,19.985,42.828l30.731,17.3c13.432,7.44,26.248.314,28.622-15.883l4.06-28.632C1724.414,1039.124,1715.449,1019.921,1702.022,1012.477Z" transform="translate(-1634.758 -990.999)"></path><path class="r" d="M1704.991,1052.081l-7.18,37.186,2.147.26,5.858-2.275c6.423-2.53,9.794-9.218,10.735-15.718l3.6-25.374a.387.387,0,0,0,.01-.063c1.345-9.483-1.5-19.355-6.72-27.279a31.761,31.761,0,0,0-11.034-10.641l-27.243-15.332c-4.467-2.536-9.7-3.48-14.6-1.632l-5.166,2.018c-2.6.977-3.4,1.761-3.385,1.92C1654.447,1017.872,1708.412,1028.775,1704.991,1052.081Z" transform="translate(-1639.977 -990.246)"></path><path class="af" d="M1689.143,1011.914,1661.9,996.58c-5.218-2.891-10.327-3.3-14.6-1.637-5.472,2.131-9.566,7.666-10.748,15.733l-3.6,25.378c-2.1,14.36,5.811,31.364,17.716,37.964l27.241,15.335c11.906,6.6,23.267.278,25.372-14.079l3.6-25.381C1708.992,1035.535,1701.045,1018.512,1689.143,1011.914Z" transform="translate(-1632.619 -991.658)"></path><path class="y" d="M1695.457,1051.062c-.527,3.6-3.34,5.224-6.315,3.575-3.028-1.678-4.978-5.947-4.452-9.544.524-3.572,3.328-5.131,6.356-3.452,2.972,1.646,4.933,5.849,4.411,9.421Zm-16.323,31.95c.526-3.593,3.331-5.153,6.359-3.475,2.975,1.648,4.936,5.85,4.41,9.444s-3.343,5.221-6.318,3.574c-3.028-1.678-4.978-5.948-4.452-9.544Zm-18.58-30.749c-.524,3.575-3.383,5.1-6.357,3.455-2.955-1.639-4.934-5.849-4.411-9.422.526-3.6,3.36-5.214,6.315-3.574,2.974,1.646,4.979,5.947,4.453,9.541Zm31.163-15.2c-5.061-2.808-9.917-.187-10.815,5.932l-.005.455-17.641,2.777a14.963,14.963,0,0,0-6.495-8.018c-5.06-2.8-9.847-.121-10.743,5.994-.887,6.054,2.447,13.286,7.509,16.09,2.917,1.619,5.7,1.423,7.7-.221l14.228,20.514-.108.328c-.9,6.115,2.522,13.324,7.582,16.128,5,2.774,9.843.145,10.74-5.973.886-6.052-2.5-13.337-7.506-16.112-3.6-2-7.047-1.226-9.087,1.509l-13.477-19.642a8.032,8.032,0,0,0,.686-2.493,10.979,10.979,0,0,0,.106-2.91l16.774-2.87c.987,4.432,3.713,8.6,7.316,10.6,5,2.774,9.846.122,10.743-6S1696.722,1039.837,1691.718,1037.064Z" transform="translate(-1637.649 -1007.582)"></path></g><g transform="translate(164.541 330.141)"><path class="ag" d="M2021.172,975.2l-198.3-109.921c-5.392-2.988-10.671-3.41-15.083-1.691-5.655,2.2-9.885,7.921-11.106,16.257l-20.552,145.7c-2.173,14.841,6.006,32.413,18.305,39.23l184.884,102.483,16.216-4.962Z" transform="translate(-1775.779 -860.269)"></path><g transform="translate(9.953)"><path class="r" d="M2097.981,1035.507l-23.466,152.807,2.147.26,5.858-2.274c6.423-2.53,9.794-9.218,10.735-15.718l19.889-141a.45.45,0,0,0,.009-.063c1.345-9.484-1.5-19.357-6.72-27.279A31.742,31.742,0,0,0,2095.4,991.6L1860.6,861.456c-4.467-2.536-9.7-3.48-14.6-1.631l-5.166,2.018c-2.6.977-3.4,1.758-3.385,1.92C1839.887,886.484,2101.4,1012.2,2097.981,1035.507Z" transform="translate(-1809.13 -858.858)"></path><path class="ah" d="M2072.178,995.339,1837.387,865.192c-5.218-2.892-10.327-3.3-14.6-1.636-5.473,2.13-9.567,7.666-10.748,15.734l-19.887,141c-2.1,14.361,5.811,31.367,17.714,37.964L2044.664,1188.4c11.906,6.6,23.267.278,25.372-14.08l19.887-141C2092.028,1018.96,2084.081,1001.938,2072.178,995.339Z" transform="translate(-1791.817 -860.269)"></path><g transform="translate(10.968 87.107)"><path class="ai" d="M2073.134,1133.529,1832.139,999.839a4.066,4.066,0,0,0-3.49-.39,4.471,4.471,0,0,0-2.569,3.761l-.895,5.411c-.5,3.431,1.39,7.5,4.235,9.074l241,133.689c2.847,1.576,5.563.066,6.065-3.366l.894-5.412C2077.88,1139.176,2075.98,1135.106,2073.134,1133.529Z" transform="translate(-1815.414 -999.215)"></path><path class="ai" d="M2065.326,1186.883l-241-133.69a4.068,4.068,0,0,0-3.49-.389,4.469,4.469,0,0,0-2.569,3.761l-.9,5.41c-.5,3.43,1.39,7.5,4.235,9.075l241,133.689c2.847,1.576,5.563.066,6.065-3.366l.894-5.412C2070.072,1192.529,2068.172,1188.459,2065.326,1186.883Z" transform="translate(-1812.451 -1019.457)"></path><path class="ai" d="M1943.918,1176.706l-127.394-70.159a4.063,4.063,0,0,0-3.49-.39,4.471,4.471,0,0,0-2.569,3.762l-.894,5.41c-.5,3.431,1.39,7.5,4.234,9.075l127.4,70.158c2.847,1.576,5.563.066,6.065-3.366l.894-5.412C1948.663,1182.352,1946.763,1178.282,1943.918,1176.706Z" transform="translate(-1809.49 -1039.699)"></path></g><path class="ai" d="M2022.958,1009.179c-4.328-2.4-8.454-.1-9.222,5.129-.762,5.211,2.121,11.391,6.45,13.791s8.453.1,9.216-5.105c.767-5.235-2.116-11.415-6.444-13.815Zm10.586,16.109c-1.172,8-7.481,11.506-14.1,7.839s-11.024-13.116-9.852-21.114,7.479-11.505,14.094-7.839,11.023,13.117,9.853,21.114Zm10.134.94,4.311,2.389a41.564,41.564,0,0,1-.392,4.462,36.3,36.3,0,0,1-.873,4.169l-4.31-2.389a19.489,19.489,0,0,1-5.377,8.9l2.515,5.384a17.8,17.8,0,0,1-5.954,3.291l-2.5-5.353a16.6,16.6,0,0,1-9.755-.482l-.761,5.186a26.618,26.618,0,0,1-3.627-1.666,31.843,31.843,0,0,1-3.532-2.3l.76-5.189a36.521,36.521,0,0,1-8.421-9.593l-3.573,1.99a52.275,52.275,0,0,1-4.166-8.9l3.594-2a39.989,39.989,0,0,1-2.156-13.078l-4.31-2.389a41.715,41.715,0,0,1,.385-4.439,36.466,36.466,0,0,1,.879-4.192l4.31,2.389a19.483,19.483,0,0,1,5.376-8.9l-2.517-5.364a17.165,17.165,0,0,1,5.957-3.311l2.5,5.353a16.408,16.408,0,0,1,9.752.505l.764-5.208a26.3,26.3,0,0,1,3.621,1.688,31.018,31.018,0,0,1,3.536,2.277l-.763,5.211a36.065,36.065,0,0,1,8.424,9.571l3.573-1.989a52.55,52.55,0,0,1,4.164,8.921l-3.593,1.979A39.947,39.947,0,0,1,2043.678,1026.228Z" transform="translate(-1868.962 -906.656)"></path></g></g><path class="aj" d="M1860.8,494.72l-154.035-85.383L1681.018,579l154.523,85.653c12.281,6.8,24,.289,26.17-14.52L1879.1,533.893C1881.274,519.085,1873.076,501.526,1860.8,494.72Z" transform="translate(-1575.287 -358.172)"></path><path class="r" d="M1808.574,503.542l-18.351,114.581,2.146.261,5.86-2.275c6.423-2.531,9.793-9.219,10.735-15.719l14.775-102.77a.363.363,0,0,0,.008-.063c1.346-9.484-1.5-19.356-6.719-27.279a31.735,31.735,0,0,0-11.035-10.641L1571.2,329.491c-4.467-2.536-9.7-3.479-14.6-1.631l-5.165,2.018c-2.6.977-3.4,1.758-3.386,1.92C1550.48,354.519,1811.994,480.236,1808.574,503.542Z" transform="translate(-1524.837 -326.893)"></path><path class="y" d="M1785.9,463.374l-234.79-130.148c-5.218-2.891-10.328-3.3-14.6-1.636-5.472,2.131-9.566,7.667-10.748,15.734L1510.989,450.1c-2.1,14.36,5.813,31.366,17.715,37.966L1763.5,618.208c11.907,6.6,23.269.279,25.373-14.078l14.771-102.778C1805.748,487,1797.8,469.973,1785.9,463.374Z" transform="translate(-1510.651 -328.305)"></path><g transform="translate(18.612 52.505)"><path class="ak" d="M1578.226,416.2c-17.449-10.943-34.048-2.15-37.1,19.609-3.052,21.778,8.6,48.287,26.052,59.23,17.433,10.931,34.049,2.15,37.1-19.629C1607.331,453.653,1595.661,427.134,1578.226,416.2Z" transform="translate(-1540.64 -411.496)"></path><path class="y" d="M1572.006,434.8l-5.37,39.392,33.6,2.78Z" transform="translate(-1550.503 -420.337)"></path></g><g transform="translate(86.853 68.802)"><path class="al" d="M1836.97,583.256,1671.1,490.57a3.761,3.761,0,0,0-3.221-.358,4.128,4.128,0,0,0-2.371,3.47l-.825,4.992a8.742,8.742,0,0,0,3.908,8.375l165.871,92.684c2.627,1.456,5.132.062,5.6-3.105l.825-4.994A8.747,8.747,0,0,0,1836.97,583.256Z" transform="translate(-1655.915 -457.576)"></path><path class="al" d="M1830.566,632.694,1664.7,540.007a3.761,3.761,0,0,0-3.221-.359,4.127,4.127,0,0,0-2.37,3.47l-.825,4.993a8.735,8.735,0,0,0,3.907,8.374l165.87,92.686c2.627,1.454,5.133.061,5.6-3.107l.825-4.994A8.741,8.741,0,0,0,1830.566,632.694Z" transform="translate(-1653.485 -476.332)"></path><path class="al" d="M1822.96,681.93l-165.869-92.687a3.763,3.763,0,0,0-3.222-.359,4.132,4.132,0,0,0-2.371,3.472l-.825,4.992a8.742,8.742,0,0,0,3.907,8.375l165.871,92.685c2.628,1.454,5.134.062,5.6-3.106l.824-4.994A8.739,8.739,0,0,0,1822.96,681.93Z" transform="translate(-1650.599 -495.012)"></path><path class="am" d="M1844.177,531.017l-165.869-92.686a3.761,3.761,0,0,0-3.222-.359,4.126,4.126,0,0,0-2.371,3.472l-.825,4.992a8.736,8.736,0,0,0,3.907,8.375l165.87,92.684c2.627,1.456,5.133.063,5.6-3.106l.826-4.995A8.747,8.747,0,0,0,1844.177,531.017Z" transform="translate(-1658.649 -437.756)"></path></g></g><g transform="translate(535.331 413.855)"><path class="g" d="M2424.727,1715.229l-110.472-62.917c-12.043-5.5-29.279-9.883-41.55-3.5-11.179,5.818-29.6,17.726-37.739,22.37-6.186,3.528-27.657,16.392-14.284,23.664,39.34,21.392,78.273,45.45,118.221,67.181,7.555,4.11,18.608,5.6,30.21,4.631,11.551-.959,23.4-4.323,32.719-9.743q9.959-5.793,19.59-11.4c8.666-5.046,13.26-11.011,13.715-16.527C2435.582,1723.6,2432.119,1718.6,2424.727,1715.229Z" transform="translate(-2150.98 -1241.075)"></path><path class="an" d="M2418.48,1181.562c1.478-6.42,3.549-13.808,5.446-21.345,3.8-15.1,6.9-30.8,3.111-40.524-1.614-4.144-4.444-6.153-7.645-8.725-8.3-6.67-7.056,11.234-20.073,9.691-2.071,2.77-1.429,9.011-.75,14.979C2401.029,1157.2,2411.36,1188.218,2418.48,1181.562Z" transform="translate(-2219.854 -1037.653)"></path><g transform="translate(99.399 67.904)"><path class="d" d="M2297.616,1111.737c1.475-4.555,6.76-2.146,8.256-.395,2.61,2.627,5.623,5.932,9.206,7.048,2.476.771,8.475,1.884,11.013,10.452.641,2.163-1.088,2.024-3.224,5.114-6.788-5.3-14.447-5.546-15.067-6.479C2301.693,1118.3,2305.607,1119.344,2297.616,1111.737Z" transform="translate(-2281.202 -1105.422)"></path><path class="d" d="M2308.222,1139.932l7.1,8.242,8.263-14.5c-1.186-1.681-3.379-1.938-4.344-3.811a33.139,33.139,0,0,0-1.683-3.6c-3.739-6.734-6.307-7.822-19.578-9.633-3.868-.529-4.264-1.191-6.724-2.985l-9.052-8.086c-2.967-2.2-5.4-2.8-6.562-2.132-1.288.747-4.5,7.766-4.42,11.456l0,.016c-.26.894.3,2.187,1.623,3.641,3.942,4.321,7.285,8.148,10.78,12.389,6,7.282,4.315,4.529,14.486,5.9C2303.768,1137.579,2306.108,1138.323,2308.222,1139.932Z" transform="translate(-2271.167 -1103.162)"></path><path class="ao" d="M2281.264,1116.642c.345-1.635,2.68-9.5,3.5-9.732,1.618-.456,3.8,2.233,5.862,4.269,3.089,3.046,8.337,9.575,12.56,10.5,10.025,2.2,14.589,5.511,19.275,19.475l-2.576-1.641c-5.431-16.618-14.971-4-24.842-10.2C2289.042,1125.553,2280.991,1117.934,2281.264,1116.642Z" transform="translate(-2274.995 -1104.564)"></path><path class="ap" d="M2355.039,1151.966c-2.321-.922-5.706-1.523-7.2-2.708-1.622-1.29-3.964-3.189-4.862-3.831-3.71,1.447-8.02,7.122-10.644,12.431,1.626,1.818,3.242,3.762,4.849,5.788,1.2,1.506,1.8,5.6,2.989,7.19,7.351,9.845,23.788,21.97,32.888,30.633,10.872,10.347,23.584,11.262,29.083,4.828,2.95-3.451,4.75-8.724,1-16.451-2.36-4.865-8.827-9.813-14.451-14.513C2377.99,1166.381,2361.211,1154.419,2355.039,1151.966Z" transform="translate(-2294.375 -1119.197)"></path></g><path class="aq" d="M2431.947,1197.573c-3.973,4.457-11.33,5.022-18.818-1.767-.485-.323-.97-.667-1.455-1.035l-.572-1.439a11.052,11.052,0,0,1-1.649-4.238c-.943-2.461-1.906-5.049-2.782-7.524-3.3-9.338-10.193-31.245-12.112-47.6-2.678-22.817,14.687-32.055,26.658-25.887,10.285,5.3,10.814,23.187,12.228,32.923C2435.468,1154.943,2441.569,1186.776,2431.947,1197.573Z" transform="translate(-2218.477 -1036.418)"></path><g transform="translate(164.57 451.22)"><path class="y" d="M2435.82,1747.906c-2.349-.052-10.273-7.5-17.775-3.739-9.012,4.516-26.125.516-34.758,2.59-1.539.369-4.545-.762-5.139.293-1.863,3.309-3.663,8.257.914,11.494,3.366,2.382,10.575,5.535,15.3,7.211,5.015,1.777,13.6,4.578,19.36,5.479,6.375,1,9.283,1.407,11.669,3.25,3.411,1.717,6.935,2.455,8.9,2.141,4.205-.669,9.107-3.132,11.35-7.923.716-1.532.737-8.224-.088-12.565-.651-3.425-2.52-7.326-4.015-10.969Z" transform="translate(-2376.178 -1729.268)"></path><path class="ar" d="M2442.581,1723.431c2.852,6.844,1.976,17.435,8.732,21.112,4.516,2.458,11.589,2.479,14.672-4.539,1.719-3.915-.564-10.6-.058-19.2Z" transform="translate(-2401.371 -1720.808)"></path><path class="r" d="M2416.019,1738.545c-5.178,1.506-19.471.5-28.507,1.231-3.885.314-7.367.285-9.183,3.811-1.671,3.244-.8,6.024,2.987,8.7a64.044,64.044,0,0,0,13.807,6.774c5.017,1.778,13.6,4.578,19.36,5.48,6.375,1,9.284,1.407,11.669,3.25,3.412,1.717,6.936,2.456,8.9,2.142a15.675,15.675,0,0,0,11.349-8.423c.717-1.532.738-7.723-.089-12.066a22.135,22.135,0,0,0-.663-2.557c-.712-6.8-2.957-9.551-5.073-8.386-2.9,1.594-3.991,4.462-5.094,6.818a6.658,6.658,0,0,1-3.938,3.756c-3.465,1.091-6.628-.841-8.677-3.814a24.5,24.5,0,0,1-2.377-6.891c-.011-.231-.014-.463-.009-.692-.68-5.944-3.572-5.426-3.133-4.173C2417.752,1734.657,2417.587,1737.333,2416.019,1738.545Z" transform="translate(-2376.687 -1725.321)"></path><path class="y" d="M2379.883,1748.134c.069,2.3-3.452,2.516-2.435,6.554-1.694-1.659.67-6.423,1.715-7.148C2379.592,1747.243,2379.957,1747.12,2379.883,1748.134Z" transform="translate(-2376.435 -1730.87)"></path></g><g transform="translate(108.814 423.36)"><path class="y" d="M2342.841,1700.119c-2.188-.858-7.067-10.576-15.4-9.628-3.364.383-8.773-.5-14.263-2.054-8.754-2.489-20.952-10.314-23.032-9.034-4.535,2.79-4.9,7.878-1.715,12.493a64.069,64.069,0,0,0,10.634,11.111c4.1,3.395,9.913,8.589,15.008,11.415,4.814,2.671,6.413,2.434,9.84,7.066a16.086,16.086,0,0,0,7.62,4.823c5.005.979,12.273-2.234,14.889-5.589,1.664-5.384,4.55-10.481,2.7-18.561Z" transform="translate(-2286.338 -1677.186)"></path><path class="ar" d="M2357.589,1675.917c.135,7.413-4.574,16.94.357,22.844,3.3,3.946,9.866,6.567,15.313,1.174,3.037-3.009,3.374-10.068,7-17.872Z" transform="translate(-2312.649 -1675.917)"></path><path class="r" d="M2315.992,1685.7q-.747-.2-1.5-.409c-8.754-2.489-20.451-8.52-22.532-7.239-4.536,2.79-5.4,6.083-2.214,10.7a63.967,63.967,0,0,0,10.634,11.111c4.1,3.395,9.913,8.589,15.007,11.416,4.815,2.67,6.413,2.433,9.84,7.066a16.1,16.1,0,0,0,7.621,4.824c5,.977,12.491-2.267,15.108-5.621,1.238-4.008,2.934-7.825,3.07-12.861.729-6.593.275-9.947-2.593-9.864-5.335.156-7.537,2.967-9.741,4.342-4.747,2.959-7.925-.865-8.7-5.6a27.638,27.638,0,0,1,.435-6.252c.074-.22.156-.437.245-.648,1.554-5.779-1.326-6.358-1.378-5.033a4.956,4.956,0,0,1-4.4,5.048C2322,1687.11,2318.336,1685.9,2315.992,1685.7Z" transform="translate(-2286.91 -1676.659)"></path><path class="y" d="M2292.213,1678.81c-.928,2.1-4.2.782-5.02,4.865-.814-2.228,3.371-5.508,4.627-5.712C2292.334,1677.88,2292.715,1677.927,2292.213,1678.81Z" transform="translate(-2286.623 -1676.682)"></path></g><g transform="translate(148.585 200.501)"><path class="as" d="M2360.633,1339.448c-1.917,21.482-12.684,90.09-9.689,108.925,4.5,28.323,3.219,62.541,3.168,92.6.761,12.632,18.126,19.232,23.181,11.206,4.058-26.861,9.833-50.4,12.18-65.322,2.63-16.715,1.761-37.024-2.48-48.009,1.74-12,9.923-42.959,16.758-64.413,2.467-7.741,16.442-32.755,1.976-57.618Z" transform="translate(-2350.422 -1316.819)"></path><path class="at" d="M2355.911,1665.015c-.014,2.228.069,5.625.065,7.813.761,12.632,18.345,19.482,23.4,11.456.3-1.98.733-3.941,1.048-5.883C2373.626,1685.725,2360.3,1676.21,2355.911,1665.015Z" transform="translate(-2352.504 -1448.922)"></path><path class="au" d="M2350.518,1452.953c5.663,28.4,21.679,66.345,30.424,94.9,4.55-24.47,15.94-66.142,6.089-91.646.991-6.835,4.073-19.818,7.8-33.693-7.578-14.369-.336-25.837-3.914-46.072-20.065-3.5,10.219-27.988-32.242-2.193C2354.88,1404.733,2351.314,1423.9,2350.518,1452.953Z" transform="translate(-2350.458 -1334.179)"></path></g><g transform="translate(126.418 213.521)"><path class="av" d="M2348.469,1470.492c11.576,26.2,32.932,77.609,44.291,109.769,5.877,8.541,26.83,7.653,26.789-.315-4.625-26.888-10.062-68.359-19.715-91.941-2.955-7.217-13.856-24.583-17.783-29.737-3.055-11.868-6.883-43.919-9.835-61.265,2.649-14.352,14.225-38.347-8.016-59.2-8.974,6.384-36.719,10.375-49.3,3.268C2312.869,1397.757,2326.784,1421.4,2348.469,1470.492Z" transform="translate(-2314.703 -1337.799)"></path><path class="at" d="M2436.686,1719.451c.506,1.405,1.513,4.244,1.987,5.589,6.05,8.792,27.62,7.878,27.579-.325q-.343-1.993-.691-4.085C2460.417,1725.872,2444.864,1725.941,2436.686,1719.451Z" transform="translate(-2360.982 -1482.595)"></path></g><path class="aw" d="M2390.451,1182.193c-1.868,16.84,3.2,33.4-1.959,48.776-.23,1.588-.377,7.821-.648,9.516-3.4,19.916-45.523,40.07-80.656,20.96-.194-2.468.03-5.05-.161-9.624.65-4.27-1.2-8.851-1.183-11.456.049-10.838,3.423-16.38,1.805-28.441-3.292-24.536-16.884-48.117-9.366-67.421,1.614-4.143,4.442-6.152,7.646-8.725,8.3-6.671,51.246-28.537,64.264-30.081C2407.988,1100.8,2392.478,1163.924,2390.451,1182.193Z" transform="translate(-2181.207 -1036.118)"></path><g transform="translate(133.145)"><path class="ax" d="M2328.41,1066.517c2.389,1.185,14.519-.536,14.163.55-.175,5.428-1.791,8.722-2.314,16.156,13.339-1.864,30.836-3.79,31.533-14.02-.056-.82-.1-1.637-.137-2.442-.016-.093-.028-.186-.046-.281l.035,0c-.14-3.717.037-7.086,1.074-8.764,2.823-4.566,8.627-9.654,10.684-16.577,3.286-11.065,2.089-23.358-8.227-31.551-18.84-14.962-42.934-4.316-49.038,17.567-1.192,4.273,2.178,6.587,2.059,10.241-.023.714-.969,1.461-1.738,3.047C2325.4,1042.633,2325.48,1065.068,2328.41,1066.517Z" transform="translate(-2325.654 -997.112)"></path><path class="ay" d="M2328.556,1066.395c2.388,1.183,14.395-.413,14.039.673-.174,5.428-1.791,8.722-2.314,16.156,7.747,1.9,28.637-.883,31.761-12.637.056-2.474-.053-11.662.7-12.875,2.823-4.566,8.627-9.654,10.684-16.577,3.286-11.065,2.089-23.358-8.226-31.551-18.84-14.962-42.934-4.316-49.038,17.567-1.192,4.273,2.178,6.587,2.059,10.241-.023.714-.969,1.461-1.738,3.047C2325.42,1042.633,2325.626,1064.944,2328.556,1066.395Z" transform="translate(-2325.676 -997.112)"></path><path class="az" d="M2328.933,1066.517c1.268.681,6.506.234,10.406-1.264,2.459-.945,4.238-3.052,4.62-3.207,1.616-.653,5.2-5.746-.356-13.858-5.42-7.907,27.406,12.333,29.145,9.523,2.823-4.566,8.627-9.654,10.684-16.577,3.286-11.065,2.089-23.358-8.226-31.551-18.84-14.962-42.934-4.316-49.038,17.567-1.192,4.273,2.178,6.587,2.059,10.241-.023.714-.969,1.461-1.738,3.047C2325.426,1042.633,2326.054,1064.973,2328.933,1066.517Z" transform="translate(-2325.681 -997.112)"></path><path class="d" d="M2352.534,1075.683c6.75-6.292,13.265,13.724,2.4,13.513C2359.175,1084.709,2355.957,1077.6,2352.534,1075.683Z" transform="translate(-2335.782 -1024.369)"></path><path class="ba" d="M2352.313,1078.963c-1.013-2.8-.159-3.818,1.072-3.514,1.353.332,3.274,2.275,4.274,5.174,1.613,4.678-.7,10.588-5.217,8.279,3.885.225,3.523-4.458,2.357-7.348C2354.01,1079.592,2352.784,1078.2,2352.313,1078.963Z" transform="translate(-2335.528 -1024.724)"></path><path class="d" d="M2354.707,1083.184c-1.086,2.023-1.463,3.225-1.113,3.92.243.484.993,1.034,2.219-.153A6.985,6.985,0,0,0,2354.707,1083.184Z" transform="translate(-2336.136 -1027.679)"></path><path class="bb" d="M2335.61,1019.864l-.26-.137c-9.069-4.836-7.643-14.841-3.812-18.24,7.4-6.565,27.477-5.88,40.206.675,12.958,6.673,16.133,23.278,12.258,36.326-2.578,8.683-8.851,13.217-11.984,19.8a7.878,7.878,0,0,1-7.981,2.911c-8.985-1.858-11.061-11.337-16.459-15.508-2.962-2.289-6.007-2.9-7.12,3.345-.215,2.747-.256,5.531-.456,8.058-.315,3.972.676,4.712-2.688,6.073-3.225,1.308-9.51,2.587-10.584,2.166-.839-.328-.785-5.286-.629-8.988.338-.028.353,1.271.526,1.246.333-.048.733-.13,1.21-.177a14.592,14.592,0,0,0-.537-4.5c-.42-1.447-.606-2.495-1.479-3.372-.337-.34-.33-2.339-.178-2.91a9.157,9.157,0,0,1,3.839,5.421,27.291,27.291,0,0,1,1,4.925c1.926-.367,3.863-.655,4.6-1.509,1.894-2.188,2.229-4.933,2.911-9.215.159-7.532-.17-8.65-4.087-14.238-1.085-1.546-1.139-4.7,1.545-11.749C2335.511,1020.13,2335.564,1020,2335.61,1019.864Z" transform="translate(-2325.542 -994.94)"></path><path class="bc" d="M2332.287,1014.3c2.8,3.5,14.8-4.6,31.61-1.505-3.6-11.1-5.68-13.457-10.729-16.706-6.579-4.234-17.659-2.506-21.135,3.329C2328.7,1005.014,2330.037,1011.483,2332.287,1014.3Z" transform="translate(-2327.243 -993.747)"></path></g><path class="bd" d="M2375.279,1106.945c3.642,1.122,7.308,4.728,6.643,7.129-3.626,14.817-31.16,17.625-48.047,14.058-.2-.042,6.571-8.921,9.8-9.971C2354.307,1119.2,2372,1115.693,2375.279,1106.945Z" transform="translate(-2195.557 -1036.694)"></path><g transform="translate(0 98.512)"><path class="an" d="M2308.667,1246.075c-1.248-29.778-6.681-62.428-7.391-72.841-.3-4.435,1.4-7.459,3.2-11.148,1.759-3.6,23.588-3.549,29.341,13.463C2336.161,1220.354,2319.984,1249.43,2308.667,1246.075Z" transform="translate(-2183.178 -1155.405)"></path><g transform="translate(0 39.208)"><path class="d" d="M2155.414,1238.986l9.592,5.137,2.5-16.5c-1.71-1.142-3.85-.594-5.423-2a33.078,33.078,0,0,0-2.866-2.756c-5.909-4.939-8.7-5.031-21.732-1.952-3.8.9-4.407.422-7.348-.367l-11.353-4.293c-3.561-.989-6.05-.674-6.889.369-.934,1.161-1.411,8.867-.007,12.279l.007.014c.079.928,1.064,1.933,2.824,2.814,5.232,2.615,9.728,4.985,14.514,7.686,8.219,4.636,5.654,2.675,15.637.293C2150.411,1238.393,2152.862,1238.244,2155.414,1238.986Z" transform="translate(-2111.003 -1215.659)"></path><path class="ao" d="M2121.819,1228.613c-.264-1.65-.469-7.965.214-8.476,1.346-1.007,4.526,1.192,7.187,2.35,4.151,1.808,7.323,1.373,8.763.7,4.911,3.551,18.815-1.342,31.091,13.488l-3.749,1.315c-4.213-1.118-14.934,1.463-26.372-.766C2132,1235.869,2122.029,1229.918,2121.819,1228.613Z" transform="translate(-2115.012 -1217.26)"></path><path class="d" d="M2132.012,1237.293c-.8-4.72,5-5.029,7.136-4.168,3.529,1.122,7.73,2.659,11.423,1.99,2.552-.461,8.386-2.25,14.6,4.172,1.569,1.622-.029,2.3-.492,6.026-8.468-1.555-15.375,1.766-16.355,1.226C2138.662,1241.226,2142.615,1240.341,2132.012,1237.293Z" transform="translate(-2118.945 -1222.142)"></path></g><path class="be" d="M2242.3,1212.24c-12.105-4.216-28.837-9.341-38.215-9.442-2.5-.026-5.871.63-7.688.06-1.977-.621-4.844-1.552-5.913-1.828-2.943,2.684-4.923,9.528-5.463,15.427,2.172,1.112,4.377,2.345,6.605,3.657,1.657.977,3.7,4.581,5.373,5.635,10.4,6.546,30.1,11.95,41.7,16.763,5.259,2.18,9.5,4.2,15.62,4.1a25.9,25.9,0,0,0,9.662-4.738c.511-.284,1.021-.587,1.533-.916l.683-1.39a11.033,11.033,0,0,0,1.977-4.094c1.134-2.38,2.3-4.884,3.367-7.282,4.029-9.049,12.621-30.345,15.822-46.5,4.465-22.534-12.119-33.112-24.538-27.9-10.67,4.473-12.606,22.264-14.782,31.858C2246.074,1194.348,2243.922,1204.231,2242.3,1212.24Z" transform="translate(-2139.086 -1152.482)"></path></g></g></g><g transform="translate(207.26 229.575)"><g transform="translate(1058.985)"><g transform="translate(247.01 290.417)"><g transform="translate(30.755 12.42)"><path class="bf" d="M2458.719,884.368,2361.2,827.694l22.642-107.46,0-.029v-.013l0-.017,0-.026v0l.007-.033,0-.009.006-.026.006-.022,0-.011.009-.035v0l.009-.033,0-.019.006-.019.008-.034,0,0,.01-.039,0-.012.008-.027.008-.029,0-.01.012-.04,0-.007.011-.035.007-.024.006-.018.014-.042h0l.014-.043.006-.018.009-.025.012-.036,0-.007.016-.044,0-.011.012-.034.011-.03.007-.015.017-.045v0l.017-.041.01-.023.01-.023.017-.041,0,0,.02-.046.007-.015.014-.03.016-.035,0-.011.023-.046,0-.007.019-.039.014-.025.01-.021.024-.045h0l.024-.045.011-.019.015-.026.021-.037,0-.007.026-.045.007-.011.021-.034.018-.03.01-.014.028-.043,0,0,.027-.04.014-.021.015-.021.027-.038,0,0,.03-.042.01-.014.022-.027.032-.04.032-.04.006-.006.028-.033.019-.023.014-.015.035-.039.035-.037.015-.016.021-.02.03-.03.006-.006.036-.034.01-.009.029-.024.026-.022.012-.01.039-.031,0,0,.038-.027.021-.015.02-.014.038-.026,0,0,.042-.026.014-.009.029-.016a1.6,1.6,0,0,1,1.454-.068l97.513,56.673C2481.068,772.6,2468.1,852.682,2458.719,884.368Z" transform="translate(-2361.196 -717.542)"></path><path class="bg" d="M2383.838,721.88c40.958,46.939,89.816,75.926,85.036,116.661l-10.156,47.473L2361.2,829.34Z" transform="translate(-2361.196 -719.188)"></path></g><g transform="translate(22.439 0)"><path class="y" d="M2452.282,757.636l-2.2,108.986L2347.8,807.578l.3-108.044Z" transform="translate(-2347.796 -698.291)"></path><path class="bh" d="M2512.91,793.924l2.136-1.244-.3,108.048-2.137,1.234Z" transform="translate(-2410.323 -733.629)"></path><path class="bi" d="M2348.287,698.774l2.146-1.244,102.274,59.051-2.136,1.244Z" transform="translate(-2347.982 -697.53)"></path><path class="bj" d="M2448.929,849.8l-.02,6.815-94.67-54.659.021-6.811,94.669,54.654Zm.213-78.337-.009,6.812-94.67-54.656.022-6.811,94.657,54.655Zm-.03,11.186-94.658-54.654-.021,6.811,94.658,54.655.021-6.812Zm-.03,11.195-94.669-54.655L2354.4,746l94.657,54.652.021-6.811Zm-.031,11.194-94.669-54.654-.021,6.811,94.669,54.656.021-6.812Zm-.031,11.188-94.669-54.656-.021,6.812L2449,823.032l.021-6.811Zm-.03,11.195-94.669-54.658-.021,6.813,94.669,54.655.021-6.811Zm-.03,11.193-94.669-54.655-.021,6.811,94.67,54.656Z" transform="translate(-2350.24 -704.842)"></path></g><path class="bk" d="M2413.533,814.81l23.249,81.754,0,0a9.849,9.849,0,0,0,1.431,2.6L2340.7,842.5a3.877,3.877,0,0,1-1.436-2.6l-23.249-81.76.02.012-4.359-15.328a3.973,3.973,0,0,1,.841-2.773c4.05,3.689,25.673,16.922,29.66,19.269,6.678,5.233,6.907,11.695,17.022,22.421a17.522,17.522,0,0,0,5,4.009Z" transform="translate(-2311.64 -713.663)"></path><path class="bg" d="M2476.988,837.781a2.862,2.862,0,0,1,.478-.351c.762-.436,1.446-.25,1.674.5l23.03,81.1,22.637-107.46a3.831,3.831,0,0,1,1.652-2.423,2.131,2.131,0,0,1,.47-.2c.934-.249,1.481.547,1.219,1.75l-22.769,108.18A16.253,16.253,0,0,1,2504,923.11a4.863,4.863,0,0,1-1.833,2.067,1.584,1.584,0,0,1-1.806.043,4.862,4.862,0,0,1-1.32-2.525l-23.252-81.766A3.576,3.576,0,0,1,2476.988,837.781Z" transform="translate(-2373.892 -739.784)"></path><path class="bl" d="M2367.249,782.02l49.189,28.585c-1.28-.625-3.243,2.25-2.906,3.619l-49.68-28.869a30.5,30.5,0,0,1-4.142-2.679c-7.061-5.577-10.394-13.218-15.007-19.4a19.773,19.773,0,0,0-3.955-4.005c-1.226-.667-1.875-1.023-1.658-.917l-27.417-16.138a3.99,3.99,0,0,1,.845-2.749c.52-.552,1.331-1.233,2.069-.845l27.464,16.166c-.217-.106.432.249,1.658.916a19.778,19.778,0,0,1,3.954,4.006c4.882,6.54,8.375,13.894,16.295,20.132A25.876,25.876,0,0,0,2367.249,782.02Z" transform="translate(-2311.64 -713.077)"></path></g><path class="bm" d="M1952.3,245.469c6.418,3.551,10.169,7.7,14.335,13.621-.051-1.034-.1,2.759-.067-3.1s-3.33-15.328,1.255-20.072c1.817-1.879,10.667-5.333,12.794-5.88,4.08-1.048,8.809-.341,13.859,2.42,7.679,4.2,14.632,12.375,19.68,22.2,5.059,9.852,8.2,26.26,8.193,32.19s-.031,2.049-.089,3.045c4.275-1.283,8.111-1.267,14.712,2.385s14.916,12.661,20.073,22.666c5.169,10.03,8.417,21.785,8.441,32.733.02,8.546-1.929,15.335-5.246,20.036-3.343,4.737-9.8,7.534-14.382,9.053-13.129,4.56-38.442-22.059-51.8-29.62q-21.258-12.035-42.3-23.932c-7.645-4.326-14.5-12.57-19.406-22.413a72.141,72.141,0,0,1-7.752-31.933c.058-6.235-4.5-15.589,1.4-20.067C1935.168,241.842,1944.961,241.408,1952.3,245.469Z" transform="translate(-1917.174 -229.575)"></path><path class="bn" d="M1941.331,250.665c6.418,3.551,10.169,7.7,14.334,13.622-.05-1.034-.1,2.759-.066-3.1s3.207-18.664,8.245-22.922,11.982-4.809,19.661-.61,14.633,12.376,19.68,22.2c5.06,9.851,8.2,26.259,8.194,32.19s-.031,2.05-.089,3.045c4.275-1.283,8.111-1.267,14.711,2.384s14.916,12.662,20.073,22.667c5.169,10.03,8.417,21.737,8.441,32.733s-3.18,19.184-8.353,23.5c-5.155,4.3-12.3,4.7-20.164.254q-21.538-12.188-42.91-24.281-21.26-12.034-42.3-23.933c-7.645-4.325-14.5-12.57-19.406-22.412a72.139,72.139,0,0,1-7.753-31.932c.1-10.669,3.227-18.6,8.224-22.827S1934.913,247.114,1941.331,250.665Z" transform="translate(-1913.627 -231.546)"></path><g transform="translate(29.367 38.247)"><path class="y" d="M1974.1,324.943l-13.156-7.591,20.69,35.833,20.822-11.867-13.15-7.6.037-33.74L1974.14,291.2Z" transform="translate(-1960.947 -291.203)"></path><path class="y" d="M2038.265,351.856l13.156,7.592-20.69-35.834-20.822,11.868,13.15,7.6-.037,33.74,15.206,8.78Z" transform="translate(-1979.523 -303.5)"></path></g><g transform="translate(241.161 135.028)"><path class="bo" d="M2315.552,516.48c-11.363-14.059-16.449-38.874-11.365-55.444s18.411-18.6,29.774-4.545,16.445,38.884,11.363,55.444S2326.908,530.532,2315.552,516.48Z" transform="translate(-2302.215 -447.148)"></path><path class="y" d="M2341.7,494.407l3.129,3.426-27.261,19.572-6.531-28.352,4.249,3.876,5.093,10.694Z" transform="translate(-2305.564 -463.047)"></path></g></g><g transform="translate(9.912 75.821)"><path class="bp" d="M969.3,1512.558a26.178,26.178,0,1,1-26.179,26.178A26.178,26.178,0,0,1,969.3,1512.558Z" transform="translate(-366.198 -774.15)"></path><path class="bq" d="M250.361,1012.638a43.1,43.1,0,1,1-43.1,43.1,43.1,43.1,0,0,1,43.1-43.1Zm0,11.476a31.625,31.625,0,1,0,31.626,31.626A31.625,31.625,0,0,0,250.361,1024.114Z" transform="translate(352.74 -568.484)"></path><path class="br" d="M1257.542,399.427l-13.735-7.57a12.013,12.013,0,0,1-5.085-6.515l-5.273-16.688a11.792,11.792,0,0,0-5.133-6.551c-2.041-1.126-3.984-.965-4.547,1.2l-3.156,12.026c-.511,1.915-2.324,2.423-4.569,1.18l-13.71-7.6c-4.922-2.724-6.48,3.1-2.239,8.5l11.743,14.947c1.9,2.417,2.834,5.37,2.324,7.326l-3.207,11.949c-.875,3.3,2.222,8.309,5.406,10.069a3.926,3.926,0,0,0,2.9.54l10.417-2.741a4.008,4.008,0,0,1,2.924.572,10.444,10.444,0,0,1,3.082,2.749l11.724,14.982a10.323,10.323,0,0,0,3.062,2.756c3.173,1.756,5.749-.11,4.295-4.678l-5.3-16.679c-.875-2.719-.311-4.843,1.376-5.281l10.443-2.678C1265.052,410.267,1262.489,402.162,1257.542,399.427Z" transform="translate(-583 -361.415)"></path></g></g></g></svg> 