<?xml version="1.0" encoding="UTF-8"?>
<svg id="Layer_2" data-name="Layer 2" xmlns="http://www.w3.org/2000/svg" viewBox="0 0 383.19 383.27">
  <defs>
    <style>
      .cls-1 {
        fill: #fff;
      }
    </style>
  </defs>
  <g id="Layer_1-2" data-name="Layer 1">
    <g>
      <path class="cls-1" d="M296.35,383.27c-1.46-3.88-3.81-7.68-4.16-11.65-.53-6.06-5.09-6.65-9.01-8.34-.66-.28-1.87,.36-2.68,.83-3.13,1.81-6.2,3.71-9.28,5.6-2.48,1.53-4.63,1.28-6.71-.84-4.72-4.81-9.48-9.58-14.3-14.28-2.23-2.17-2.58-4.4-.91-7.01,1.21-1.89,2.16-3.97,3.55-5.71,2.73-3.44,3.39-6.69,1.08-10.81-1.16-2.06-2.16-3.45-4.47-3.73-3.57-.43-7.14-1.23-10.71-1.23-47.65-.08-95.3-.05-142.95-.06-6.78,0-7.5-.73-7.5-7.5,0-36.31,0-72.61,0-108.92,0-1.47,0-2.94,0-4.78h-17.11c0,1.23,0,2.7,0,4.16,0,38.05,0,76.11,0,114.16,0,1.12-.01,2.25,0,3.37,.02,2.61-1.07,4.46-3.83,4.56-2.97,.12-4.17-1.81-4.32-4.53-.06-1.12-.03-2.25-.03-3.37,0-40.05,.03-80.1-.03-120.15-.01-6.47-.41-12.94-.78-19.41-.05-.89-.76-2.08-1.52-2.53-13.8-8.1-14.81-20.69-2.19-31.34-2.58-5.98-6.73-10.81-11.49-15.27-13.67-12.82-20.4-28.66-20.09-47.39,.51-31.26,25.48-57.42,57.23-60.08,30.8-2.57,59.84,19.27,65.49,49.54,4.19,22.42-2.19,41.62-18.42,57.59-1.87,1.84-3.68,3.72-5.5,5.61-.3,.32-.49,.75-.95,1.47h84.15v-4.4c0-29.94,.27-59.89-.12-89.83-.17-13.48,9.11-21.93,21.77-21.8,42.28,.42,84.58,.42,126.86,0,12.83-.12,21.68,4.12,25.76,16.65v125.79c-3.97,11.44-12.21,15.45-23.99,15.08-17.06-.53-34.16-.14-51.23-.14h-3.97v53.22c5.49,0,10.71,.02,15.93,0,2.75-.02,4.45,1.18,5.08,3.93,.75,3.28,1.81,6.49,2.36,9.8,.43,2.57,1.92,3.49,4.07,4.63,3.81,2.03,6.88,1.72,10.13-.95,1.71-1.41,3.84-2.3,5.7-3.55,2.67-1.79,5-1.69,7.33,.7,4.69,4.83,9.46,9.58,14.26,14.3,2.1,2.06,2.4,4.22,.87,6.7-1.64,2.65-3.22,5.33-4.84,7.99-2.92,4.82-.28,11.01,5.11,12.57,4.45,1.29,8.79,2.98,13.18,4.5v26.21c-1.81,.97-3.53,2.2-5.46,2.84-2.94,.98-6.03,1.51-9.04,2.29-3.63,.94-6.45,7.82-4.53,11.05,1.84,3.1,3.74,6.17,5.6,9.27,1.31,2.19,1.2,4.24-.66,6.11-5.02,5.02-10.04,10.04-15.06,15.07-1.85,1.85-3.89,2.04-6.1,.73-2.67-1.59-5.32-3.22-7.99-4.83-5.24-3.16-11.32-.52-12.96,5.34-1.21,4.34-2.95,8.53-4.45,12.79h-26.2ZM374.98,63.93H217.32c-.08,1.06-.2,1.9-.21,2.74,0,31.94-.04,63.89,.01,95.83,.01,7.73,4.35,11.86,12.23,11.86,44.29,.01,88.57,0,132.86,0,8.81,0,12.75-3.95,12.75-12.79,0-29.45,0-58.9,0-88.34,0-2.99,0-5.98,0-9.31ZM96.79,204.62v113.04H235.75c0-5.92,.18-11.64-.06-17.34-.17-4,1.47-6.03,5.31-6.72,2.82-.51,5.56-1.43,8.38-1.91,2.5-.42,3.55-1.82,4.68-4.04,1.94-3.79,1.84-6.87-.87-10.15-1.49-1.81-2.47-4.03-3.75-6.02-1.67-2.59-1.44-4.83,.82-7.01,4.12-3.99,8.03-8.21,12.24-12.11,2.13-1.97,4.73-3.43,7.68-5.53v-64.25c-1.85,0-3.2,0-4.56,0-12.48,0-24.95,0-37.43,0-5.51,0-10.1-2.09-14.12-5.88-1.26-1.19-3.34-2.13-5.04-2.14-24.7-.14-49.4-.06-74.11-.12-5.07-.01-9.25,.6-13.89,4.07-4.52,3.37-5.53,6.44-5.14,11.14,.07,.87,.03,1.75,0,2.62-.26,6.88-4.76,11.73-11.62,12.32-2.44,.21-4.92,.03-7.48,.03Zm-3.53-56.81c5.71,0,11.05,.06,16.38-.07,.75-.02,1.81-.87,2.16-1.6,3.56-7.61,9.38-13.35,15.09-19.33,15.6-16.37,20.26-35.7,12.19-56.92-7.99-21.02-24.07-32.76-46.45-34.6-23.04-1.89-44.02,11.28-53.08,32.11-9.11,20.98-4.26,44.63,12.66,60.73,5.48,5.21,10.29,10.83,13.62,17.66,.39,.79,1.27,1.89,1.94,1.91,5.68,.15,11.37,.09,17.29,.09,0-8.83-.11-17.05,.06-25.28,.06-2.92-.48-4.52-3.6-5.77-7.47-3-11.53-9-11.93-17.05-.41-8.39,3.32-14.83,10.76-18.61,7.02-3.57,14.08-2.94,20.44,1.82,6.24,4.67,8.71,11.16,7.61,18.78-1.06,7.35-5.33,12.42-12.12,15.46-1.17,.52-2.88,1.71-2.9,2.62-.22,9.2-.13,18.41-.13,28.05Zm267.93,201.9c-1.27-2.1-2.34-4.41-3.89-6.33-3.35-4.17-4.02-8.26-.85-12.88,1.09-1.6,1.6-3.64,2.14-5.55,.73-2.58,2.36-3.92,4.93-4.48,3.75-.81,7.46-1.78,11.27-2.7v-15.88c-3.93-1.1-7.94-1.98-11.73-3.42-1.63-.62-3.24-2.19-4.1-3.76-1.6-2.93-2.49-6.23-3.98-9.24-1.13-2.3-.96-4.19,.39-6.28,2.14-3.32,4.1-6.76,5.75-9.51-4.09-4.09-7.85-7.85-11.71-11.71-1.68,1.01-3.88,2.02-5.7,3.5-4.36,3.53-8.66,4.37-13.53,.93-1.47-1.04-3.42-1.49-5.22-1.98-2.59-.7-3.96-2.31-4.53-4.88-.85-3.85-1.85-7.66-2.81-11.56-1.63,0-2.87-.03-4.11,0-3.95,.11-8.94-1.15-11.56,.78-2.42,1.79-2.04,7.12-3.44,10.68-.72,1.84-2.37,3.68-4.09,4.68-2.87,1.68-6.06,2.94-9.27,3.86-1.7,.49-3.96,.47-5.51-.28-3.67-1.76-7.07-4.09-10.24-5.99-3.96,4-7.71,7.8-11.56,11.69,.6,1,1.21,2.41,2.15,3.55,4.65,5.61,5.23,10.94,1.82,17.94-2.5,5.12-5.08,7.76-10.55,8.75-7.38,1.34-7.32,1.67-7.32,9.11,0,8.77-.05,9,8.55,10.76,4.64,.95,7.75,2.79,8.68,7.73,.36,1.91,1.29,3.81,2.34,5.47,1.8,2.84,1.42,5.28-.39,7.94-2.02,2.97-3.77,6.13-5.46,8.93,3.89,3.98,7.62,7.8,11.44,11.71,.98-.58,2.14-1.08,3.08-1.86,5.99-4.97,11.78-5.97,19.26-2.01,4.49,2.38,6.97,4.62,7.95,9.47,1.64,8.18,1.85,8.13,10.34,8.13,7.81,0,8.14,.06,9.57-7.72,.97-5.24,2.97-8.7,8.53-9.71,2.02-.37,3.79-2.02,5.81-2.45,1.87-.4,4.19-.52,5.84,.25,3.59,1.68,6.87,4.01,10.02,5.91,3.9-3.88,7.68-7.65,11.66-11.62ZM217.14,55.22h157.82c0-3.39,.08-6.49-.02-9.59-.21-6.9-5.28-12.03-12.2-12.04-44.88-.05-89.77-.05-134.65,0-6.28,0-10.56,4.16-10.92,10.44-.2,3.59-.04,7.2-.04,11.19Zm-88.62,110.74h80.11v-16.11H119.43c6.33,4.11,8.92,9.51,9.09,16.11Zm167,16.88h-17.13c0,23.2,0,46.13,.04,69.06,0,.75,.4,1.7,.95,2.21,2.91,2.74,10.88,.46,11.95-3.42,2.54-9.21,4.91-18.35,4.32-28.15-.59-9.82-.13-19.7-.13-29.55v-10.15Zm-206.68-8.72c6.86,0,13.72,0,20.58,0,.25,0,.5,0,.75,0,4.21-.05,7.59-1.59,9.32-5.63,2.56-5.98-1.59-12.15-8.61-12.4-7.6-.27-15.21-.1-22.82-.1-6.73,0-13.47-.1-20.2,.05-5.48,.12-9,3.02-9.65,7.54-.86,5.94,3.09,10.37,9.69,10.51,6.98,.15,13.97,.03,20.95,.04Zm18.85,8.18c-12.06,0-23.63-.03-35.19,.07-.68,0-1.89,.98-1.93,1.56-.17,2.97-.53,6.09,.19,8.9,.38,1.49,2.79,3.44,4.35,3.49,9.32,.33,18.66,.2,28,.14,2.99-.02,4.57-1.68,4.58-4.71,.01-2.97,0-5.94,0-9.46Zm-18.69-72.09c6.31,.05,11.35-4.95,11.43-11.33,.08-6.35-4.85-11.6-11.06-11.76-6.33-.17-11.63,5.11-11.64,11.58,0,6.37,4.99,11.47,11.27,11.52Z"/>
      <path class="cls-1" d="M383.19,296.41c-4.39-1.52-8.72-3.21-13.18-4.5-5.39-1.56-8.03-7.75-5.11-12.57,1.61-2.66,3.2-5.34,4.84-7.99,1.54-2.49,1.23-4.64-.87-6.7-4.8-4.72-9.57-9.47-14.26-14.3-2.33-2.39-4.65-2.48-7.33-.7-1.86,1.24-3.99,2.14-5.7,3.55-3.25,2.68-6.32,2.98-10.13,.95-2.15-1.15-3.64-2.06-4.07-4.63-.55-3.3-1.61-6.52-2.36-9.8-.63-2.75-2.33-3.95-5.08-3.93-5.22,.03-10.44,0-15.93,0v-53.22h3.97c17.08,0,34.17-.39,51.23,.14,11.79,.36,20.02-3.64,23.99-15.08v128.78Z"/>
      <path class="cls-1" d="M65.79,383.27c-7.95-2.5-14.55-6.98-15.91-15.58-1.12-7.06-.65-14.41-.48-21.62,.03-1.11,2.12-2.32,3.45-3.19,.62-.4,1.7-.1,2.58-.1,58.75,0,117.5,0,176.24,0,1,0,2.24-.33,2.94,.13,1.31,.88,3.19,2.21,3.21,3.38,.03,1.44-1.32,3.31-2.61,4.24-1.03,.74-2.88,.43-4.36,.43-56.13,.02-112.26,.01-168.39,.01h-4.88c0,5.11-.39,9.85,.11,14.49,.54,5.02,5.46,9.05,10.64,9.52,1.49,.13,2.99,.07,4.49,.07,67.35,0,134.71,0,202.06,0,.87,0,1.83-.24,2.6,.05,1.84,.68,4.26,1.14,5.24,2.53,1.53,2.17-.15,4.18-2.08,5.63H65.79Z"/>
      <path class="cls-1" d="M322.55,383.27c1.5-4.26,3.23-8.45,4.45-12.79,1.64-5.85,7.72-8.49,12.96-5.34,2.66,1.61,5.32,3.23,7.99,4.83,2.2,1.31,4.25,1.13,6.1-.73,5.02-5.03,10.04-10.05,15.06-15.07,1.86-1.86,1.97-3.92,.66-6.11-1.85-3.1-3.75-6.17-5.6-9.27-1.92-3.23,.9-10.12,4.53-11.05,3.01-.78,6.09-1.31,9.04-2.29,1.92-.64,3.64-1.87,5.46-2.84v60.65h-60.63Z"/>
      <path class="cls-1" d="M158.5,32.84c-.04,2.32-6.29,9.02-8.65,8.92-1.19-.05-2.9-.75-3.37-1.66-.63-1.24-.93-3.43-.24-4.41,1.7-2.38,3.83-4.6,6.19-6.32,2.53-1.84,6.12,.4,6.07,3.47Z"/>
      <path class="cls-1" d="M22.9,28.99c3.44,.12,9.54,6.36,9.52,8.94-.02,3.23-3.5,5.36-6.05,3.41-2.34-1.79-4.43-4.05-6.17-6.44-.65-.9-.42-2.93,.15-4.08,.5-1,2.04-1.49,2.56-1.84Z"/>
      <path class="cls-1" d="M170.34,84.48c-5.2,.02-7.32-1.23-7.22-4.23,.09-2.87,2.05-3.96,7.11-3.96,1.24,0,2.48-.05,3.72,.02,2.61,.16,4.23,1.48,4.18,4.2-.05,2.53-1.67,3.75-4.07,3.95-1.23,.1-2.48,.02-3.72,.02Z"/>
      <path class="cls-1" d="M7.37,84.67c-1.11,0-2.23,.05-3.34-.01-2.47-.15-3.98-1.49-4.03-3.96-.05-2.52,1.56-3.88,3.94-4.07,2.21-.19,4.46-.15,6.68-.04,2.51,.12,4.35,1.25,4.35,4.03,0,2.99-1.9,4.07-4.63,4.08-.99,0-1.98,0-2.97,0,0-.01,0-.02,0-.03Z"/>
      <path class="cls-1" d="M92.92,7.7c0,1.24,.46,2.78-.1,3.67-.93,1.47-2.51,3.49-3.82,3.49-1.35,0-3.45-1.91-3.88-3.38-.67-2.3-.33-4.93-.2-7.41C85.04,1.65,86.37,0,88.89,0c2.71,0,3.98,1.72,4.08,4.34,.04,1.12,0,2.24,0,3.36-.02,0-.04,0-.06,0Z"/>
      <path class="cls-1" d="M128.52,165.96c-.17-6.61-2.75-12-9.09-16.11h89.19v16.11h-80.11Z"/>
      <path class="cls-1" d="M295.52,182.84v10.15c0,9.85-.46,19.73,.13,29.55,.59,9.8-1.77,18.95-4.32,28.15-1.07,3.89-9.05,6.16-11.95,3.42-.54-.51-.95-1.46-.95-2.21-.05-22.93-.04-45.87-.04-69.06h17.13Z"/>
      <path class="cls-1" d="M313.85,138.62c0-3.08-.22-5.55,.11-7.95,.13-.92,1.36-1.94,2.34-2.45,5.28-2.76,10.64-5.37,16.75-8.43-4.84-2.46-9.08-4.63-13.34-6.76-6.73-3.37-6.9-3.72-5.35-11.86,4.71,2.43,9.31,4.8,13.91,7.16,4.76,2.45,9.54,4.84,14.27,7.35,2.58,1.37,3.1,6.46,.66,7.76-9.52,5.06-19.14,9.92-29.35,15.18Z"/>
      <path class="cls-1" d="M259.3,119.76c5.31,2.69,9.83,5.27,14.58,7.29,3.45,1.47,5.21,3.42,4.49,7.27-.22,1.17-.03,2.42-.03,4.25-5.3-2.72-10.13-5.19-14.94-7.68-4.64-2.39-9.3-4.75-13.89-7.23-2.6-1.4-2.83-6.31-.3-7.64,9.44-4.98,18.94-9.83,29.12-15.09,0,3.08,.22,5.63-.12,8.1-.12,.9-1.46,1.86-2.45,2.38-5.23,2.75-10.54,5.36-16.44,8.34Z"/>
      <path class="cls-1" d="M284.57,139.27c.75-2.04,1.33-3.65,1.94-5.25,4.49-11.74,9.2-23.4,13.37-35.25,1.4-3.97,3.22-5.83,7.41-5.03,.94,.18,1.93,.14,3.36,.23-1.9,5.02-3.67,9.75-5.48,14.46-3.39,8.83-6.98,17.58-10.12,26.5-1.18,3.33-2.71,5-6.33,4.37-1.19-.21-2.45-.03-4.14-.03Z"/>
      <path class="cls-1" d="M152.01,197.86c2.83,1.64,5.51,3.15,8.16,4.73,3.96,2.36,7.82,.78,8.92-3.67,2.66-10.79,1.26-10.18,12.95-10.13,3.12,.01,6.23-.02,9.35,.02,2.55,.04,4.23,1.2,4.79,3.81,.39,1.82,.92,3.62,1.36,5.44,1.38,5.76,4.84,7.2,9.93,4.13,8.41-5.06,7.35-5.79,14.82,1.82,2.36,2.4,4.74,4.79,7.15,7.14,1.98,1.93,2.33,4,.83,6.38-1.07,1.68-2.08,3.4-3.11,5.11-2.75,4.54-1.13,8.21,4.14,9.41q9.46,2.15,9.46,12.02c0,3.24-.01,6.48,0,9.73,.01,2.87-1.19,4.74-4.15,5.33-1.83,.37-3.62,.92-5.43,1.35-5.27,1.23-6.81,4.86-4.03,9.47,5.39,8.95,6,7.67-1.84,15.42-2.13,2.11-4.31,4.16-6.33,6.37-2.29,2.5-4.67,3.08-7.55,1-1.41-1.02-2.97-1.82-4.46-2.73-4.53-2.74-8.15-1.14-9.46,4.1-2.48,9.87-1.23,9.46-12,9.4-3.12-.02-6.24-.08-9.35,.02-3.22,.1-5.23-1.12-5.79-4.47-.31-1.84-.87-3.63-1.32-5.44-1.18-4.84-4.9-6.42-9.13-3.81-9.52,5.85-8.08,5.93-16-1.98-2.21-2.2-4.39-4.42-6.62-6.61-1.96-1.93-2.36-3.99-.8-6.37,1.09-1.67,2.09-3.4,3.12-5.1,2.65-4.4,1.12-8.03-3.84-9.35-9.94-2.64-9.84-.77-9.73-12.52,.03-3.12,.03-6.24,0-9.35-.03-2.91,1.22-4.71,4.18-5.27,1.83-.35,3.63-.85,5.44-1.3,5.27-1.32,6.73-4.91,3.91-9.58-5.43-8.99-5.87-7.64,1.94-15.4,2.3-2.29,4.53-4.65,6.91-6.85,.95-.88,2.23-1.4,3.61-2.24Zm69.58,79.33c-.12-.44-.12-.89-.34-1.13-5.04-5.61-5.33-11.4-1.49-17.92,1.36-2.31,2.42-3.98,5.2-4.63,7.98-1.86,7.88-1.97,7.65-10.14-.06-2-.66-3.08-2.67-3.21-6.5-.42-10.54-3.66-11.74-10.2-.09-.47-.37-.93-.65-1.34-1.52-2.29-1.03-4.37,.31-6.61,4.29-7.22,4.28-7.3-2-12.71-.75-.65-2.77-.98-3.35-.47-5.35,4.61-10.81,4.75-16.59,.99-.2-.13-.47-.17-.71-.23-2.62-.58-3.87-2.25-4.5-4.84-2.02-8.24-2.09-8.23-10.35-7.78-.12,0-.29-.05-.37,.01-.86,.67-2.41,1.33-2.45,2.05-.35,7.33-4.5,11.12-11.24,12.7-.24,.06-.45,.3-.68,.3-1.98-.03-4.29,.56-5.88-.25-7.79-3.97-7.72-4.1-13.73,2.24-.34,.36-.62,.76-1.1,1.35,.94,1.58,1.98,3.11,2.81,4.76,.94,1.85,2.7,4.06,2.3,5.66-.98,3.92-2.48,7.96-4.82,11.19-1.24,1.72-4.6,2.22-7.11,2.62-3.3,.53-4.13,2.11-4.03,5.26,.22,6.65,.03,6.79,6.35,8.12,3.52,.74,5.17,2.66,6.86,5.86,3.19,6.05,3.09,11.15-1.35,16.33-.51,.59-.38,2.39,.16,3.09,1.8,2.35,3.92,4.45,5.91,6.64,2.98-1.79,5.25-3.33,7.68-4.53,1.24-.61,3.02-1.23,4.16-.8,6.4,2.45,13.63,4.23,13.5,13.41-.01,.76,1.08,2.03,1.87,2.23,6.81,1.69,9.23,.02,11.24-6.66,.61-2.03,2.04-4.34,3.77-5.4,6.35-3.87,12.84-4.88,18.85,.95,.24,.23,.68,.24,1.19,.41,2.41-2.43,4.84-4.89,7.27-7.34Z"/>
      <path class="cls-1" d="M45.57,86.77c.54-21.79,20.16-40.9,42.11-41.06,2.85-.02,5.06,.84,5.14,4.04,.07,2.97-1.9,3.96-4.64,4.17-20.12,1.56-32.89,14.2-34.41,34-.22,2.81-1.17,5.05-4.38,4.86-3.78-.22-3.99-3.09-3.82-6.02Z"/>
      <path class="cls-1" d="M309.46,268.96c22.2-.02,40.5,18.22,40.61,40.47,.11,22.26-18.53,40.88-40.76,40.72-22.23-.16-40.5-18.56-40.42-40.68,.09-22.26,18.35-40.49,40.57-40.51Zm32.42,40.41c-.13-17.76-14.88-32.36-32.57-32.23-17.75,.13-32.38,14.9-32.24,32.57,.14,17.77,14.9,32.37,32.57,32.24,17.74-.13,32.36-14.91,32.23-32.58Z"/>
      <path class="cls-1" d="M360.45,40.13c2.94,.16,4.56,1.78,4.52,4.46-.04,2.7-1.79,4.39-4.56,4.3-2.54-.09-4.15-1.61-4.19-4.25-.04-2.82,1.59-4.24,4.22-4.51Z"/>
      <path class="cls-1" d="M345.84,44.48c-.26,2.82-1.76,4.46-4.52,4.4-2.78-.05-4.4-1.84-4.3-4.55,.09-2.49,1.63-4.14,4.3-4.15,2.82-.01,4.24,1.61,4.52,4.3Z"/>
      <path class="cls-1" d="M321.99,40.14c2.96,.07,4.6,1.62,4.63,4.34,.04,2.73-1.64,4.45-4.4,4.42-2.53-.02-4.18-1.46-4.28-4.13-.1-2.82,1.43-4.31,4.05-4.63Z"/>
      <path class="cls-1" d="M183.21,221.42c13.77-.05,24.81,10.81,24.9,24.51,.09,13.9-10.95,25.06-24.79,25.05-13.65-.01-24.73-11.1-24.74-24.75-.01-13.73,10.93-24.75,24.63-24.81Zm.27,8.19c-9.28-.06-16.65,7.19-16.7,16.43-.05,9.25,7.24,16.67,16.44,16.72,9.26,.05,16.63-7.23,16.68-16.46,.05-9.31-7.16-16.63-16.43-16.69Z"/>
      <path class="cls-1" d="M292.11,309.15c.31-9.57,8.39-17.29,17.76-16.98,9.56,.32,17.29,8.4,16.99,17.76-.31,9.53-8.43,17.3-17.77,17-9.55-.31-17.28-8.41-16.98-17.78Zm17.43,9.58c4.98-.04,9.27-4.48,9.11-9.43-.16-4.89-4.37-8.96-9.23-8.93-4.87,.04-9.03,4.17-9.11,9.04-.08,4.98,4.26,9.35,9.23,9.31Z"/>
    </g>
  </g>
</svg>