<?xml version="1.0" encoding="UTF-8"?>
<svg id="Layer_2" data-name="Layer 2" xmlns="http://www.w3.org/2000/svg" viewBox="0 0 95.49 95.48">
  <defs>
    <style>
      .cls-1 {
        fill: #fff;
      }
    </style>
  </defs>
  <g id="Layer_1-2" data-name="Layer 1">
    <g>
      <path class="cls-1" d="M95.49,27.97c-2.33,2.36-4.65,4.74-7,7.07-.62,.62-1.45,.6-2.09-.02-2.2-2.15-4.39-4.31-6.55-6.5-.65-.65-.6-1.48,.05-2.17,.57-.61,1.17-1.2,1.75-1.79-13.4-10.29-33.34-10.73-47.35-.74,1.46,3.48,1.14,6.72-1.75,9.33-2.58,2.32-5.57,2.48-8.68,1.1-9.57,12.95-10.11,33.27,.8,47.49,.56-.61,1.07-1.24,1.65-1.8,.78-.76,1.6-.75,2.38,.02,2.09,2.08,4.17,4.18,6.23,6.29,.78,.8,.78,1.58,0,2.37-2.08,2.1-4.16,4.18-6.27,6.26-.81,.8-1.56,.82-2.36,.03-2.12-2.09-4.23-4.2-6.33-6.33-.75-.77-.75-1.53,0-2.29,.78-.8,1.62-1.54,2.41-2.28-9.6-13.77-11.34-28.34-5.53-44.02-.68,.75-1.34,1.52-2.05,2.25-1.79,1.81-3.58,3.62-5.42,5.39-.52,.49-.62,.91-.43,1.6,.69,2.43-.82,4.96-3.24,5.57-2.5,.63-4.96-.84-5.6-3.35-.61-2.38,.84-4.93,3.26-5.47,.84-.19,1.77,.05,2.66,.06,.3,0,.7,.01,.88-.16,4.71-4.69,9.4-9.4,14.14-14.16-1.09-1.82-1.56-3.8-1.06-5.93,.35-1.52,1.1-2.83,2.24-3.9,2.52-2.36,5.67-2.65,9.52-.84,.17-.15,.36-.31,.53-.49,4.46-4.46,8.92-8.92,13.36-13.4,.24-.25,.46-.76,.38-1.06-.73-2.74,.41-4.99,3.07-5.92,.11-.04,.22-.11,.33-.16,.62,0,1.24,0,1.86,0,.08,.05,.15,.11,.24,.14,2.65,.94,3.95,3.29,3.19,5.75-.81,2.65-3.73,3.81-5.89,3-.26-.1-.76,.13-.99,.36-2.44,2.39-4.85,4.81-7.27,7.22-.16,.16-.29,.34-.47,.55,15.6-5.99,30.16-4.24,43.78,5.26,.03-.02,.07-.03,.09-.05,.73-.72,1.46-1.44,2.19-2.15,.93-.89,1.65-.89,2.57,.02,1.59,1.57,3.17,3.15,4.74,4.74,.69,.71,1.34,1.46,2,2.19v.93Zm-63.35-.46c.02-2.6-2.05-4.71-4.63-4.73-2.55-.01-4.7,2.14-4.7,4.69,0,2.54,2.06,4.62,4.61,4.65,2.62,.04,4.7-2,4.71-4.61Zm-4.61,55.66c-1.39,1.41-2.83,2.87-4.2,4.25,1.36,1.37,2.8,2.81,4.17,4.19,1.4-1.39,2.84-2.82,4.24-4.22-1.4-1.4-2.84-2.84-4.22-4.22ZM87.47,31.63c1.38-1.39,2.81-2.83,4.19-4.21-1.36-1.36-2.8-2.79-4.18-4.17-1.37,1.37-2.81,2.81-4.18,4.18,1.37,1.38,2.8,2.82,4.17,4.21ZM50.35,6.15c.88,.01,1.6-.71,1.6-1.58,0-.87-.73-1.6-1.6-1.58-.84,.01-1.52,.69-1.54,1.54-.02,.89,.66,1.61,1.54,1.63ZM6.17,50.35c0-.86-.65-1.54-1.52-1.56-.88-.03-1.49,.54-1.51,1.4-.02,.9,.66,1.62,1.55,1.63,.84,0,1.47-.62,1.48-1.47Z"/>
      <path class="cls-1" d="M95.49,71.22c-.3,.36-.57,.74-.89,1.07-7.4,7.41-14.81,14.81-22.21,22.21-.11,.11-.22,.22-.33,.33-1.05,.99-2.04,.84-2.69-.45-1.49-2.93-2.93-5.89-4.44-8.81-.22-.42-.66-.83-1.09-1-4.94-1.94-9.89-3.83-14.85-5.71-.81-.31-1.33-.76-1.66-1.59-4.99-12.54-10-25.06-15.03-37.58-.42-1.04-.28-1.8,.54-2.57,1.54-1.45,3.01-2.96,4.49-4.48,.65-.67,1.32-.78,2.19-.44,12.64,5.06,25.29,10.11,37.94,15.15,.77,.31,1.16,.85,1.44,1.58,1.86,4.9,3.76,9.79,5.62,14.69,.25,.65,.59,1.08,1.23,1.39,2.82,1.37,5.62,2.77,8.41,4.2,.5,.26,.9,.71,1.35,1.08v.93ZM36.02,38.24c-.58,.35-.83,.71-.54,1.44,4.78,11.88,9.53,23.77,14.32,35.65,.16,.4,.57,.82,.96,.97,4.59,1.81,9.2,3.56,13.79,5.35,.59,.23,.93,.11,1.36-.32,5.12-5.16,10.26-10.3,15.42-15.42,.51-.51,.54-.9,.3-1.53-1.73-4.42-3.44-8.84-5.11-13.28-.29-.76-.69-1.2-1.45-1.5-11.76-4.68-23.51-9.37-35.25-14.09-.77-.31-1.22-.2-1.52,.43,6.41,6.41,12.79,12.79,19.19,19.19,5.04-3.08,9.88-.84,12.01,2.07,2.52,3.46,2.26,8.17-.7,11.29-2.91,3.08-7.71,3.6-11.24,1.22-3.97-2.67-4.79-6.91-2.38-12.32-6.38-6.38-12.75-12.74-19.15-19.14Zm48.15,29.32c-5.59,5.58-11.07,11.05-16.59,16.57,1.18,2.35,2.4,4.78,3.59,7.16,6.74-6.73,13.42-13.41,20.15-20.15-2.38-1.19-4.8-2.41-7.14-3.58Zm-21.68-10.91c-3.25,0-5.81,2.53-5.82,5.76,0,3.21,2.59,5.82,5.78,5.82,3.18,0,5.81-2.66,5.8-5.83-.02-3.16-2.6-5.73-5.76-5.74Z"/>
    </g>
  </g>
</svg>