<?xml version="1.0" encoding="UTF-8"?>
<svg id="Layer_2" data-name="Layer 2" xmlns="http://www.w3.org/2000/svg" viewBox="0 0 359.36 299.52">
  <defs>
    <style>
      .cls-1 {
        fill: #fff;
      }
    </style>
  </defs>
  <g id="Layer_1-2" data-name="Layer 1">
    <g>
      <path class="cls-1" d="M113.73,215.65v-23.96h-4.37c-29.82,0-59.63,0-89.45,0-12.67,0-19.89-7.27-19.9-20.01,0-14.6,0-29.2,0-43.8,0-12.92,7.2-20.04,20.23-20.05,29.69,0,59.39,0,89.08,0h4.26v-23.96h-4.17c-29.82,0-59.63,0-89.45,0C7.25,83.86,.02,76.62,.01,63.9,0,49.05,0,34.21,.02,19.36,.03,7.45,7.49,.01,19.44,0,86.31,0,153.18,0,220.05,0c12.19,0,19.51,7.38,19.52,19.63,.02,15.1-.05,30.2,.04,45.29,.02,3.67-.88,6.24-4.49,8.1-3.73,1.92-7.21,4.53-10.33,7.35-2.88,2.6-5.8,3.59-9.67,3.57-28.32-.15-56.64-.08-84.96-.08h-4.19v23.79h75.89c-1.65,3.99-3.03,7.54-4.6,11-.26,.58-1.3,.96-2.05,1.11-.96,.19-1.99,.05-2.99,.05-57.14,0-114.28,0-171.42,0-7.16,0-8.81,1.65-8.82,8.77,0,14.22,0,28.45,0,42.67,0,6.65,1.79,8.45,8.4,8.45,57.39,0,114.78,0,172.17,0h4.17c1.67,3.87,3.3,7.62,5.11,11.82H126.03v24.12h4.09c29.07,0,58.14-.04,87.21,.09,1.89,0,4,.95,5.63,2.04,4.56,3.02,9.04,6.21,13.31,9.63,1.45,1.17,3.09,3.22,3.11,4.89,.23,16.97,.41,33.94,.03,50.9-.2,8.77-7.91,15.72-16.69,16.27-1.24,.08-2.49,.05-3.74,.05-66.12,0-132.24,0-198.37,0-13.55,0-20.59-6.99-20.59-20.44,0-14.72-.02-29.45,0-44.17,.02-11.69,7.51-19.23,19.16-19.24,29.94-.03,59.88,0,89.83,0,1.47,0,2.94,0,4.73,0Zm5.78-143.77c32.94,0,65.88,0,98.82,0,7.82,0,9.28-1.48,9.28-9.45,0-13.73,0-27.45,0-41.18,0-7.72-1.52-9.27-9.08-9.27-65.88,0-131.76,0-197.64,0-7.32,0-8.89,1.61-8.89,9.07,0,14.1,0,28.2,0,42.3,0,6.81,1.75,8.52,8.7,8.52,32.94,0,65.88,0,98.82,0Zm.28,155.75c-33.31,0-66.63,0-99.94,0-5.88,0-7.85,1.98-7.86,7.85-.02,14.73-.02,29.45,0,44.18,0,5.87,1.99,7.86,7.86,7.86,66.63,0,133.26,0,199.88,0,5.86,0,7.86-2,7.86-7.86,.02-14.48,0-28.95,0-43.43,0-6.87-1.74-8.61-8.62-8.61-33.06,0-66.13,0-99.19,0Z"/>
      <path class="cls-1" d="M359.36,149.62c.05,42.82-34.94,77.95-77.72,78.01-42.81,.07-77.93-34.93-77.99-77.73-.06-42.82,34.92-77.93,77.72-78.01,42.8-.08,77.95,34.94,78,77.73Zm-34-6.1h21.62c-1.26-12.59-5.57-23.61-13.03-33.32-5.75,1.92-11.13,3.71-16.48,5.5,1.61,4.69,3.34,9.09,4.63,13.62,1.29,4.54,2.14,9.21,3.27,14.2Zm-80.26,40.46c-2.68-9.47-5.27-18.61-7.93-28h-21.13c1.15,12.55,5.57,23.52,13,33.42,5.58-1.88,10.96-3.7,16.06-5.42Zm-1.57-69.06c-3.99-1.31-8.42-2.84-12.93-4.15-.75-.22-2.18,.29-2.64,.93-6.82,9.47-10.87,19.99-11.91,31.86h20.65c2.31-9.71,4.54-19.08,6.82-28.64Zm103.4,41.07h-20.67c-2.31,9.73-4.54,19.1-6.82,28.66,4.47,1.43,9.4,3.02,14.55,4.67,7.41-9.88,11.81-20.85,12.93-33.33Zm-59.3,23.58c5.98,.76,11.54,1.51,17.11,2.1,.75,.08,2.02-.47,2.31-1.08,3.71-7.78,5.97-15.92,6.17-24.54h-25.59v23.52Zm-12.32-35.99v-23.6c-5.8-.73-11.45-1.51-17.13-2.07-.79-.08-2.11,.7-2.46,1.43-3.59,7.6-5.71,15.59-6,24.25h25.58Zm-26.28,12.32c2.8,8.24,5.29,15.75,7.97,23.19,.32,.9,1.71,2.08,2.52,2.02,5.28-.38,10.54-1.06,15.69-1.63v-23.58h-26.18Zm38.59-12.34h26.28c-2.77-8.14-5.29-15.77-8.05-23.31-.32-.88-2.01-1.86-2.99-1.8-5.05,.35-10.07,1.03-15.23,1.61v23.5Zm36.97-42.68c-4.89-6.15-19.78-14.03-25.84-13.93,2.06,2.7,4.06,5.38,6.13,8,2.45,3.11,4.47,7.86,7.59,8.77,3.35,.98,7.76-1.67,12.12-2.85Zm-60.25,112.34c-4.13-5.94-7.97-11.54-11.96-17.04-.41-.56-1.79-.85-2.56-.65-3.79,.94-7.53,2.09-12.01,3.38,8.13,7.05,16.58,11.66,26.53,14.32Zm-1.15-126.7c-9.5,3.07-17.7,7.11-25.12,14.12,4.01,1.08,7.21,2.03,10.45,2.76,.78,.18,2.1-.05,2.52-.59,3.99-5.17,7.83-10.46,12.15-16.29Zm36.61,126.45c9.48-2.96,17.63-7.08,25.05-14.06-3.99-1.08-7.18-2.02-10.43-2.76-.78-.18-2.1,.04-2.52,.58-3.99,5.17-7.83,10.46-12.1,16.24Zm-24.46-120.34c-.27-.16-.54-.32-.8-.48-3.74,4.54-7.48,9.07-11.75,14.24,4.8,.42,8.59,.74,12.55,1.09v-14.85Zm12.31,114.34c.28,.12,.56,.24,.84,.36,3.71-4.52,7.42-9.04,11.66-14.2-4.87-.41-8.64-.73-12.49-1.06v14.9Zm-23.37-14.23c3.86,5.04,7.12,9.31,10.95,14.32v-15.2c-3.46,.28-6.66,.53-10.95,.88Zm23.41-85.06c3.52-.29,6.78-.57,10.97-.92-3.85-5.01-7.15-9.28-10.97-14.25v15.17Z"/>
      <path class="cls-1" d="M78.04,131.79c13.47,0,26.94-.02,40.41,0,8.41,.01,13.26,4.84,13.32,13.17,.02,3.62,.09,7.24-.02,10.85-.21,6.75-5.18,11.85-11.95,11.87-27.94,.08-55.88,.08-83.82,0-6.92-.02-11.86-5.22-12-12.21-.07-3.74-.06-7.49,0-11.23,.11-7.37,5.13-12.42,12.53-12.45,13.84-.06,27.69-.02,41.53-.02Zm-41.92,23.7H119.49v-11.53H36.12v11.53Z"/>
      <path class="cls-1" d="M155.84,167.72c-10.47,.04-17.99-7.35-18.07-17.76-.09-10.62,7.43-18.2,18.04-18.17,10.44,.03,17.88,7.49,17.88,17.94,0,10.46-7.41,17.94-17.85,17.98Zm5.65-17.9c.04-3.19-2.79-6.09-5.88-6.01-2.95,.07-5.61,2.83-5.65,5.88-.04,3.18,2.81,6.09,5.88,6.02,2.95-.07,5.61-2.84,5.65-5.88Z"/>
      <path class="cls-1" d="M192.39,132.93v33.51c-6.08-.59-12.18-7.72-12.67-15.46-.55-8.63,5.16-16.49,12.67-18.05Z"/>
      <path class="cls-1" d="M78.23,23.97c13.35,0,26.69-.01,40.04,0,8.64,.01,13.46,4.8,13.5,13.37,.02,3.62,.1,7.24-.03,10.85-.24,6.55-5.2,11.64-11.76,11.66-28.06,.1-56.13,.1-84.19,0-6.7-.02-11.64-5.25-11.8-12.02-.09-3.87-.08-7.74,0-11.6,.13-7.15,5.16-12.21,12.34-12.25,13.97-.07,27.94-.02,41.91-.02Zm-42.12,23.69H119.62v-11.52H36.11v11.52Z"/>
      <path class="cls-1" d="M155.61,59.9c-10.42-.05-17.85-7.54-17.84-17.99,.01-10.58,7.62-18.05,18.27-17.93,10.39,.12,17.74,7.69,17.65,18.18-.09,10.42-7.61,17.79-18.08,17.75Zm5.88-17.97c0-3.04-2.62-5.83-5.58-5.94-3.08-.12-5.95,2.76-5.95,5.95,0,3.03,2.63,5.84,5.58,5.95,3.07,.12,5.95-2.76,5.95-5.95Z"/>
      <path class="cls-1" d="M197.61,59.9c-10.44-.02-17.89-7.48-17.91-17.92-.02-10.6,7.56-18.1,18.19-18.01,10.41,.09,17.78,7.62,17.72,18.1-.06,10.43-7.54,17.84-18.01,17.82Zm5.81-18.11c-.09-3.05-2.77-5.77-5.72-5.8-3.09-.03-5.89,2.92-5.8,6.09,.09,3.04,2.79,5.78,5.73,5.8,3.08,.03,5.89-2.93,5.8-6.1Z"/>
      <path class="cls-1" d="M77.34,275.56c-13.35,0-26.69,.02-40.04,0-8.42-.02-13.28-4.84-13.33-13.17-.02-3.62-.08-7.24,.02-10.85,.19-6.72,5.21-11.86,11.95-11.88,27.94-.08,55.88-.08,83.82,0,6.92,.02,11.86,5.18,12,12.2,.08,3.74,.07,7.49,0,11.23-.12,7.43-5.07,12.42-12.52,12.46-13.97,.07-27.94,.02-41.91,.02Zm-41.22-12.24H119.49v-11.53H36.12v11.53Z"/>
      <path class="cls-1" d="M155.55,275.55c-10.41-.07-17.82-7.59-17.78-18.05,.04-10.57,7.67-18.02,18.33-17.87,10.38,.14,17.71,7.74,17.59,18.23-.12,10.41-7.65,17.76-18.14,17.69Zm5.94-18.14c-.1-3.06-2.8-5.76-5.75-5.77-3.09-.01-5.88,2.95-5.78,6.12,.1,3.04,2.81,5.77,5.75,5.78,3.08,0,5.88-2.96,5.78-6.12Z"/>
      <path class="cls-1" d="M197.72,239.62c10.44,.03,17.88,7.48,17.89,17.93,.01,10.6-7.57,18.09-18.21,17.99-10.4-.1-17.78-7.65-17.71-18.12,.07-10.42,7.56-17.83,18.03-17.8Zm5.69,18.13c.1-3.17-2.68-6.12-5.78-6.11-2.95,0-5.65,2.72-5.75,5.77-.1,3.16,2.7,6.13,5.78,6.12,2.94-.01,5.65-2.74,5.75-5.78Z"/>
    </g>
  </g>
</svg>