<?xml version="1.0" encoding="UTF-8"?>
<svg id="Layer_2" data-name="Layer 2" xmlns="http://www.w3.org/2000/svg" viewBox="0 0 40 36">
  <defs>
    <style>
      .cls-1 {
        fill: #fff;
      }
    </style>
  </defs>
  <g id="Layer_1-2" data-name="Layer 1">
    <g>
      <path class="cls-1" d="M40,15.94c-.09,.45-.16,.91-.28,1.36-.96,3.72-4.06,6.26-7.72,6.32-.86,.01-1.71,0-2.6,0,0,.16-.02,.29-.02,.43,0,.88,0,1.76,0,2.64-.01,1.09-.75,1.88-1.78,1.88-2.16,.01-4.32,0-6.48,0-.15,0-.31,0-.52,0,0,.83,0,1.62,0,2.41,0,.07,.11,.18,.19,.22,.68,.28,1.15,.78,1.42,1.49,.04,.11,.25,.21,.38,.21,.94,.02,1.87,0,2.81,0,.14,0,.28,0,.44,0v1.24c-.28,0-.55,0-.82,0-.82,0-1.64,0-2.46,0-.12,0-.31,.1-.35,.21-.43,1.06-1.17,1.64-2.27,1.62-1.08-.03-1.79-.64-2.17-1.7-.01-.04-.04-.07-.07-.14-.1,0-.22,0-.33,0-2.54,0-5.08,0-7.62,0-.25,0-.38,.06-.48,.33-.43,1.1-1.54,1.71-2.6,1.48-1.11-.24-1.9-1.26-1.89-2.44,0-1.15,.78-2.17,1.84-2.4,1.12-.25,2.19,.34,2.65,1.44,.05,.11,.09,.23,.14,.36h2.31c1.87,0,3.75,0,5.62,0,.26,0,.41-.05,.51-.35,.22-.63,.67-1.09,1.26-1.32,.24-.1,.31-.23,.3-.48-.01-.71,0-1.43,0-2.19-.18,0-.32,0-.46,0-2.11,0-4.22,0-6.33,0-1.32,0-2-.72-2-2.1,0-.93,0-1.86,0-2.85-.17,0-.31,0-.45,0-1.42,0-2.84,0-4.26,0C2.51,23.59-.09,20.74,0,17.15c.08-2.96,2.22-5.43,5.12-5.91,.05,0,.1-.02,.19-.03,.05-.25,.09-.5,.15-.75,.51-2.29,2.27-4.05,4.48-4.44,.25-.04,.41-.15,.54-.39,.82-1.43,1.9-2.61,3.23-3.57,.21,.33,.42,.64,.68,1.05-.08,.04-.16,.08-.23,.13-1.27,.96-2.27,2.17-3.01,3.63-.1,.21-.23,.29-.45,.31-2.52,.2-4.2,2.12-4.22,4.78,0,.14,0,.27,0,.48-.2,0-.37,0-.55,0-2.52,.02-4.59,2.03-4.75,4.61-.16,2.64,1.6,4.99,4.11,5.27,1.43,.16,2.89,.05,4.33,.06,.32,0,.64,0,1,0,0-.98,0-1.91,0-2.84,0-1.38,.7-2.11,2-2.11,4.92,0,9.84,0,14.76,0,1.28,0,1.98,.74,1.98,2.09,0,.93,0,1.87,0,2.78,.04,.03,.06,.06,.08,.06,1.31-.05,2.65,.07,3.93-.18,3.28-.64,5.54-3.8,5.44-7.37-.09-3.4-2.57-6.39-5.79-6.87-1.1-.16-2.23-.1-3.35-.11-.29,0-.43-.08-.56-.37-1.8-4.07-5.48-6.42-9.74-6.2-1.27,.06-2.49,.42-3.64,.99-.12,.06-.23,.11-.39,.19-.18-.35-.36-.7-.54-1.07,.92-.53,1.87-.88,2.86-1.11,4.81-1.11,9.79,1.3,12.16,5.92,.16,.32,.34,.41,.66,.41,1.17-.01,2.34-.05,3.49,.26,3.08,.83,5.55,3.75,5.94,7.07,.01,.12,.05,.24,.08,.36v1.65Zm-20.01,11.39c2.49,0,4.97,0,7.46,0,.55,0,.75-.21,.75-.79,0-2.35,0-4.7,0-7.05,0-.6-.2-.81-.78-.82-4.95,0-9.89,0-14.84,0-.6,0-.79,.21-.79,.84,0,2.32,0,4.65,0,6.97,0,.66,.18,.85,.82,.85,2.46,0,4.92,0,7.38,0Zm0,7.42c.64,0,1.17-.54,1.18-1.21,.01-.68-.54-1.27-1.18-1.26-.63,0-1.16,.58-1.16,1.24,0,.67,.52,1.22,1.16,1.23Zm-12.91,0c.64,.01,1.18-.52,1.2-1.19,.02-.68-.52-1.27-1.16-1.28-.62,0-1.17,.56-1.18,1.22,0,.67,.51,1.23,1.14,1.25Z"/>
      <path class="cls-1" d="M27.05,34.13v-1.2h3.53c.07-.17,.13-.31,.19-.45,.47-1.06,1.56-1.62,2.66-1.36,1.05,.25,1.81,1.28,1.81,2.43,0,1.16-.79,2.16-1.89,2.4-1.04,.23-2.14-.34-2.57-1.4-.14-.34-.3-.43-.63-.42-.9,.03-1.8,0-2.69,0-.13,0-.25-.01-.4-.02Zm5.82,.62c.64,0,1.17-.53,1.18-1.21,.01-.68-.54-1.27-1.18-1.26-.63,0-1.16,.57-1.16,1.24,0,.67,.52,1.23,1.16,1.23Z"/>
      <path class="cls-1" d="M22.9,4.31h-1.12v-1.2h1.12v1.2Z"/>
      <path class="cls-1" d="M25.25,5.54h-1.12v-1.2h1.12v1.2Z"/>
      <path class="cls-1" d="M17.93,20.24c.72,0,1.42-.06,2.11,.02,.65,.08,1.18,.73,1.28,1.39,.11,.73-.18,1.4-.77,1.8-.1,.07-.2,.12-.33,.2,.4,.5,.78,.99,1.19,1.51-.3,.26-.58,.52-.89,.79-.47-.58-.92-1.14-1.43-1.79v1.63h-1.17v-5.55Zm1.17,2.22c.37,.04,.74,.13,.97-.23,.08-.13,.08-.42,0-.55-.23-.37-.61-.25-.97-.23v1.01Z"/>
      <path class="cls-1" d="M15.06,21.41v.95h1.56v1.25h-1.56v.97h1.71v1.21h-2.87v-5.58h2.87v1.2h-1.71Z"/>
      <path class="cls-1" d="M22.62,20.24c.72,0,1.44-.08,2.14,.02,.85,.12,1.43,1.01,1.37,1.92-.06,.94-.76,1.68-1.68,1.74-.22,.02-.44,0-.69,0,0,.34,0,.64,0,.94s0,.6,0,.93h-1.14v-5.56Zm1.16,2.45c.41,0,.85,.13,1.09-.34,.08-.17,.07-.48-.03-.64-.25-.41-.67-.29-1.06-.26v1.23Z"/>
    </g>
  </g>
</svg>