<?xml version="1.0" encoding="UTF-8"?>
<svg id="Layer_2" data-name="Layer 2" xmlns="http://www.w3.org/2000/svg" viewBox="0 0 370.84 371.59">
  <defs>
    <style>
      .cls-1 {
        fill: #fff;
      }
    </style>
  </defs>
  <g id="Layer_1-2" data-name="Layer 1">
    <g>
      <path class="cls-1" d="M356.75,0c.84,.41,1.66,.85,2.51,1.21,6.97,2.98,11.27,8.17,11.38,15.79,.26,16.56,.26,33.14,.02,49.7-.13,9.09-6.72,15.84-15.77,17.02-1.08,.14-2.2,.35-3.25,.2-10.81-1.6-19.75,2.2-28.59,8.25-13.25,9.08-27.15,17.19-40.78,25.7-.91,.57-1.85,1.07-3.46,1.99,2.07-12.21,4.03-23.8,6.09-35.91-4.54,0-8.86,0-13.17,0-13.72-.01-20.83-7.08-20.84-20.73,0-13.54,.33-27.1-.1-40.63-.36-11.15,3.63-18.93,14.5-22.6,30.49,0,60.97,0,91.46,0Zm-57.64,71.89c-.69,4.21-1.29,7.9-1.91,11.58-.63,3.79-1.28,7.57-2.02,11.93,1.52-.82,2.57-1.33,3.55-1.94,6.46-4.03,13.25-7.62,19.27-12.22,9.87-7.53,20.53-10.91,32.96-9.47,5.78,.67,7.91-1.88,7.92-7.63,.02-14.75,.02-29.5,0-44.25,0-5.85-1.97-7.85-7.83-7.85-26.72-.02-53.44-.02-80.16,0-6.01,0-7.87,1.85-7.88,7.73-.02,14.75-.02,29.5,0,44.25,0,6.09,1.85,7.87,8.08,7.88,9.17,0,18.34,0,28.02,0Z"/>
      <path class="cls-1" d="M301.03,323.74H172.73c3.57,3.07,6.53,5.62,9.72,8.37-11.1,10.16-21.23,19.48-31.42,28.74-8.16,7.42-17.86,10.94-28.83,10.74-10.29-.19-19.63-3.48-27-10.7-19.01-18.62-37.75-37.52-56.58-56.31-8.39-8.37-16.78-16.75-25.15-25.14-17.93-17.99-17.97-43.41-.08-61.44,8.51-8.57,17.07-17.09,25.49-25.53,14.83,14.82,29.45,29.44,44.33,44.31-.68,.75-1.42,1.64-2.24,2.45-6.66,6.68-13.36,13.33-20.01,20.02-3.76,3.78-3.79,6.86-.09,10.61,6.26,6.36,12.56,12.7,19.26,19.45,1.09-3.05,1.92-5.52,2.85-7.96,5.77-15.13,16.62-24.29,32.52-27.33,13.04-2.49,26.11-4.82,40.42-7.44-1.29-1.8-1.91-3.42-3.09-4.2-13.39-8.89-22.07-21.06-26.19-36.59-.32-1.21-1.62-2.62-2.8-3.06-10.71-3.99-16.72-12.33-16.76-23.77-.04-13.91-.11-27.82,.02-41.73,.36-39.56,30.71-73,69.66-76.88,40.24-4.01,76.82,22.82,84.63,62.29,1.07,5.42,1.49,11.04,1.53,16.58,.17,22.86,.08,45.72,.07,68.58-.01,12.63-7.45,20.3-20.09,19.91-6.5-.2-11.75,.6-15.88,6.45-2.28,3.22-6.28,5.2-9.38,7.89-1.06,.92-1.72,2.28-2.57,3.44,1.25,.66,2.43,1.66,3.75,1.91,11.99,2.28,24.03,4.28,35.99,6.65,16.01,3.17,26.98,12.51,32.42,27.92,4.62,13.09,8.85,26.33,13.24,39.5,.18,.55,.28,1.14,.55,2.27Zm-163.68-35.44c7,7.04,13.95,13.91,20.74,20.93,1.75,1.81,3.55,2.46,6.03,2.45,38.7-.07,77.39-.05,116.09-.05,1.27,0,2.54,0,4.36,0-3.08-9.2-5.78-17.82-8.86-26.31-3.96-10.91-11.93-17.39-23.25-19.57-12.92-2.49-25.88-4.82-38.87-6.99-1.44-.24-3.54,.56-4.63,1.61-7.31,7.05-14.43,14.3-21.62,21.48-.74,.74-1.55,1.39-2.56,2.28-8.01-8.05-15.79-15.99-23.75-23.74-1.08-1.06-3.18-1.88-4.61-1.64-12.98,2.17-25.94,4.51-38.87,6.99-11.49,2.2-19.35,8.88-23.44,19.87-1.3,3.5-2.31,7.12-3.62,10.62-.7,1.85-.34,3.07,1.11,4.42,3.27,3.05,6.36,6.29,9.53,9.45,4.53,4.52,6.98,4.6,11.7,.34,8.07-7.29,16.13-14.58,24.51-22.15Zm112.84-129.69c0-10.18,1.19-20.44-.23-30.32-3.62-25.14-17.92-42.87-41.57-51.9-23.97-9.16-46.45-4.92-66.19,11.49-22.38,18.62-25.04,43.87-22.62,70.8,1.79-.7,3.57-1.39,5.4-2.11,.1-2.19,.2-4.31,.31-6.84,24.52,1.49,44-8.1,59.75-26.68,15.77,18.79,35.44,28.18,59.9,26.73v6.75c1.94,.77,3.7,1.48,5.23,2.09Zm-64.49-17.4c-7.75,4.74-14.87,10.14-22.81,13.66-8.05,3.57-16.92,5.28-25.88,7.95,0,8.83-.04,18.37,0,27.91,.15,29.4,23.15,50.88,52.45,48.76,9.85-.71,18.56-4.51,25.95-11.7h-30.11v-12.07c12.77,0,25.22-.12,37.67,.09,2.96,.05,4.27-1.04,5.4-3.53,2.95-6.49,4.54-13.24,4.57-20.35,.04-9.07-.06-18.14,.08-27.21,.04-2.54-.93-3.28-3.3-3.52-12.51-1.27-23.93-5.62-34.33-12.62-3.59-2.42-6.91-5.24-9.68-7.37ZM23.86,224.65c-15.17,13.08-15.96,32.24-1.74,46.5,13.92,13.95,27.87,27.88,41.8,41.81,12.57,12.57,25.06,25.21,37.73,37.67,13.33,13.12,34.76,11.6,45.24-2.75-9.03-9.11-18.03-18.18-27.04-27.27-9.93,6.72-18.38,6.66-25.68-.58-14.26-14.13-28.45-28.32-42.57-42.58-5.54-5.6-6.98-12.29-4.05-19.67,.87-2.2,2.37-4.15,3.43-5.96-9.05-9.07-18.09-18.12-27.13-27.18Zm139.95,108.23c-9.29-9.39-18.19-18.39-27.32-27.62-2.31,2.1-4.76,4.34-7.03,6.41,9.25,9.22,18.29,18.22,27.58,27.48,2.16-2,4.6-4.26,6.77-6.27Zm-98.01-95.88c-9.09-9.11-18.07-18.12-26.94-27-1.81,1.73-3.87,3.7-5.75,5.49,9.1,9.16,18.08,18.2,27.01,27.18,1.93-1.93,3.94-3.94,5.68-5.67Zm102.04,12.27c6.24,6.21,11.86,11.81,16.88,16.81,5.47-5.46,11.19-11.17,16.61-16.58-10.53,3.03-21.73,3.04-33.49-.23Zm72.56-33.84c10.07,1.51,11.73-2.77,9.87-14.8-2.35,1.35-5.44,2.1-6.51,3.99-1.78,3.15-2.27,7.03-3.36,10.81Zm-115.51-25.72v-19.57c-6.7,2.49-8.29,14.96,0,19.57Zm120.22,.36c4.15-3.04,6.04-6.5,5.72-11.05-.28-3.89-1.95-6.95-5.72-9.19v20.24Z"/>
      <path class="cls-1" d="M21.13,170.07c-7.07-11.78-13.96-23.26-21.04-35.05,3.42-2.07,6.67-4.04,10.23-6.2,3.71,6.15,7.3,12.11,11.15,18.5,15.01-55.24,47.76-94.77,100.25-116.78,36.67-15.38,74.38-16.35,112.95-5.16-1.16,3.86-2.25,7.47-3.39,11.23-54.86-14.63-104.6-5.22-148.17,31.51-24.9,21-40.91,47.85-49.3,80.31,5.85-3.47,10.89-6.47,16.23-9.64,2.07,3.42,4.03,6.67,6.16,10.2-11.74,7.05-23.2,13.94-35.09,21.08Z"/>
      <path class="cls-1" d="M332.7,135.24c-3.82,6.31-7.12,11.77-10.65,17.59-3.39-2-6.66-3.94-10.28-6.07,7.04-11.74,13.97-23.3,21.05-35.11,11.79,7.08,23.33,14,35.09,21.06-2.16,3.59-4.12,6.86-6.15,10.25-5.78-3.45-11.26-6.72-17.23-10.28,17.15,57.99,7.51,110.66-28.9,158.94-3.35-2.72-6.29-5.11-9.28-7.54,33.89-45.06,42.85-94.2,26.36-148.85Z"/>
      <path class="cls-1" d="M163.81,332.88c-2.17,2.01-4.61,4.27-6.77,6.27-9.29-9.26-18.33-18.26-27.58-27.48,2.27-2.07,4.72-4.3,7.03-6.41,9.13,9.23,18.03,18.23,27.32,27.62Z"/>
      <path class="cls-1" d="M65.8,237c-1.73,1.73-3.75,3.75-5.68,5.67-8.92-8.98-17.91-18.03-27.01-27.18,1.87-1.79,3.93-3.75,5.75-5.49,8.86,8.88,17.85,17.89,26.94,27Z"/>
      <path class="cls-1" d="M240.4,215.43c1.09-3.78,1.58-7.66,3.36-10.81,1.07-1.89,4.16-2.63,6.51-3.99,1.86,12.03,.2,16.31-9.87,14.8Z"/>
      <path class="cls-1" d="M124.89,189.71c-8.29-4.61-6.7-17.08,0-19.57v19.57Z"/>
      <path class="cls-1" d="M245.11,190.06v-20.24c3.77,2.24,5.44,5.3,5.72,9.19,.32,4.55-1.57,8.01-5.72,11.05Z"/>
      <path class="cls-1" d="M346.54,35.76h-71.47v-11.54h71.47v11.54Z"/>
      <path class="cls-1" d="M322.66,48.16v11.57h-47.61v-11.57h47.61Z"/>
      <path class="cls-1" d="M346.59,48.11v11.67h-11.46v-11.67h11.46Z"/>
    </g>
  </g>
</svg>