<?xml version="1.0" encoding="UTF-8"?>
<svg id="Layer_2" data-name="Layer 2" xmlns="http://www.w3.org/2000/svg" viewBox="0 0 409.05 408.81">
  <defs>
    <style>
      .cls-1 {
        fill: #fff;
      }
    </style>
  </defs>
  <g id="Layer_1-2" data-name="Layer 1">
    <g>
      <path class="cls-1" d="M0,277.07c2.3-7.91,5.94-15,13.88-18.43,3.93-1.69,8.39-2.99,12.62-3,84.5-.17,169-.16,253.5-.1,15.56,.01,26.39,10.85,26.58,26.34,.13,10.78,.02,21.56,.03,32.34,0,6.65-2.15,12.51-6.7,18.03,7.25,7.51,6.85,17.03,6.72,26.53-.1,7.32-.01,14.64-.02,21.96-.02,14.73-6.44,23.31-20.53,27.51-.37,.11-.68,.38-1.02,.57H21.56c-2.35-.87-4.77-1.59-7.04-2.64C6.41,402.42,2.34,395.48,0,387.25,0,373.15,0,359.04,0,344.94c1.9-3.85,3.85-7.68,5.66-11.58,.31-.67,.31-1.73,0-2.4C3.84,327.07,1.9,323.24,0,319.39c0-14.11,0-28.21,0-42.32Zm152.84,46.52c41.89,0,83.79,0,125.68,0,8.03,0,11.06-3.04,11.09-11.06,.04-9.71,.05-19.42,0-29.13-.04-7.67-3.25-10.88-10.96-10.89-83.52-.02-167.04-.02-250.57,0-7.9,0-11.06,3.21-11.09,11.16-.04,9.18-.01,18.35,0,27.53,0,9.91,2.52,12.39,12.57,12.39,41.1,0,82.19,0,123.29,0Zm.45,17.15c-41.63,0-83.26,0-124.88,0-8.53,0-11.41,2.93-11.42,11.54-.02,9.31-.02,18.62,0,27.93,.02,8.54,3.02,11.62,11.45,11.62,83.26,.01,166.51,.01,249.77,0,8.41,0,11.4-3.09,11.42-11.64,.02-9.04,0-18.09,0-27.13,0-9.75-2.56-12.32-12.25-12.32-41.36,0-82.72,0-124.09,0Z"/>
      <path class="cls-1" d="M0,205.21c1.34-5.52,2.16-11.22,4.09-16.52,10.52-28.76,30.87-46.03,61.12-51.45,1.03-.18,2.03-.5,3.28-.81,0-4.88-.15-9.65,.02-14.41C70.63,64.5,112.21,14.41,169.94,2.85c45.27-9.07,84.76,3.63,117.42,36.35,16.72,16.75,27.54,36.98,32.77,60.1,.6,2.66,1.82,3.45,4.5,3.83,39.24,5.48,66.87,26.35,79.26,64.13,11.91,36.33,2.85,68.75-23.94,95.94-12.34,12.52-27.54,20.21-44.64,24.14-5.25,1.2-9.29-.54-11.07-4.64-1.52-3.52-.53-7.88,2.7-9.94,1.85-1.18,4.1-1.85,6.26-2.41,22.96-5.96,39.83-19.55,50.57-40.63,23.02-45.2-5.93-101.52-56.12-109.25-4.06-.63-8.19-.85-12.29-1.26-6.5-.64-9.28-3.1-10.41-9.44-5.14-28.91-19.3-52.43-42.65-70.15-20.96-15.91-44.75-23.56-71.15-22.22-36.39,1.84-65.23,17.94-86.14,47.52-15.7,22.2-21.95,47.23-19.01,74.41,.13,1.19,.25,2.38,.3,3.58,.31,7.08-2.73,10.35-9.85,10.41-13.64,.11-26.07,4.04-36.52,12.78-18.71,15.64-26.32,35.46-21.05,59.7,.34,1.56,.79,3.1,.99,4.68,.63,4.96-2.13,9.08-6.53,9.9-4.63,.86-8.67-1.61-10-6.45-1.05-3.83-1.72-7.77-2.59-11.66-.2-.9-.49-1.77-.74-2.65,0-4.79,0-9.58,0-14.37Z"/>
      <path class="cls-1" d="M0,387.25c2.34,8.22,6.41,15.16,14.52,18.92,2.27,1.05,4.69,1.77,7.04,2.64H0v-21.56Z"/>
      <path class="cls-1" d="M0,319.39c1.9,3.85,3.84,7.68,5.65,11.58,.31,.67,.32,1.73,0,2.4C3.85,337.26,1.9,341.09,0,344.94c0-8.52,0-17.03,0-25.55Z"/>
      <path class="cls-1" d="M230.07,289.64c10.9,0,21.8-.05,32.7,.02,4.98,.03,8.21,2.22,9.3,5.98,1.55,5.34-2.05,10.41-7.95,10.89-3.04,.25-6.11,.08-9.17,.08-19.14,0-38.29,.02-57.43-.01-5.52-.01-9.06-2.55-9.84-6.84-1.04-5.72,2.78-10.01,9.29-10.08,11.03-.12,22.07-.03,33.1-.03Z"/>
      <path class="cls-1" d="M34.21,298.23c-.06-4.65,3.5-8.37,8.13-8.49,4.72-.12,8.74,3.77,8.7,8.42-.04,4.41-4.01,8.37-8.42,8.4-4.48,.03-8.35-3.8-8.41-8.32Z"/>
      <path class="cls-1" d="M229.53,374.68c-10.5,0-21.01,.1-31.51-.07-2.29-.04-4.77-.57-6.8-1.6-3-1.53-3.98-4.49-3.62-7.8,.36-3.36,2.23-5.71,5.37-6.76,1.72-.57,3.65-.71,5.48-.72,21.27-.05,42.54-.05,63.81-.02,5.37,0,8.86,2.32,9.86,6.35,1.42,5.71-2.55,10.49-9.11,10.57-11.17,.13-22.33,.03-33.5,.04Z"/>
      <path class="cls-1" d="M42.5,374.59c-4.63-.04-8.27-3.71-8.28-8.34-.01-4.56,3.72-8.39,8.25-8.47,4.56-.08,8.69,4.08,8.57,8.63-.12,4.53-3.98,8.22-8.53,8.19Z"/>
    </g>
  </g>
</svg>