<?xml version="1.0" encoding="utf-8"?>
<!-- Generator: Adobe Illustrator 27.0.0, SVG Export Plug-In . SVG Version: 6.00 Build 0)  -->
<svg version="1.1"  id="Layer_1" xmlns="http://www.w3.org/2000/svg" xmlns:xlink="http://www.w3.org/1999/xlink" x="0px" y="0px"
	 viewBox="0 0 691 621" style="enable-background:new 0 0 691 621;" xml:space="preserve">
<style type="text/css">
     <!-- #Layer_1{width:56%;} -->
	.st0{clip-path:url(#SVGID_00000032634792838319783980000000931124670739427995_);}
	.st1{fill:none;stroke:#F9C450;stroke-width:2;stroke-linecap:round;stroke-linejoin:round;stroke-miterlimit:10;}
	.st2{fill:#1E2654;}
	.st3{fill:#F9C450;}
	.st4{fill:none;stroke:#F9C450;stroke-miterlimit:10;}
</style>
<g>
	<defs>
		<rect id="SVGID_1_" width="691" height="621"/>
	</defs>
	<clipPath id="SVGID_00000180328618286946513770000014463953275046825096_">
		<use xlink:href="#SVGID_1_"  style="overflow:visible;"/>
	</clipPath>
	<g style="clip-path:url(#SVGID_00000180328618286946513770000014463953275046825096_);">
		<path class="st1" d="M199.6,584.9C241,607.3,288.4,620,338.8,620c162.1,0,293.6-131.7,293.6-294.2c0-25.8-3.3-50.8-9.5-74.6"/>
		<path class="st1" d="M540.2,111.8c-52.6-49.7-123.4-80.2-201.4-80.2c-162.1,0-293.6,131.7-293.6,294.2c0,32.4,5.2,63.6,14.9,92.8"
			/>
		<path class="st1" d="M93.8,254.1c-6.6,22.8-10.2,46.9-10.2,71.8c0,141.2,114.2,255.7,255.2,255.7c54,0,104.2-16.8,145.4-45.6"/>
		<path class="st1" d="M593.9,325.8c0-84.1-40.5-158.8-103.1-205.4c-42.5-31.6-95.1-50.3-152-50.3c-81.5,0-154,38.2-200.7,97.8"/>
		<path class="st2" d="M153.8,308.5c-71,0-128.6-57.7-128.6-128.8c0-71.2,57.6-128.8,128.6-128.8c71,0,128.6,57.7,128.6,128.8
			C282.3,250.8,224.8,308.5,153.8,308.5z"/>
		<path class="st3" d="M593,544.6c-33.8,0-61.2-27.5-61.2-61.3c0-33.9,27.4-61.3,61.2-61.3c33.8,0,61.2,27.5,61.2,61.3
			C654.2,517.1,626.8,544.6,593,544.6z"/>
		<path class="st2" d="M66.9,416.2c14.9,0,27,12.1,27,27.1c0,15-12.1,27.1-27,27.1c-14.9,0-27-12.1-27-27.1
			C39.9,428.3,52,416.2,66.9,416.2z M66.9,463.6c11.2,0,20.3-9.1,20.3-20.4s-9.1-20.4-20.3-20.4c-11.2,0-20.3,9.1-20.3,20.4
			S55.7,463.6,66.9,463.6z"/>
		<path class="st2" d="M615.3,196.8c15.6,0,28.3,12.7,28.3,28.3c0,15.6-12.7,28.3-28.3,28.3s-28.3-12.7-28.3-28.3
			C587.1,209.5,599.7,196.8,615.3,196.8z M615.3,246.5c11.7,0,21.2-9.5,21.2-21.3c0-11.8-9.5-21.3-21.2-21.3s-21.2,9.5-21.2,21.3
			C594.1,236.9,603.6,246.5,615.3,246.5z"/>
		<path class="st3" d="M211.3,35.5c-9.8,0-17.7-8-17.7-17.8C193.6,8,201.5,0,211.3,0c9.8,0,17.7,8,17.7,17.8
			C229.1,27.6,221.1,35.5,211.3,35.5z"/>
		<path class="st3" d="M661.8,572.3c-9.8,0-17.7-8-17.7-17.8c0-9.8,7.9-17.8,17.7-17.8c9.8,0,17.7,8,17.7,17.8
			C679.5,564.3,671.5,572.3,661.8,572.3z"/>
		<path class="st4" d="M594,580.8c-53,0-96-43.1-96-96.2s43-96.2,96-96.2c53,0,96,43.1,96,96.2S647,580.8,594,580.8z"/>
		<path class="st3" d="M20.9,191.2c-17.1-7.1-25.2-26.7-18.1-43.8c7.1-17.1,26.6-25.2,43.7-18.1c17.1,7.1,25.2,26.7,18.1,43.8
			C57.5,190.2,38,198.3,20.9,191.2z"/>
	</g>
</g>
</svg>
